<?xml version="1.0" encoding="UTF-8" standalone="no"?>
<svg width="570px" height="265px" viewBox="0 0 570 265" version="1.1" xmlns="http://www.w3.org/2000/svg" xmlns:xlink="http://www.w3.org/1999/xlink">
    <!-- Generator: Sketch 43.2 (39069) - http://www.bohemiancoding.com/sketch -->
    <title>Wordmark</title>
    <desc>Created with Sketch.</desc>
    <defs></defs>
    <g id="Page-1" stroke="none" stroke-width="1" fill="none" fill-rule="evenodd">
        <g id="Wordmark">
            <g id="Logo" transform="translate(28.000000, 21.000000)">
                <path d="M163.587082,185.263753 C181.94704,168.194323 211.538664,145.355263 230.656054,120.565275 C255.607258,88.2104352 251.506486,38.8379739 222.786946,15.1508649 C204.590657,0.143052417 185.427785,0.100408736 171.540207,1.66316658 C149.34464,4.16081558 128.526162,20.9517747 124.008373,34.488959 C119.573089,20.9314305 98.6977888,4.04947875 76.4373363,1.54452822 C62.549758,-0.018229619 43.3868868,0.0244140625 25.1905978,15.0322266 C-3.52894295,38.7193356 -7.62971472,88.0917969 17.3214896,120.446636 C36.4388793,145.236625 66.0305035,168.075685 84.3904613,185.145114 C106.728408,205.912918 124.026493,230.73438 124.026493,230.73438 C124.026493,230.73438 141.249135,206.031557 163.587082,185.263753 Z" id="Heart" fill="#39B5F2"></path>
                <path d="M92.0720669,95.2870016 C79.0654293,111.219848 80.0445956,134.62529 95.0090806,149.433431 C103.015106,157.355812 113.507733,161.316522 124.000846,161.316522 C134.493715,161.316522 144.986343,157.355812 152.992125,149.433431 C167.95661,134.62529 168.933594,111.219848 155.926956,95.2870016 C143.635835,79.8142613 131.330404,72.7276091 124.000846,53.6042567 C116.671287,72.7276091 104.36343,79.8140213 92.0720669,95.2870016 Z" id="Drop" fill="#FFFFFF"></path>
            </g>
            <path d="M304.312,36.144 L315.512,36.144 C321.912032,36.144 326.903982,37.8719827 330.488,41.328 C334.072018,44.7840173 335.864,49.9679654 335.864,56.88 C335.864,60.3360173 335.405338,63.3866534 334.488,66.032 C333.570662,68.6773466 332.248009,70.8853245 330.52,72.656 C328.791991,74.4266755 326.701346,75.7599955 324.248,76.656 C321.794654,77.5520045 319.010682,78 315.896,78 L304.312,78 L304.312,36.144 Z M315,71.984 C319.266688,71.984 322.541322,70.7573456 324.824,68.304 C327.106678,65.8506544 328.248,62.0426925 328.248,56.88 C328.248,51.7599744 327.096012,48.0266784 324.792,45.68 C322.487988,43.3333216 319.224021,42.16 315,42.16 L311.736,42.16 L311.736,71.984 L315,71.984 Z M343.072,46.576 L349.152,46.576 L349.664,52.144 L349.92,52.144 C351.029339,50.0959898 352.373325,48.5280054 353.952,47.44 C355.530675,46.3519946 357.151992,45.808 358.816,45.808 C360.309341,45.808 361.503996,46.0213312 362.4,46.448 L361.12,52.848 C360.565331,52.6773325 360.053336,52.5493338 359.584,52.464 C359.114664,52.3786662 358.53867,52.336 357.856,52.336 C356.61866,52.336 355.31734,52.8159952 353.952,53.776 C352.58666,54.7360048 351.413338,56.4106547 350.432,58.8 L350.432,78 L343.072,78 L343.072,46.576 Z M366.024,46.576 L373.384,46.576 L373.384,65.328 C373.384,67.9306797 373.767996,69.765328 374.536,70.832 C375.304004,71.898672 376.541325,72.432 378.248,72.432 C379.61334,72.432 380.818661,72.0906701 381.864,71.408 C382.909339,70.7253299 384.029327,69.6160077 385.224,68.08 L385.224,46.576 L392.584,46.576 L392.584,78 L386.568,78 L385.992,73.392 L385.8,73.392 C384.43466,75.0133414 382.952008,76.3146618 381.352,77.296 C379.751992,78.2773382 377.864011,78.768 375.688,78.768 C372.317316,78.768 369.864008,77.6906774 368.328,75.536 C366.791992,73.3813226 366.024,70.2986867 366.024,66.288 L366.024,46.576 Z M408.688,80.56 L408.688,90.416 L401.328,90.416 L401.328,46.576 L407.408,46.576 L407.92,49.904 L408.176,49.904 C409.498673,48.7946611 410.970659,47.8346707 412.592,47.024 C414.213341,46.2133293 415.898658,45.808 417.648,45.808 C419.610676,45.808 421.349326,46.1813296 422.864,46.928 C424.378674,47.6746704 425.669328,48.751993 426.736,50.16 C427.802672,51.568007 428.613331,53.2533235 429.168,55.216 C429.722669,57.1786765 430,59.3759878 430,61.808 C430,64.4960134 429.62667,66.8959894 428.88,69.008 C428.13333,71.1200106 427.14134,72.8906595 425.904,74.32 C424.66666,75.7493405 423.237341,76.8479962 421.616,77.616 C419.994659,78.3840038 418.309342,78.768 416.56,78.768 C415.19466,78.768 413.82934,78.4693363 412.464,77.872 C411.09866,77.2746637 409.776006,76.4213389 408.496,75.312 L408.688,80.56 Z M408.688,70.064 C409.840006,71.0453382 410.949328,71.7279981 412.016,72.112 C413.082672,72.4960019 414.085329,72.688 415.024,72.688 C417.114677,72.688 418.863993,71.7813424 420.272,69.968 C421.680007,68.1546576 422.384,65.4560179 422.384,61.872 C422.384,58.7146509 421.850672,56.2613421 420.784,54.512 C419.717328,52.7626579 417.989345,51.888 415.6,51.888 C413.381322,51.888 411.077345,53.0613216 408.688,55.408 L408.688,70.064 Z M434.712,69.552 C434.712,66.1813165 436.183985,63.5786758 439.128,61.744 C442.072015,59.9093242 446.765301,58.629337 453.208,57.904 C453.208,57.0933293 453.101334,56.3146704 452.888,55.568 C452.674666,54.8213296 452.344002,54.1600029 451.896,53.584 C451.447998,53.0079971 450.872004,52.5600016 450.168,52.24 C449.463996,51.9199984 448.578672,51.76 447.512,51.76 C445.933325,51.76 444.408007,52.0586637 442.936,52.656 C441.463993,53.2533363 440.04534,53.9786624 438.68,54.832 L435.992,49.904 C437.741342,48.7946611 439.693323,47.8346707 441.848,47.024 C444.002677,46.2133293 446.338654,45.808 448.856,45.808 C452.82402,45.808 455.76799,46.970655 457.688,49.296 C459.60801,51.621345 460.568,54.9813114 460.568,59.376 L460.568,78 L454.552,78 L453.976,74.544 L453.784,74.544 C452.375993,75.7386726 450.872008,76.7413293 449.272,77.552 C447.671992,78.3626707 445.933343,78.768 444.056,78.768 C441.282653,78.768 439.032009,77.9253418 437.304,76.24 C435.575991,74.5546582 434.712,72.3253472 434.712,69.552 Z M441.88,68.976 C441.88,70.384007 442.295996,71.4079968 443.128,72.048 C443.960004,72.6880032 445.037327,73.008 446.36,73.008 C447.640006,73.008 448.813328,72.7093363 449.88,72.112 C450.946672,71.5146637 452.055994,70.6613389 453.208,69.552 L453.208,62.512 C451.074656,62.7680013 449.282674,63.1093312 447.832,63.536 C446.381326,63.9626688 445.218671,64.442664 444.344,64.976 C443.469329,65.509336 442.840002,66.1173299 442.456,66.8 C442.071998,67.4826701 441.88,68.2079962 441.88,68.976 Z M468.928,32.816 L476.288,32.816 L476.288,70.32 C476.288,71.2160045 476.458665,71.8453315 476.8,72.208 C477.141335,72.5706685 477.503998,72.752 477.888,72.752 L478.368,72.752 C478.517334,72.752 478.741332,72.7093338 479.04,72.624 L480,78.128 C479.018662,78.5546688 477.717341,78.768 476.096,78.768 C473.450653,78.768 471.594672,77.9786746 470.528,76.4 C469.461328,74.8213254 468.928,72.6666803 468.928,69.936 L468.928,32.816 Z M304.312,88.144 L315.512,88.144 C321.912032,88.144 326.903982,89.8719827 330.488,93.328 C334.072018,96.7840173 335.864,101.967965 335.864,108.88 C335.864,112.336017 335.405338,115.386653 334.488,118.032 C333.570662,120.677347 332.248009,122.885324 330.52,124.656 C328.791991,126.426676 326.701346,127.759996 324.248,128.656 C321.794654,129.552004 319.010682,130 315.896,130 L304.312,130 L304.312,88.144 Z M315,123.984 C319.266688,123.984 322.541322,122.757346 324.824,120.304 C327.106678,117.850654 328.248,114.042692 328.248,108.88 C328.248,103.759974 327.096012,100.026678 324.792,97.68 C322.487988,95.3333216 319.224021,94.16 315,94.16 L311.736,94.16 L311.736,123.984 L315,123.984 Z M346.504,93.072 C345.181327,93.072 344.093338,92.6880038 343.24,91.92 C342.386662,91.1519962 341.96,90.1493395 341.96,88.912 C341.96,87.6746605 342.386662,86.6613373 343.24,85.872 C344.093338,85.0826627 345.181327,84.688 346.504,84.688 C347.826673,84.688 348.914662,85.0826627 349.768,85.872 C350.621338,86.6613373 351.048,87.6746605 351.048,88.912 C351.048,90.1493395 350.621338,91.1519962 349.768,91.92 C348.914662,92.6880038 347.826673,93.072 346.504,93.072 Z M342.792,98.576 L350.152,98.576 L350.152,130 L342.792,130 L342.792,98.576 Z M354.776,98.576 L362.264,98.576 L367.256,114.896 C367.682669,116.432008 368.119998,117.989325 368.568,119.568 C369.016002,121.146675 369.453331,122.746659 369.88,124.368 L370.136,124.368 C370.605336,122.746659 371.053331,121.146675 371.48,119.568 C371.906669,117.989325 372.354664,116.432008 372.824,114.896 L377.816,98.576 L384.92,98.576 L374.232,130 L365.72,130 L354.776,98.576 Z M387.048,114.32 C387.048,111.759987 387.453329,109.45601 388.264,107.408 C389.074671,105.35999 390.151993,103.632007 391.496,102.224 C392.840007,100.815993 394.386658,99.7280038 396.136,98.96 C397.885342,98.1919962 399.677324,97.808 401.512,97.808 C403.645344,97.808 405.522659,98.170663 407.144,98.896 C408.765341,99.621337 410.119995,100.645327 411.208,101.968 C412.296005,103.290673 413.117331,104.869324 413.672,106.704 C414.226669,108.538676 414.504,110.543989 414.504,112.72 C414.504,114.170674 414.397334,115.322662 414.184,116.176 L394.216,116.176 C394.557335,119.034681 395.549325,121.231992 397.192,122.768 C398.834675,124.304008 400.935987,125.072 403.496,125.072 C404.86134,125.072 406.130661,124.869335 407.304,124.464 C408.477339,124.058665 409.639994,123.493337 410.792,122.768 L413.288,127.376 C411.794659,128.357338 410.130676,129.167997 408.296,129.808 C406.461324,130.448003 404.541343,130.768 402.536,130.768 C400.359989,130.768 398.333343,130.39467 396.456,129.648 C394.578657,128.90133 392.936007,127.824007 391.528,126.416 C390.119993,125.007993 389.021337,123.290677 388.232,121.264 C387.442663,119.237323 387.048,116.92268 387.048,114.32 Z M408.104,111.504 C408.104,108.986654 407.581339,107.024007 406.536,105.616 C405.490661,104.207993 403.880011,103.504 401.704,103.504 C399.826657,103.504 398.184007,104.175993 396.776,105.52 C395.367993,106.864007 394.493335,108.858653 394.152,111.504 L408.104,111.504 Z M420.664,98.576 L426.744,98.576 L427.256,104.144 L427.512,104.144 C428.621339,102.09599 429.965325,100.528005 431.544,99.44 C433.122675,98.3519946 434.743992,97.808 436.408,97.808 C437.901341,97.808 439.095996,98.0213312 439.992,98.448 L438.712,104.848 C438.157331,104.677332 437.645336,104.549334 437.176,104.464 C436.706664,104.378666 436.13067,104.336 435.448,104.336 C434.21066,104.336 432.90934,104.815995 431.544,105.776 C430.17866,106.736005 429.005338,108.410655 428.024,110.8 L428.024,130 L420.664,130 L420.664,98.576 Z M443.336,121.68 C444.744007,122.789339 446.141326,123.65333 447.528,124.272 C448.914674,124.89067 450.418659,125.2 452.04,125.2 C453.746675,125.2 455.005329,124.848004 455.816,124.144 C456.626671,123.439996 457.032,122.533339 457.032,121.424 C457.032,120.783997 456.840002,120.218669 456.456,119.728 C456.071998,119.237331 455.560003,118.800002 454.92,118.416 C454.279997,118.031998 453.554671,117.680002 452.744,117.36 C451.933329,117.039998 451.122671,116.709335 450.312,116.368 C449.287995,115.983998 448.242672,115.536003 447.176,115.024 C446.109328,114.511997 445.160004,113.893337 444.328,113.168 C443.495996,112.442663 442.813336,111.600005 442.28,110.64 C441.746664,109.679995 441.48,108.538673 441.48,107.216 C441.48,104.442653 442.50399,102.181342 444.552,100.432 C446.60001,98.6826579 449.394649,97.808 452.936,97.808 C455.112011,97.808 457.074658,98.1919962 458.824,98.96 C460.573342,99.7280038 462.087994,100.602662 463.368,101.584 L459.976,106.064 C458.866661,105.253329 457.746672,104.602669 456.616,104.112 C455.485328,103.621331 454.30134,103.376 453.064,103.376 C451.485325,103.376 450.32267,103.706663 449.576,104.368 C448.82933,105.029337 448.456,105.850662 448.456,106.832 C448.456,107.472003 448.637332,108.015998 449,108.464 C449.362668,108.912002 449.842664,109.306665 450.44,109.648 C451.037336,109.989335 451.730663,110.309332 452.52,110.608 C453.309337,110.906668 454.130662,111.205332 454.984,111.504 C456.050672,111.888002 457.117328,112.325331 458.184,112.816 C459.250672,113.306669 460.221329,113.914663 461.096,114.64 C461.970671,115.365337 462.674664,116.250661 463.208,117.296 C463.741336,118.341339 464.008,119.589326 464.008,121.04 C464.008,122.40534 463.741336,123.674661 463.208,124.848 C462.674664,126.021339 461.896005,127.045329 460.872,127.92 C459.847995,128.794671 458.568008,129.487997 457.032,130 C455.495992,130.512003 453.746676,130.768 451.784,130.768 C449.607989,130.768 447.464011,130.352004 445.352,129.52 C443.239989,128.687996 441.416008,127.65334 439.88,126.416 L443.336,121.68 Z M473.432,93.072 C472.109327,93.072 471.021338,92.6880038 470.168,91.92 C469.314662,91.1519962 468.888,90.1493395 468.888,88.912 C468.888,87.6746605 469.314662,86.6613373 470.168,85.872 C471.021338,85.0826627 472.109327,84.688 473.432,84.688 C474.754673,84.688 475.842662,85.0826627 476.696,85.872 C477.549338,86.6613373 477.976,87.6746605 477.976,88.912 C477.976,90.1493395 477.549338,91.1519962 476.696,91.92 C475.842662,92.6880038 474.754673,93.072 473.432,93.072 Z M469.72,98.576 L477.08,98.576 L477.08,130 L469.72,130 L469.72,98.576 Z M486.696,104.4 L482.216,104.4 L482.216,98.896 L487.08,98.576 L487.976,90 L494.12,90 L494.12,98.576 L502.12,98.576 L502.12,104.4 L494.12,104.4 L494.12,119.376 C494.12,123.045352 495.591985,124.88 498.536,124.88 C499.090669,124.88 499.655997,124.816001 500.232,124.688 C500.808003,124.559999 501.330664,124.389334 501.8,124.176 L503.08,129.616 C502.226662,129.914668 501.256005,130.181332 500.168,130.416 C499.079995,130.650668 497.91734,130.768 496.68,130.768 C494.845324,130.768 493.298673,130.490669 492.04,129.936 C490.781327,129.381331 489.757337,128.602672 488.968,127.6 C488.178663,126.597328 487.602668,125.402674 487.24,124.016 C486.877332,122.629326 486.696,121.082675 486.696,119.376 L486.696,104.4 Z M507.192,136.528 C507.490668,136.613334 507.842665,136.709333 508.248,136.816 C508.653335,136.922667 509.047998,136.976 509.432,136.976 C511.096008,136.976 512.429328,136.474672 513.432,135.472 C514.434672,134.469328 515.191997,133.178675 515.704,131.6 L516.28,129.616 L503.928,98.576 L511.416,98.576 L516.856,114 C517.325336,115.36534 517.783998,116.805326 518.232,118.32 C518.680002,119.834674 519.138664,121.338659 519.608,122.832 L519.864,122.832 C520.248002,121.381326 520.642665,119.898674 521.048,118.384 C521.453335,116.869326 521.847998,115.408007 522.232,114 L526.968,98.576 L534.072,98.576 L522.68,131.408 C522.039997,133.200009 521.336004,134.799993 520.568,136.208 C519.799996,137.616007 518.914672,138.821328 517.912,139.824 C516.909328,140.826672 515.75734,141.594664 514.456,142.128 C513.15466,142.661336 511.650675,142.928 509.944,142.928 C509.090662,142.928 508.344003,142.874667 507.704,142.768 C507.063997,142.661333 506.445336,142.501334 505.848,142.288 L507.192,136.528 Z M307.832,170.544 C307.832,172.506676 308.51466,174.085327 309.88,175.28 C311.24534,176.474673 312.973323,177.072 315.064,177.072 C316.216006,177.072 317.357328,176.848002 318.488,176.4 C319.618672,175.951998 320.717328,175.344004 321.784,174.576 C319.906657,172.997325 318.125342,171.322676 316.44,169.552 C314.754658,167.781324 313.22934,165.93601 311.864,164.016 C310.669327,164.997338 309.69867,166.010661 308.952,167.056 C308.20533,168.101339 307.832,169.263994 307.832,170.544 Z M312.248,149.744 C312.248,150.725338 312.397332,151.717328 312.696,152.72 C312.994668,153.722672 313.399997,154.778661 313.912,155.888 C315.661342,154.778661 317.133327,153.648006 318.328,152.496 C319.522673,151.343994 320.12,149.957341 320.12,148.336 C320.12,147.226661 319.864003,146.288004 319.352,145.52 C318.839997,144.751996 317.96534,144.368 316.728,144.368 C315.405327,144.368 314.328004,144.858662 313.496,145.84 C312.663996,146.821338 312.248,148.122659 312.248,149.744 Z M336.952,182.768 C335.330659,182.383998 333.666675,181.81867 331.96,181.072 C330.253325,180.32533 328.525342,179.397339 326.776,178.288 C325.111992,179.65334 323.234677,180.741329 321.144,181.552 C319.053323,182.362671 316.728013,182.768 314.168,182.768 C312.077323,182.768 310.210675,182.45867 308.568,181.84 C306.925325,181.22133 305.528006,180.389339 304.376,179.344 C303.223994,178.298661 302.33867,177.06134 301.72,175.632 C301.10133,174.20266 300.792,172.656008 300.792,170.992 C300.792,169.541326 301.005331,168.240006 301.432,167.088 C301.858669,165.935994 302.44533,164.880005 303.192,163.92 C303.93867,162.959995 304.791995,162.085337 305.752,161.296 C306.712005,160.506663 307.725328,159.749337 308.792,159.024 C307.938662,157.402659 307.277336,155.824008 306.808,154.288 C306.338664,152.751992 306.104,151.258674 306.104,149.808 C306.104,148.357326 306.349331,147.002673 306.84,145.744 C307.330669,144.485327 308.045329,143.386671 308.984,142.448 C309.922671,141.509329 311.031994,140.762669 312.312,140.208 C313.592006,139.653331 315.042659,139.376 316.664,139.376 C319.522681,139.376 321.773325,140.186659 323.416,141.808 C325.058675,143.429341 325.88,145.583987 325.88,148.272 C325.88,149.63734 325.624003,150.895994 325.112,152.048 C324.599997,153.200006 323.917338,154.255995 323.064,155.216 C322.210662,156.176005 321.240005,157.082662 320.152,157.936 C319.063995,158.789338 317.944006,159.621329 316.792,160.432 C318.072006,162.181342 319.533325,163.877325 321.176,165.52 C322.818675,167.162675 324.535991,168.66666 326.328,170.032 C327.480006,168.495992 328.503996,166.800009 329.4,164.944 C330.296004,163.087991 331.042664,161.072011 331.64,158.896 L338.424,158.896 C337.655996,161.541347 336.674673,164.079988 335.48,166.512 C334.285327,168.944012 332.877341,171.247989 331.256,173.424 C332.62134,174.277338 333.943994,174.991997 335.224,175.568 C336.504006,176.144003 337.698661,176.538666 338.808,176.752 L336.952,182.768 Z" id="Drupal-Diversity-&amp;" fill="#000000"></path>
            <path d="M304.312,194.144 L311.736,194.144 L311.736,236 L304.312,236 L304.312,194.144 Z M319.96,204.576 L326.04,204.576 L326.552,208.8 L326.808,208.8 C328.216007,207.43466 329.741325,206.261338 331.384,205.28 C333.026675,204.298662 334.935989,203.808 337.112,203.808 C340.482684,203.808 342.935992,204.885323 344.472,207.04 C346.008008,209.194677 346.776,212.277313 346.776,216.288 L346.776,236 L339.416,236 L339.416,217.248 C339.416,214.64532 339.032004,212.810672 338.264,211.744 C337.495996,210.677328 336.237342,210.144 334.488,210.144 C333.12266,210.144 331.917339,210.474663 330.872,211.136 C329.826661,211.797337 328.642673,212.767994 327.32,214.048 L327.32,236 L319.96,236 L319.96,204.576 Z M351.992,220.32 C351.992,217.71732 352.418662,215.39201 353.272,213.344 C354.125338,211.29599 355.277326,209.568007 356.728,208.16 C358.178674,206.751993 359.853324,205.67467 361.752,204.928 C363.650676,204.18133 365.645323,203.808 367.736,203.808 C369.78401,203.808 371.565326,204.159996 373.08,204.864 C374.594674,205.568004 375.885328,206.431995 376.952,207.456 L373.432,212.128 C372.578662,211.402663 371.725338,210.837335 370.872,210.432 C370.018662,210.026665 369.101338,209.824 368.12,209.824 C365.559987,209.824 363.490675,210.773324 361.912,212.672 C360.333325,214.570676 359.544,217.119984 359.544,220.32 C359.544,223.477349 360.322659,226.005324 361.88,227.904 C363.437341,229.802676 365.453321,230.752 367.928,230.752 C369.208006,230.752 370.391995,230.485336 371.48,229.952 C372.568005,229.418664 373.538662,228.789337 374.392,228.064 L377.464,232.736 C375.970659,234.058673 374.328009,235.06133 372.536,235.744 C370.743991,236.42667 368.952009,236.768 367.16,236.768 C365.026656,236.768 363.032009,236.405337 361.176,235.68 C359.319991,234.954663 357.70934,233.888007 356.344,232.48 C354.97866,231.071993 353.912004,229.34401 353.144,227.296 C352.375996,225.24799 351.992,222.92268 351.992,220.32 Z M381.848,190.816 L389.208,190.816 L389.208,228.32 C389.208,229.216004 389.378665,229.845332 389.72,230.208 C390.061335,230.570668 390.423998,230.752 390.808,230.752 L391.288,230.752 C391.437334,230.752 391.661332,230.709334 391.96,230.624 L392.92,236.128 C391.938662,236.554669 390.637341,236.768 389.016,236.768 C386.370653,236.768 384.514672,235.978675 383.448,234.4 C382.381328,232.821325 381.848,230.66668 381.848,227.936 L381.848,190.816 Z M397.112,204.576 L404.472,204.576 L404.472,223.328 C404.472,225.93068 404.855996,227.765328 405.624,228.832 C406.392004,229.898672 407.629325,230.432 409.336,230.432 C410.70134,230.432 411.906661,230.09067 412.952,229.408 C413.997339,228.72533 415.117327,227.616008 416.312,226.08 L416.312,204.576 L423.672,204.576 L423.672,236 L417.656,236 L417.08,231.392 L416.888,231.392 C415.52266,233.013341 414.040008,234.314662 412.44,235.296 C410.839992,236.277338 408.952011,236.768 406.776,236.768 C403.405316,236.768 400.952008,235.690677 399.416,233.536 C397.879992,231.381323 397.112,228.298687 397.112,224.288 L397.112,204.576 Z M431.576,227.68 C432.984007,228.789339 434.381326,229.65333 435.768,230.272 C437.154674,230.89067 438.658659,231.2 440.28,231.2 C441.986675,231.2 443.245329,230.848004 444.056,230.144 C444.866671,229.439996 445.272,228.533339 445.272,227.424 C445.272,226.783997 445.080002,226.218669 444.696,225.728 C444.311998,225.237331 443.800003,224.800002 443.16,224.416 C442.519997,224.031998 441.794671,223.680002 440.984,223.36 C440.173329,223.039998 439.362671,222.709335 438.552,222.368 C437.527995,221.983998 436.482672,221.536003 435.416,221.024 C434.349328,220.511997 433.400004,219.893337 432.568,219.168 C431.735996,218.442663 431.053336,217.600005 430.52,216.64 C429.986664,215.679995 429.72,214.538673 429.72,213.216 C429.72,210.442653 430.74399,208.181342 432.792,206.432 C434.84001,204.682658 437.634649,203.808 441.176,203.808 C443.352011,203.808 445.314658,204.191996 447.064,204.96 C448.813342,205.728004 450.327994,206.602662 451.608,207.584 L448.216,212.064 C447.106661,211.253329 445.986672,210.602669 444.856,210.112 C443.725328,209.621331 442.54134,209.376 441.304,209.376 C439.725325,209.376 438.56267,209.706663 437.816,210.368 C437.06933,211.029337 436.696,211.850662 436.696,212.832 C436.696,213.472003 436.877332,214.015998 437.24,214.464 C437.602668,214.912002 438.082664,215.306665 438.68,215.648 C439.277336,215.989335 439.970663,216.309332 440.76,216.608 C441.549337,216.906668 442.370662,217.205332 443.224,217.504 C444.290672,217.888002 445.357328,218.325331 446.424,218.816 C447.490672,219.306669 448.461329,219.914663 449.336,220.64 C450.210671,221.365337 450.914664,222.250661 451.448,223.296 C451.981336,224.341339 452.248,225.589326 452.248,227.04 C452.248,228.40534 451.981336,229.674661 451.448,230.848 C450.914664,232.021339 450.136005,233.045329 449.112,233.92 C448.087995,234.794671 446.808008,235.487997 445.272,236 C443.735992,236.512003 441.986676,236.768 440.024,236.768 C437.847989,236.768 435.704011,236.352004 433.592,235.52 C431.479989,234.687996 429.656008,233.65334 428.12,232.416 L431.576,227.68 Z M460.792,199.072 C459.469327,199.072 458.381338,198.688004 457.528,197.92 C456.674662,197.151996 456.248,196.14934 456.248,194.912 C456.248,193.67466 456.674662,192.661337 457.528,191.872 C458.381338,191.082663 459.469327,190.688 460.792,190.688 C462.114673,190.688 463.202662,191.082663 464.056,191.872 C464.909338,192.661337 465.336,193.67466 465.336,194.912 C465.336,196.14934 464.909338,197.151996 464.056,197.92 C463.202662,198.688004 462.114673,199.072 460.792,199.072 Z M457.08,204.576 L464.44,204.576 L464.44,236 L457.08,236 L457.08,204.576 Z M470.04,220.32 C470.04,217.71732 470.445329,215.39201 471.256,213.344 C472.066671,211.29599 473.165326,209.568007 474.552,208.16 C475.938674,206.751993 477.527991,205.67467 479.32,204.928 C481.112009,204.18133 482.989324,203.808 484.952,203.808 C486.914676,203.808 488.802658,204.18133 490.616,204.928 C492.429342,205.67467 494.01866,206.751993 495.384,208.16 C496.74934,209.568007 497.847996,211.29599 498.68,213.344 C499.512004,215.39201 499.928,217.71732 499.928,220.32 C499.928,222.92268 499.512004,225.24799 498.68,227.296 C497.847996,229.34401 496.74934,231.071993 495.384,232.48 C494.01866,233.888007 492.429342,234.954663 490.616,235.68 C488.802658,236.405337 486.914676,236.768 484.952,236.768 C482.989324,236.768 481.112009,236.405337 479.32,235.68 C477.527991,234.954663 475.938674,233.888007 474.552,232.48 C473.165326,231.071993 472.066671,229.34401 471.256,227.296 C470.445329,225.24799 470.04,222.92268 470.04,220.32 Z M477.592,220.32 C477.592,223.477349 478.24266,226.005324 479.544,227.904 C480.84534,229.802676 482.647988,230.752 484.952,230.752 C487.256012,230.752 489.069327,229.802676 490.392,227.904 C491.714673,226.005324 492.376,223.477349 492.376,220.32 C492.376,217.119984 491.714673,214.570676 490.392,212.672 C489.069327,210.773324 487.256012,209.824 484.952,209.824 C482.647988,209.824 480.84534,210.773324 479.544,212.672 C478.24266,214.570676 477.592,217.119984 477.592,220.32 Z M505.464,204.576 L511.544,204.576 L512.056,208.8 L512.312,208.8 C513.720007,207.43466 515.245325,206.261338 516.888,205.28 C518.530675,204.298662 520.439989,203.808 522.616,203.808 C525.986684,203.808 528.439992,204.885323 529.976,207.04 C531.512008,209.194677 532.28,212.277313 532.28,216.288 L532.28,236 L524.92,236 L524.92,217.248 C524.92,214.64532 524.536004,212.810672 523.768,211.744 C522.999996,210.677328 521.741342,210.144 519.992,210.144 C518.62666,210.144 517.421339,210.474663 516.376,211.136 C515.330661,211.797337 514.146673,212.767994 512.824,214.048 L512.824,236 L505.464,236 L505.464,204.576 Z" id="Inclusion" fill="#000000"></path>
        </g>
    </g>
</svg>