<?xml version="1.0" encoding="UTF-8" standalone="no"?>
<svg width="286px" height="281px" viewBox="0 0 286 281" version="1.1" xmlns="http://www.w3.org/2000/svg" xmlns:xlink="http://www.w3.org/1999/xlink">
    <!-- Generator: Sketch 43.2 (39069) - http://www.bohemiancoding.com/sketch -->
    <title>Sticker</title>
    <desc>Created with Sketch.</desc>
    <defs></defs>
    <g id="Symbols" stroke="none" stroke-width="1" fill="none" fill-rule="evenodd">
        <g id="Sticker" transform="translate(-12.000000, -13.000000)">
            <g id="Logo" transform="translate(31.000000, 32.000000)">
                <path d="M163.587082,185.263753 C181.94704,168.194323 211.538664,145.355263 230.656054,120.565275 C255.607258,88.2104352 251.506486,38.8379739 222.786946,15.1508649 C204.590657,0.143052417 185.427785,0.100408736 171.540207,1.66316658 C149.34464,4.16081558 128.526162,20.9517747 124.008373,34.488959 C119.573089,20.9314305 98.6977888,4.04947875 76.4373363,1.54452822 C62.549758,-0.018229619 43.3868868,0.0244140625 25.1905978,15.0322266 C-3.52894295,38.7193356 -7.62971472,88.0917969 17.3214896,120.446636 C36.4388793,145.236625 66.0305035,168.075685 84.3904613,185.145114 C106.728408,205.912918 124.026493,230.73438 124.026493,230.73438 C124.026493,230.73438 141.249135,206.031557 163.587082,185.263753 Z" id="Outer-heart" stroke="#FFFFFF" stroke-width="38" fill="#FFFFFF"></path>
                <path d="M163.587082,185.263753 C181.94704,168.194323 211.538664,145.355263 230.656054,120.565275 C255.607258,88.2104352 251.506486,38.8379739 222.786946,15.1508649 C204.590657,0.143052417 185.427785,0.100408736 171.540207,1.66316658 C149.34464,4.16081558 128.526162,20.9517747 124.008373,34.488959 C119.573089,20.9314305 98.6977888,4.04947875 76.4373363,1.54452822 C62.549758,-0.018229619 43.3868868,0.0244140625 25.1905978,15.0322266 C-3.52894295,38.7193356 -7.62971472,88.0917969 17.3214896,120.446636 C36.4388793,145.236625 66.0305035,168.075685 84.3904613,185.145114 C106.728408,205.912918 124.026493,230.73438 124.026493,230.73438 C124.026493,230.73438 141.249135,206.031557 163.587082,185.263753 Z" id="Inner-heart" fill="#39B5F2"></path>
                <path d="M92.0720669,96.2870016 C79.0654293,112.219848 80.0445956,135.62529 95.0090806,150.433431 C103.015106,158.355812 113.507733,162.316522 124.000846,162.316522 C134.493715,162.316522 144.986343,158.355812 152.992125,150.433431 C167.95661,135.62529 168.933594,112.219848 155.926956,96.2870016 C143.635835,80.8142613 131.330404,73.7276091 124.000846,54.6042567 C116.671287,73.7276091 104.36343,80.8140213 92.0720669,96.2870016 Z" id="Drop" fill="#FFFFFF"></path>
            </g>
            <path d="M155.742188,57.9335937 C155.742188,57.9335937 168.410374,28.3398438 218.941406,28.3398438 C251.447266,28.3398438 274.289063,63.2109375 274.289062,65.2949219" id="Text-curve-path"></path>
            <path d="M175.764209,36.0658508 C175.379716,35.3643016 175.14734,34.6614997 175.067075,33.9574241 C174.986809,33.2533484 175.036868,32.5873295 175.217253,31.9593474 C175.397638,31.3313652 175.692103,30.7617424 176.100657,30.250462 C176.509211,29.7391816 177.008132,29.3220605 177.597433,28.9990862 C178.130611,28.7068713 178.655549,28.5286433 179.172265,28.4643967 C179.688981,28.4001501 180.180038,28.4389083 180.645451,28.5806726 C181.110864,28.7224369 181.541512,28.9630713 181.937409,29.3025829 C182.333307,29.6420945 182.673513,30.0714171 182.958038,30.5905635 C183.211803,31.053586 183.368952,31.4942897 183.42949,31.9126878 C183.490027,32.331086 183.482974,32.7135403 183.40833,33.0600623 C183.333686,33.4065844 183.204523,33.7077201 183.020837,33.9634786 C182.837151,34.2192371 182.626047,34.4124773 182.387521,34.543205 C182.099886,34.7008472 181.819574,34.7678104 181.546579,34.7440966 C181.273584,34.7203828 181.046497,34.5848459 180.865312,34.3374819 L180.844266,34.3490166 C180.780382,34.6485892 180.673681,34.9282913 180.524162,35.1881312 C180.374642,35.4479712 180.18413,35.6413296 179.952618,35.7682124 C179.594828,35.964304 179.225713,36.0023954 178.845261,35.8824878 C178.464809,35.7625803 178.141937,35.4605965 177.876637,34.9765275 C177.72284,34.6959078 177.613515,34.3840779 177.548659,34.0410284 C177.483804,33.6979788 177.474667,33.360888 177.521249,33.0297457 C177.567831,32.6986034 177.675274,32.3911266 177.84358,32.1073062 C178.011887,31.8234857 178.250377,31.5969904 178.559059,31.4278134 C178.741462,31.3278451 178.924924,31.2797515 179.10945,31.283531 C179.293977,31.2873105 179.483407,31.3499785 179.677748,31.4715367 L179.698794,31.460002 L179.583854,30.9756335 L180.162629,30.6584281 L180.905699,32.9879928 C181.145091,33.9241534 181.559432,34.2307419 182.148733,33.9077676 C182.317105,33.8154892 182.456807,33.6750657 182.567842,33.4864929 C182.678877,33.2979201 182.751849,33.0731937 182.78676,32.812307 C182.821672,32.5514202 182.807205,32.2628634 182.743361,31.9466277 C182.679518,31.6303921 182.553397,31.3003996 182.364995,30.9566405 C182.134299,30.5357109 181.858563,30.1782458 181.537777,29.8842342 C181.216992,29.5902227 180.862703,29.3807197 180.474898,29.2557192 C180.087093,29.1307186 179.670422,29.0945244 179.224873,29.1471355 C178.779324,29.1997467 178.31803,29.3567776 177.840976,29.618233 C177.370938,29.8758435 176.967805,30.2222219 176.631565,30.6573787 C176.295324,31.0925355 176.051451,31.5796947 175.899939,32.118871 C175.748426,32.6580473 175.705687,33.2333896 175.771721,33.8449151 C175.837754,34.4564405 176.039944,35.0708757 176.378298,35.6882391 C176.658978,36.20037 176.987818,36.6131154 177.364828,36.9264874 C177.741838,37.2398595 178.145623,37.4564458 178.576195,37.5762527 C179.006767,37.6960596 179.452629,37.7230971 179.913794,37.6573658 C180.37496,37.5916346 180.830031,37.4357335 181.279023,37.1896578 C181.601736,37.0127909 181.882875,36.8016927 182.122448,36.5563568 C182.362022,36.311021 182.562619,36.0528381 182.724247,35.7818006 L183.238359,36.1705545 C182.838133,36.8551639 182.269716,37.3993194 181.533089,37.8030373 C181.013943,38.0875623 180.485665,38.2721817 179.94824,38.356901 C179.410815,38.4416204 178.88802,38.4156951 178.37984,38.2791245 C177.87166,38.1425539 177.392308,37.8921212 176.941772,37.5278188 C176.491235,37.1635165 176.098718,36.6761987 175.764209,36.0658508 Z M178.545916,34.5432652 C178.730473,34.8800088 178.933275,35.0835909 179.154329,35.1540176 C179.375382,35.2244443 179.591138,35.201984 179.801603,35.0866361 C179.948928,35.0058925 180.074599,34.8731587 180.178618,34.6884309 C180.282638,34.503703 180.366251,34.2526186 180.429461,33.9351701 L179.817622,32.0947297 C179.630971,31.9872025 179.466769,31.9289531 179.32501,31.9199799 C179.183251,31.9110067 179.042218,31.9449689 178.901908,32.0218676 C178.691443,32.1372156 178.534541,32.2961891 178.431196,32.4987929 C178.327851,32.7013966 178.266363,32.9221096 178.24673,33.1609383 C178.227098,33.399767 178.24514,33.6407511 178.300856,33.8838978 C178.356572,34.1270445 178.438258,34.3468314 178.545916,34.5432652 Z M185.028808,30.9278512 C184.838211,30.4112185 184.742809,29.9166764 184.7426,29.4442101 C184.742392,28.9717438 184.815952,28.5441932 184.963285,28.1615456 C185.110618,27.7788979 185.32158,27.4473918 185.596178,27.1670172 C185.870776,26.8866427 186.191956,26.6786187 186.559729,26.542939 C186.927501,26.4072593 187.271336,26.3550216 187.591244,26.3862244 C187.911153,26.4174272 188.253201,26.4951742 188.617401,26.6194679 L188.162671,25.5486735 L187.256529,23.0924913 L188.346706,22.6903 L191.79683,32.0421808 L190.903672,32.3716869 L190.535526,31.6569308 L190.496122,31.6714678 C190.332637,32.0103331 190.119826,32.3300861 189.857682,32.6307367 C189.595539,32.9313872 189.276207,33.1511643 188.899678,33.2900744 C188.094082,33.5872775 187.346075,33.5349461 186.655635,33.1330785 C185.965196,32.7312109 185.422926,31.9961425 185.028808,30.9278512 Z M186.140409,30.5028338 C186.42469,31.2734046 186.79921,31.8166826 187.26398,32.132684 C187.72875,32.4486855 188.241335,32.5033104 188.80175,32.2965604 C189.099471,32.1867245 189.353023,32.0111111 189.562415,31.769715 C189.771807,31.5283189 189.95293,31.2103083 190.105788,30.8156737 L188.874986,27.4794691 C188.513082,27.334432 188.188779,27.257599 187.902069,27.2489677 C187.615359,27.2403365 187.340661,27.2844772 187.077966,27.3813913 C186.824028,27.4750749 186.607223,27.6222092 186.427543,27.8227988 C186.247864,28.0233883 186.114413,28.2616359 186.027187,28.5375487 C185.93996,28.8134615 185.903104,29.1180412 185.916619,29.4512969 C185.930134,29.7845526 186.00473,30.1350614 186.140409,30.5028338 Z M192.295861,25.1695966 L193.216999,24.9291597 L193.622975,26.096469 L193.663614,26.0858614 C193.780951,25.6115136 193.968091,25.2105888 194.225039,24.8830752 C194.481987,24.5555616 194.800103,24.3423061 195.179397,24.2433022 C195.44129,24.1749423 195.687874,24.1588084 195.919155,24.1949 L195.956997,25.2267954 C195.839198,25.218959 195.732789,25.2177962 195.637767,25.2233069 C195.542744,25.2288177 195.427504,25.249252 195.292041,25.2846106 C195.012087,25.3576849 194.750313,25.546588 194.506711,25.8513255 C194.26311,26.156063 194.101502,26.6178452 194.02188,27.236686 L195.125061,31.4630811 L194.014278,31.7530197 L192.295861,25.1695966 Z M197.235065,24.0889474 L198.373869,23.8579299 L199.200522,27.9329279 C199.328556,28.5640756 199.519199,28.9991882 199.772456,29.238279 C200.025713,29.4773698 200.371866,29.5523803 200.810925,29.4633129 C201.158513,29.3928012 201.446844,29.2414579 201.675925,29.0092785 C201.905007,28.7770992 202.139723,28.4318802 202.38008,27.9736113 L201.419827,23.2400277 L202.544911,23.0117936 L203.897615,29.6799722 L202.964619,29.8692395 L202.657041,28.8459625 L202.61588,28.8543125 C202.379102,29.2832846 202.111477,29.6423221 201.812996,29.9314356 C201.514514,30.2205492 201.132029,30.4124201 200.665529,30.5070542 C199.952058,30.6517888 199.388436,30.5375646 198.974648,30.1643781 C198.56086,29.7911917 198.266758,29.1746956 198.092334,28.3148713 L197.235065,24.0889474 Z M207.339657,30.0568496 L207.618372,32.33587 L206.478862,32.4752276 L205.30452,22.8727697 L206.249479,22.757205 L206.441925,23.5235107 L206.483615,23.5184122 C206.757615,23.2216214 207.066251,22.9582098 207.409533,22.7281694 C207.752816,22.498129 208.123635,22.3587515 208.522002,22.3100328 C208.957427,22.2567821 209.351806,22.2908254 209.70515,22.4121639 C210.058494,22.5335024 210.364745,22.7311185 210.623912,23.0050183 C210.883079,23.278918 211.096337,23.6195457 211.263693,24.0269115 C211.431048,24.4342773 211.547015,24.9019874 211.611595,25.4300557 C211.681841,26.0044458 211.665692,26.5259242 211.563148,26.9945064 C211.460604,27.4630886 211.294263,27.871296 211.064118,28.219141 C210.833973,28.5669859 210.552796,28.8434943 210.220578,29.0486743 C209.88836,29.2538543 209.527705,29.3802353 209.138602,29.427821 C208.823614,29.4663428 208.502449,29.4350991 208.175098,29.3340891 C207.847747,29.233079 207.511854,29.0814005 207.167408,28.879049 L207.339657,30.0568496 Z M207.086434,27.9862762 C207.423882,28.2082894 207.742713,28.3550025 208.042937,28.4264198 C208.343162,28.4978371 208.604442,28.5199495 208.826787,28.4927576 C209.104718,28.4587678 209.354152,28.3647942 209.575098,28.2108341 C209.796044,28.0568739 209.97833,27.8559283 210.121962,27.6079911 C210.265594,27.360054 210.365653,27.0633833 210.422141,26.71797 C210.478629,26.3725567 210.48138,25.9914077 210.430396,25.5745117 C210.385076,25.2039374 210.311298,24.8697589 210.209058,24.5719661 C210.106819,24.2741732 209.97059,24.0252051 209.800367,23.8250541 C209.630144,23.6249031 209.424183,23.4784907 209.182477,23.3858124 C208.940772,23.2931341 208.662429,23.2660563 208.347441,23.3045781 C208.060246,23.3397009 207.780369,23.4538522 207.507803,23.6470356 C207.235236,23.840219 206.950327,24.1054303 206.653066,24.4426775 L207.086434,27.9862762 Z M213.162291,27.3138548 C213.122717,26.5682339 213.425613,25.9796921 214.070988,25.5482117 C214.716363,25.1167314 215.761811,24.7831894 217.207362,24.5475758 C217.195985,24.3332097 217.163885,24.12462 217.111061,23.9218003 C217.058237,23.7189806 216.97403,23.5411955 216.858437,23.3884398 C216.742845,23.2356841 216.593911,23.1150761 216.411632,23.0266122 C216.229353,22.9381482 215.998413,22.9013369 215.718805,22.9161772 C215.318034,22.9374482 214.951516,23.0316721 214.619242,23.1988519 C214.286967,23.3660317 213.990637,23.5499943 213.730243,23.7507451 L213.226598,22.9783529 C213.532604,22.7564882 213.908877,22.537907 214.355429,22.3226026 C214.801981,22.1072982 215.300197,21.9850549 215.850093,21.9558691 C216.679596,21.9118431 217.294224,22.1339104 217.693994,22.6220777 C218.093764,23.110245 218.316154,23.7783905 218.361169,24.6265344 L218.582287,28.7926705 L217.631625,28.8431271 L217.490727,28.0374624 L217.462766,28.0389464 C217.150902,28.3265476 216.811311,28.5758943 216.443981,28.786994 C216.076651,28.9980937 215.683286,29.1147719 215.263874,29.1370323 C214.686018,29.1677021 214.199458,29.0252915 213.804179,28.7097964 C213.4089,28.3943013 213.19494,27.9289921 213.162291,27.3138548 Z M214.290245,27.1698703 C214.311022,27.5613213 214.440033,27.8348652 214.677284,27.9905104 C214.914534,28.1461556 215.20092,28.2150731 215.536449,28.1972648 C215.862659,28.1799512 216.168472,28.0866125 216.453898,27.9172459 C216.739324,27.7478794 217.037222,27.5054187 217.347602,27.1898568 L217.247431,25.3025132 C216.682852,25.4072504 216.207565,25.5212669 215.821556,25.6445661 C215.435546,25.7678653 215.127423,25.9057219 214.897176,26.05814 C214.66693,26.2105582 214.50537,26.3803579 214.412494,26.5675445 C214.319617,26.754731 214.278868,26.9555042 214.290245,27.1698703 Z M220.784737,19 L221.932647,19.0143992 L221.823775,27.6937164 C221.821434,27.8803693 221.852458,28.0114341 221.91685,28.0869148 C221.981242,28.1623954 222.055434,28.200662 222.139428,28.2017156 L222.24442,28.2030326 C222.277084,28.2034423 222.326197,28.1947244 222.391759,28.1768786 L222.53486,29.0467419 C222.459731,29.0831359 222.370721,29.1100213 222.267827,29.1273989 C222.164934,29.1447764 222.034162,29.15247 221.875507,29.1504799 C221.436873,29.1449777 221.125873,29.0104009 220.942498,28.7467455 C220.759123,28.4830901 220.670597,28.0992867 220.676919,27.5953238 L220.784737,19 Z M223.879428,25.527263 C223.975977,24.9851237 224.143516,24.5101459 224.382051,24.1023154 C224.620585,23.6944849 224.900087,23.3626876 225.220565,23.1069136 C225.541042,22.8511397 225.890591,22.6716484 226.269221,22.5684343 C226.647851,22.4652203 227.030125,22.4479786 227.416055,22.5167087 C227.801985,22.5854388 228.125098,22.7140826 228.385404,22.902644 C228.645711,23.0912054 228.901607,23.3311198 229.153102,23.6223944 L229.301704,22.4685758 L229.76072,19.8911298 L230.904721,20.0948645 L229.157021,29.9084556 L228.219768,29.7415404 L228.2632,28.9387194 L228.221851,28.9313555 C227.909555,29.1411854 227.564349,29.3096 227.186223,29.4366043 C226.808096,29.5636085 226.421479,29.591927 226.02636,29.5215604 C225.180991,29.3710088 224.561922,28.9479161 224.169137,28.2522697 C223.776352,27.5566233 223.679783,26.6482968 223.879428,25.527263 Z M225.172477,25.7439528 C225.028471,26.5525674 225.077179,27.210628 225.318602,27.7181543 C225.560025,28.2256807 225.974772,28.5318051 226.562855,28.6365367 C226.875274,28.6921753 227.182812,28.6687339 227.485477,28.5662116 C227.788142,28.4636893 228.105121,28.2807677 228.436424,28.0174414 L229.059901,24.5165255 C228.820868,24.2085097 228.579825,23.9783505 228.336763,23.8260409 C228.093701,23.6737314 227.834342,23.5730317 227.558678,23.5239388 C227.292203,23.4764823 227.030766,23.4939137 226.774359,23.5762335 C226.517953,23.6585534 226.282414,23.7967279 226.067734,23.9907614 C225.853054,24.1847948 225.667359,24.4290171 225.510644,24.7234357 C225.353928,25.0178542 225.241207,25.3580232 225.172477,25.7439528 Z M234.257537,22.9033482 C234.041449,22.8443353 233.877569,22.7270174 233.765892,22.5513911 C233.654214,22.3757648 233.626653,22.1844124 233.683207,21.9773281 C233.74222,21.7612402 233.863832,21.6082077 234.048046,21.518226 C234.23226,21.4282443 234.432408,21.4127602 234.648496,21.4717731 C234.864584,21.5307861 235.029079,21.6458531 235.141985,21.8169776 C235.254892,21.988102 235.281839,22.1817053 235.222826,22.3977932 C235.166272,22.6048774 235.045275,22.7556591 234.859831,22.8501426 C234.674388,22.9446261 234.473625,22.9623612 234.257537,22.9033482 Z M233.414986,24.1239093 L234.522431,24.4263491 L232.729922,30.9899859 L231.622477,30.687546 L233.414986,24.1239093 Z M236.319394,24.7461724 L237.42272,25.1920106 L237.169246,29.2571294 C237.138551,29.6071229 237.11002,29.9579854 237.083651,30.3097274 C237.057283,30.6614694 237.0305,31.0080051 237.003302,31.3493451 L237.055223,31.3703258 C237.2728,31.1059151 237.492122,30.8371817 237.713196,30.5641174 L238.376414,29.7449288 L241.018265,26.6449185 L242.06967,27.069776 L237.287912,32.4760382 L236.041802,31.9725034 L236.319394,24.7461724 Z M241.7768,30.7787806 C242.027084,30.2778205 242.328524,29.8676353 242.681128,29.5482128 C243.033732,29.2287903 243.406184,28.9949324 243.798495,28.846632 C244.190806,28.6983316 244.586268,28.6324681 244.984891,28.6490393 C245.383515,28.6656105 245.758157,28.7614941 246.108829,28.9366929 C246.492898,29.1285774 246.803933,29.3674387 247.041941,29.6532842 C247.279949,29.9391297 247.438659,30.2583873 247.518076,30.6110667 C247.597493,30.963746 247.603872,31.3425302 247.537215,31.7474305 C247.470558,32.1523308 247.328775,32.5718573 247.111862,33.0060228 C246.999234,33.2314548 246.892855,33.4130551 246.792722,33.5508289 L242.684869,31.4985102 C242.397075,32.1789647 242.338835,32.8019453 242.510147,33.3674706 C242.681458,33.932996 243.059335,34.3617512 243.643789,34.6537493 C243.936016,34.7997483 244.227177,34.8904406 244.517282,34.9258288 C244.807387,34.9612171 245.100608,34.9642558 245.396954,34.9349449 L245.422267,35.7926927 C245.07166,35.8261946 244.702265,35.8242233 244.31407,35.7867787 C243.925875,35.7493341 243.52305,35.6263287 243.105583,35.4177586 C242.696465,35.21336 242.350988,34.9494657 242.069141,34.6260679 C241.787294,34.30267 241.582656,33.9396002 241.455223,33.5368477 C241.327789,33.1340952 241.286957,32.6989735 241.332725,32.2314695 C241.378493,31.7639656 241.526516,31.2797408 241.7768,30.7787806 Z M246.223226,32.4302886 C246.536081,31.8040884 246.64339,31.2603976 246.545156,30.7991997 C246.446922,30.3380018 246.159854,29.9885232 245.683942,29.7507534 C245.466859,29.642297 245.238316,29.5828898 244.998307,29.5725299 C244.758298,29.56217 244.518307,29.5987672 244.278328,29.6823227 C244.038348,29.7658781 243.806736,29.9005606 243.583484,30.0863741 C243.360233,30.2721877 243.15474,30.5112108 242.967001,30.8034506 L246.223226,32.4302886 Z M250.332715,31.6201909 L251.142371,32.1209513 L250.577675,33.2202904 L250.613395,33.2423828 C251.037676,32.9999779 251.456984,32.8587593 251.871332,32.8187226 C252.28568,32.7786859 252.659544,32.8617646 252.992933,33.0679611 C253.223131,33.2103349 253.404965,33.377667 253.538441,33.5699626 L252.817717,34.3094196 C252.7421,34.2187549 252.669513,34.1409387 252.599954,34.0759686 C252.530394,34.0109985 252.436082,33.9416937 252.317014,33.8680521 C252.070941,33.7158594 251.753582,33.6567539 251.364929,33.6907338 C250.976275,33.7247137 250.530539,33.9264058 250.027707,34.2958161 L247.730101,38.0107088 L246.753751,37.4068507 L250.332715,31.6201909 Z M251.362394,38.5987218 C251.464962,38.9696265 251.600295,39.3065692 251.768398,39.60956 C251.936501,39.9125508 252.187822,40.1831294 252.522369,40.4213038 C252.88733,40.6811304 253.220589,40.7923619 253.522156,40.7550017 C253.823724,40.7176415 254.061113,40.57731 254.23433,40.334003 C254.337179,40.1895395 254.388476,40.0370214 254.388226,39.876444 C254.387975,39.7158667 254.357343,39.5537117 254.296328,39.3899743 C254.235313,39.2262368 254.150426,39.0598267 254.041664,38.8907388 L253.715378,38.3834779 C253.566409,38.1743084 253.424208,37.955638 253.288771,37.7274601 C253.153334,37.4992822 253.052341,37.2669854 252.985788,37.0305626 C252.919234,36.7941398 252.89608,36.5571104 252.916324,36.3194671 C252.936568,36.0818239 253.03059,35.845154 253.198395,35.6094504 C253.355374,35.3889534 253.546596,35.21289 253.772067,35.0812549 C253.997538,34.9496198 254.242077,34.8716629 254.505691,34.8473817 C254.769304,34.8231005 255.047377,34.8549443 255.339917,34.9429139 C255.632458,35.0308835 255.926989,35.1804206 256.22352,35.3915297 C256.573273,35.6405302 256.851206,35.9300542 257.057326,36.2601103 C257.263446,36.5901664 257.4107,36.9184107 257.499093,37.2448531 L256.632084,37.5212488 C256.544848,37.2414589 256.431066,36.9828715 256.290732,36.7454789 C256.150398,36.5080864 255.958581,36.3027843 255.715274,36.1295665 C255.36552,35.880566 255.052075,35.777712 254.774929,35.8210016 C254.497783,35.8642911 254.28343,35.9923807 254.131865,36.2052743 C254.039843,36.3345311 253.994216,36.4710371 253.994983,36.6147964 C253.99575,36.7585557 254.027446,36.9071469 254.090072,37.0605745 C254.152698,37.2140021 254.237844,37.3720033 254.345511,37.5345829 C254.453178,37.6971626 254.565193,37.8657003 254.681559,38.0402012 C254.825115,38.256974 254.967864,38.4788985 255.109809,38.7059812 C255.251754,38.9330639 255.357902,39.1661665 255.428257,39.4052958 C255.498611,39.6444251 255.520154,39.8917642 255.492886,40.1473207 C255.465618,40.4028772 255.359964,40.6599084 255.17592,40.918422 C255.013528,41.1465223 254.818246,41.3282881 254.590068,41.4637249 C254.361891,41.5991617 254.108137,41.6820154 253.828801,41.7122885 C253.549465,41.7425616 253.25132,41.7107492 252.934358,41.6168503 C252.617396,41.5229514 252.295448,41.3596238 251.968504,41.1268624 C251.57313,40.8453836 251.248194,40.5052107 250.993684,40.1063336 C250.739175,39.7074565 250.557354,39.3030471 250.448216,38.8930933 L251.362394,38.5987218 Z M260.821162,37.4912794 C260.648748,37.3482758 260.547964,37.1737399 260.518807,36.9676663 C260.48965,36.7615928 260.543593,36.575944 260.680638,36.4107142 C260.823642,36.2383005 260.997607,36.1491692 261.202539,36.1433176 C261.407472,36.1374659 261.596142,36.2060409 261.768556,36.3490445 C261.940969,36.4920481 262.043243,36.6647881 262.075379,36.8672696 C262.107516,37.0697512 262.052083,37.257196 261.909079,37.4296097 C261.772034,37.5948394 261.599558,37.6821748 261.391647,37.6916184 C261.183735,37.701062 260.993575,37.634283 260.821162,37.4912794 Z M259.549708,38.2548353 L260.433324,38.987725 L256.089612,44.2247643 L255.205996,43.4918746 L259.549708,38.2548353 Z M261.822915,41.4196911 L261.073101,40.7460133 L261.653212,40.1003394 L262.491466,40.7593733 L263.86811,39.4366228 L264.586682,40.0822306 L263.31418,41.4985475 L264.678426,42.7242668 L264.051532,43.4220111 L262.687285,42.1962919 L260.160994,45.0080974 C259.880293,45.3205218 259.72081,45.6132402 259.68254,45.8862615 C259.64427,46.1592827 259.770931,46.4267829 260.062527,46.68877 C260.152783,46.7698612 260.262456,46.8433036 260.391548,46.9090994 C260.520641,46.9748952 260.642436,47.0278621 260.756938,47.0680017 L260.343453,47.8633818 C260.160933,47.7872254 259.970944,47.6949471 259.773481,47.5865443 C259.576019,47.4781415 259.397448,47.3522074 259.237765,47.2087383 C258.966997,46.9654645 258.777051,46.719524 258.667921,46.4709095 C258.558791,46.2222949 258.512446,45.9736306 258.528884,45.724909 C258.545322,45.4761875 258.622807,45.2258567 258.761341,44.9739092 C258.899875,44.7219618 259.08142,44.4710221 259.30598,44.2210825 L261.822915,41.4196911 Z M259.509605,49.8515759 L259.643578,50.0741163 C259.693197,50.1565391 259.747749,50.2274041 259.807234,50.2867133 C260.084832,50.5634898 260.408402,50.6917028 260.777956,50.6713564 C261.147509,50.65101 261.530124,50.5415499 261.925812,50.3429728 L262.390721,50.0947966 L265.271372,43.3390674 L266.114074,44.1792773 L264.436557,47.8247799 C264.298384,48.1087718 264.153637,48.4092681 264.002314,48.726278 C263.85099,49.0432879 263.699654,49.3503936 263.548301,49.6476044 L263.587958,49.6871437 C263.878129,49.5415205 264.174876,49.3826905 264.478207,49.210649 C264.781539,49.0386075 265.071686,48.8797872 265.348658,48.7341836 L268.870206,46.9272581 L269.663338,47.7180439 L262.649632,51.1239617 C262.326472,51.2762335 262.009878,51.4020949 261.699839,51.5015496 C261.3898,51.6010043 261.087945,51.6525983 260.794264,51.6563331 C260.500582,51.6600679 260.218379,51.6126387 259.947645,51.5140441 C259.676911,51.4154495 259.419273,51.2442413 259.174723,51.0004145 C259.062362,50.8883859 258.968154,50.7779821 258.892096,50.6691996 C258.816039,50.5604172 258.754829,50.4499644 258.708465,50.3378381 L259.509605,49.8515759 Z" id="Flattened-text" fill="#000000"></path>
        </g>
    </g>
</svg>