<?xml version="1.0" encoding="UTF-8" standalone="no"?>
<svg width="266px" height="248px" viewBox="0 0 266 248" version="1.1" xmlns="http://www.w3.org/2000/svg" xmlns:xlink="http://www.w3.org/1999/xlink">
    <!-- Generator: Sketch 42 (36781) - http://www.bohemiancoding.com/sketch -->
    <title>Logo - SVG</title>
    <desc>Created with Sketch.</desc>
    <defs></defs>
    <g id="Logo" stroke="none" stroke-width="1" fill="none" fill-rule="evenodd">
        <g transform="translate(0.142857, -0.071429)">
            <g>
                <path d="M175.460338,198.897881 C195.152874,180.57226 226.892277,156.052404 247.397219,129.438044 C274.159398,94.7021123 269.760989,41.6961798 238.956966,16.2658636 C219.439978,0.153580084 198.886254,0.107798123 183.990706,1.78556412 C160.184171,4.46702278 137.854674,22.4936802 133.008981,37.0271075 C128.251781,22.4718389 105.861338,4.34749234 81.9852075,1.6581948 C67.0896598,-0.0195711927 46.5359351,0.0262107684 27.0189476,16.1384943 C-3.7850759,41.5688105 -8.18348433,94.574743 18.5786945,129.310674 C39.0836367,155.925035 70.8230401,180.444891 90.5155755,198.770512 C114.474825,221.066683 133.028415,247.714833 133.028415,247.714833 C133.028415,247.714833 151.501089,221.194052 175.460338,198.897881 Z" id="Heart" fill="#39B5F2"></path>
                <path d="M98.754717,91.5635341 C84.8040492,108.668928 85.8542839,133.796848 101.904901,149.694766 C110.492009,158.200179 121.746198,162.45237 133.000907,162.45237 C144.255356,162.45237 155.509545,158.200179 164.096392,149.694766 C180.147009,133.796848 181.194903,108.668928 167.244235,91.5635341 C154.061017,74.9521074 140.862449,67.3439266 133.000907,46.813228 C125.139364,67.3439266 111.938195,74.9518497 98.754717,91.5635341 Z" id="Drop" fill="#FFFFFF"></path>
            </g>
        </g>
    </g>
</svg>