<?xml version="1.0" encoding="UTF-8" standalone="no"?>
<svg width="720px" height="300px" viewBox="0 0 720 300" version="1.1" xmlns="http://www.w3.org/2000/svg" xmlns:xlink="http://www.w3.org/1999/xlink" style="background: #FFFFFF;">
    <!-- Generator: Sketch 43.2 (39069) - http://www.bohemiancoding.com/sketch -->
    <title>banner</title>
    <desc>Created with Sketch.</desc>
    <defs></defs>
    <g id="Page-1" stroke="none" stroke-width="1" fill="none" fill-rule="evenodd">
        <g id="Artboard">
            <g id="Logo" transform="translate(88.000000, 40.000000)">
                <path d="M163.587082,185.263753 C181.94704,168.194323 211.538664,145.355263 230.656054,120.565275 C255.607258,88.2104352 251.506486,38.8379739 222.786946,15.1508649 C204.590657,0.143052417 185.427785,0.100408736 171.540207,1.66316658 C149.34464,4.16081558 128.526162,20.9517747 124.008373,34.488959 C119.573089,20.9314305 98.6977888,4.04947875 76.4373363,1.54452822 C62.549758,-0.018229619 43.3868868,0.0244140625 25.1905978,15.0322266 C-3.52894295,38.7193356 -7.62971472,88.0917969 17.3214896,120.446636 C36.4388793,145.236625 66.0305035,168.075685 84.3904613,185.145114 C106.728408,205.912918 124.026493,230.73438 124.026493,230.73438 C124.026493,230.73438 141.249135,206.031557 163.587082,185.263753 Z" id="Heart" fill="#39B5F2"></path>
                <path d="M92.0720669,95.2870016 C79.0654293,111.219848 80.0445956,134.62529 95.0090806,149.433431 C103.015106,157.355812 113.507733,161.316522 124.000846,161.316522 C134.493715,161.316522 144.986343,157.355812 152.992125,149.433431 C167.95661,134.62529 168.933594,111.219848 155.926956,95.2870016 C143.635835,79.8142613 131.330404,72.7276091 124.000846,53.6042567 C116.671287,72.7276091 104.36343,79.8140213 92.0720669,95.2870016 Z" id="Drop" fill="#FFFFFF"></path>
            </g>
            <g id="Outlines" transform="translate(374.000000, 51.000000)" fill="#000000">
                <path d="M4.312,4.144 L15.512,4.144 C21.912032,4.144 26.9039821,5.87198272 30.488,9.328 C34.0720179,12.7840173 35.864,17.9679654 35.864,24.88 C35.864,28.3360173 35.4053379,31.3866534 34.488,34.032 C33.5706621,36.6773466 32.2480086,38.8853245 30.52,40.656 C28.7919914,42.4266755 26.7013456,43.7599955 24.248,44.656 C21.7946544,45.5520045 19.0106822,46 15.896,46 L4.312,46 L4.312,4.144 Z M15,39.984 C19.266688,39.984 22.5413219,38.7573456 24.824,36.304 C27.1066781,33.8506544 28.248,30.0426925 28.248,24.88 C28.248,19.7599744 27.0960115,16.0266784 24.792,13.68 C22.4879885,11.3333216 19.2240211,10.16 15,10.16 L11.736,10.16 L11.736,39.984 L15,39.984 Z M43.072,14.576 L49.152,14.576 L49.664,20.144 L49.92,20.144 C51.0293389,18.0959898 52.3733254,16.5280054 53.952,15.44 C55.5306746,14.3519946 57.1519917,13.808 58.816,13.808 C60.3093408,13.808 61.5039955,14.0213312 62.4,14.448 L61.12,20.848 C60.5653306,20.6773325 60.0533357,20.5493338 59.584,20.464 C59.1146643,20.3786662 58.5386701,20.336 57.856,20.336 C56.6186605,20.336 55.3173402,20.8159952 53.952,21.776 C52.5866598,22.7360048 51.4133382,24.4106547 50.432,26.8 L50.432,46 L43.072,46 L43.072,14.576 Z M66.024,14.576 L73.384,14.576 L73.384,33.328 C73.384,35.9306797 73.7679962,37.765328 74.536,38.832 C75.3040038,39.898672 76.5413248,40.432 78.248,40.432 C79.6133402,40.432 80.8186614,40.0906701 81.864,39.408 C82.9093386,38.7253299 84.0293274,37.6160077 85.224,36.08 L85.224,14.576 L92.584,14.576 L92.584,46 L86.568,46 L85.992,41.392 L85.8,41.392 C84.4346598,43.0133414 82.952008,44.3146618 81.352,45.296 C79.751992,46.2773382 77.8640109,46.768 75.688,46.768 C72.3173165,46.768 69.8640077,45.6906774 68.328,43.536 C66.7919923,41.3813226 66.024,38.2986867 66.024,34.288 L66.024,14.576 Z M108.688,48.56 L108.688,58.416 L101.328,58.416 L101.328,14.576 L107.408,14.576 L107.92,17.904 L108.176,17.904 C109.498673,16.7946611 110.970659,15.8346707 112.592,15.024 C114.213341,14.2133293 115.898658,13.808 117.648,13.808 C119.610676,13.808 121.349326,14.1813296 122.864,14.928 C124.378674,15.6746704 125.669328,16.751993 126.736,18.16 C127.802672,19.568007 128.613331,21.2533235 129.168,23.216 C129.722669,25.1786765 130,27.3759878 130,29.808 C130,32.4960134 129.62667,34.8959894 128.88,37.008 C128.13333,39.1200106 127.14134,40.8906595 125.904,42.32 C124.66666,43.7493405 123.237341,44.8479962 121.616,45.616 C119.994659,46.3840038 118.309342,46.768 116.56,46.768 C115.19466,46.768 113.82934,46.4693363 112.464,45.872 C111.09866,45.2746637 109.776006,44.4213389 108.496,43.312 L108.688,48.56 Z M108.688,38.064 C109.840006,39.0453382 110.949328,39.7279981 112.016,40.112 C113.082672,40.4960019 114.085329,40.688 115.024,40.688 C117.114677,40.688 118.863993,39.7813424 120.272,37.968 C121.680007,36.1546576 122.384,33.4560179 122.384,29.872 C122.384,26.7146509 121.850672,24.2613421 120.784,22.512 C119.717328,20.7626579 117.989345,19.888 115.6,19.888 C113.381322,19.888 111.077345,21.0613216 108.688,23.408 L108.688,38.064 Z M134.712,37.552 C134.712,34.1813165 136.183985,31.5786758 139.128,29.744 C142.072015,27.9093242 146.765301,26.629337 153.208,25.904 C153.208,25.0933293 153.101334,24.3146704 152.888,23.568 C152.674666,22.8213296 152.344002,22.1600029 151.896,21.584 C151.447998,21.0079971 150.872004,20.5600016 150.168,20.24 C149.463996,19.9199984 148.578672,19.76 147.512,19.76 C145.933325,19.76 144.408007,20.0586637 142.936,20.656 C141.463993,21.2533363 140.04534,21.9786624 138.68,22.832 L135.992,17.904 C137.741342,16.7946611 139.693323,15.8346707 141.848,15.024 C144.002677,14.2133293 146.338654,13.808 148.856,13.808 C152.82402,13.808 155.76799,14.970655 157.688,17.296 C159.60801,19.621345 160.568,22.9813114 160.568,27.376 L160.568,46 L154.552,46 L153.976,42.544 L153.784,42.544 C152.375993,43.7386726 150.872008,44.7413293 149.272,45.552 C147.671992,46.3626707 145.933343,46.768 144.056,46.768 C141.282653,46.768 139.032009,45.9253418 137.304,44.24 C135.575991,42.5546582 134.712,40.3253472 134.712,37.552 Z M141.88,36.976 C141.88,38.384007 142.295996,39.4079968 143.128,40.048 C143.960004,40.6880032 145.037327,41.008 146.36,41.008 C147.640006,41.008 148.813328,40.7093363 149.88,40.112 C150.946672,39.5146637 152.055994,38.6613389 153.208,37.552 L153.208,30.512 C151.074656,30.7680013 149.282674,31.1093312 147.832,31.536 C146.381326,31.9626688 145.218671,32.442664 144.344,32.976 C143.469329,33.509336 142.840002,34.1173299 142.456,34.8 C142.071998,35.4826701 141.88,36.2079962 141.88,36.976 Z M168.928,0.816 L176.288,0.816 L176.288,38.32 C176.288,39.2160045 176.458665,39.8453315 176.8,40.208 C177.141335,40.5706685 177.503998,40.752 177.888,40.752 L178.368,40.752 C178.517334,40.752 178.741332,40.7093338 179.04,40.624 L180,46.128 C179.018662,46.5546688 177.717341,46.768 176.096,46.768 C173.450653,46.768 171.594672,45.9786746 170.528,44.4 C169.461328,42.8213254 168.928,40.6666803 168.928,37.936 L168.928,0.816 Z M4.312,56.144 L15.512,56.144 C21.912032,56.144 26.9039821,57.8719827 30.488,61.328 C34.0720179,64.7840173 35.864,69.9679654 35.864,76.88 C35.864,80.3360173 35.4053379,83.3866534 34.488,86.032 C33.5706621,88.6773466 32.2480086,90.8853245 30.52,92.656 C28.7919914,94.4266755 26.7013456,95.7599955 24.248,96.656 C21.7946544,97.5520045 19.0106822,98 15.896,98 L4.312,98 L4.312,56.144 Z M15,91.984 C19.266688,91.984 22.5413219,90.7573456 24.824,88.304 C27.1066781,85.8506544 28.248,82.0426925 28.248,76.88 C28.248,71.7599744 27.0960115,68.0266784 24.792,65.68 C22.4879885,63.3333216 19.2240211,62.16 15,62.16 L11.736,62.16 L11.736,91.984 L15,91.984 Z M46.504,61.072 C45.1813267,61.072 44.0933376,60.6880038 43.24,59.92 C42.3866624,59.1519962 41.96,58.1493395 41.96,56.912 C41.96,55.6746605 42.3866624,54.6613373 43.24,53.872 C44.0933376,53.0826627 45.1813267,52.688 46.504,52.688 C47.8266733,52.688 48.9146624,53.0826627 49.768,53.872 C50.6213376,54.6613373 51.048,55.6746605 51.048,56.912 C51.048,58.1493395 50.6213376,59.1519962 49.768,59.92 C48.9146624,60.6880038 47.8266733,61.072 46.504,61.072 Z M42.792,66.576 L50.152,66.576 L50.152,98 L42.792,98 L42.792,66.576 Z M54.776,66.576 L62.264,66.576 L67.256,82.896 C67.6826688,84.4320077 68.1199978,85.9893254 68.568,87.568 C69.0160022,89.1466746 69.4533312,90.7466586 69.88,92.368 L70.136,92.368 C70.6053357,90.7466586 71.0533312,89.1466746 71.48,87.568 C71.9066688,85.9893254 72.3546643,84.4320077 72.824,82.896 L77.816,66.576 L84.92,66.576 L74.232,98 L65.72,98 L54.776,66.576 Z M87.048,82.32 C87.048,79.7599872 87.4533293,77.4560102 88.264,75.408 C89.0746707,73.3599898 90.1519933,71.632007 91.496,70.224 C92.8400067,68.815993 94.3866579,67.7280038 96.136,66.96 C97.8853421,66.1919962 99.6773242,65.808 101.512,65.808 C103.645344,65.808 105.522659,66.170663 107.144,66.896 C108.765341,67.621337 110.119995,68.6453267 111.208,69.968 C112.296005,71.2906733 113.117331,72.8693242 113.672,74.704 C114.226669,76.5386758 114.504,78.5439891 114.504,80.72 C114.504,82.1706739 114.397334,83.3226624 114.184,84.176 L94.216,84.176 C94.557335,87.034681 95.5493251,89.2319923 97.192,90.768 C98.8346749,92.3040077 100.935987,93.072 103.496,93.072 C104.86134,93.072 106.130661,92.8693354 107.304,92.464 C108.477339,92.0586646 109.639994,91.493337 110.792,90.768 L113.288,95.376 C111.794659,96.3573382 110.130676,97.1679968 108.296,97.808 C106.461324,98.4480032 104.541343,98.768 102.536,98.768 C100.359989,98.768 98.3333427,98.3946704 96.456,97.648 C94.5786573,96.9013296 92.936007,95.824007 91.528,94.416 C90.119993,93.007993 89.0213373,91.2906768 88.232,89.264 C87.4426627,87.2373232 87.048,84.9226797 87.048,82.32 Z M108.104,79.504 C108.104,76.9866541 107.581339,75.024007 106.536,73.616 C105.490661,72.207993 103.880011,71.504 101.704,71.504 C99.8266573,71.504 98.184007,72.1759933 96.776,73.52 C95.367993,74.8640067 94.493335,76.8586534 94.152,79.504 L108.104,79.504 Z M120.664,66.576 L126.744,66.576 L127.256,72.144 L127.512,72.144 C128.621339,70.0959898 129.965325,68.5280054 131.544,67.44 C133.122675,66.3519946 134.743992,65.808 136.408,65.808 C137.901341,65.808 139.095996,66.0213312 139.992,66.448 L138.712,72.848 C138.157331,72.6773325 137.645336,72.5493338 137.176,72.464 C136.706664,72.3786662 136.13067,72.336 135.448,72.336 C134.21066,72.336 132.90934,72.8159952 131.544,73.776 C130.17866,74.7360048 129.005338,76.4106547 128.024,78.8 L128.024,98 L120.664,98 L120.664,66.576 Z M143.336,89.68 C144.744007,90.7893389 146.141326,91.6533302 147.528,92.272 C148.914674,92.8906698 150.418659,93.2 152.04,93.2 C153.746675,93.2 155.005329,92.8480035 155.816,92.144 C156.626671,91.4399965 157.032,90.5333389 157.032,89.424 C157.032,88.7839968 156.840002,88.2186691 156.456,87.728 C156.071998,87.2373309 155.560003,86.8000019 154.92,86.416 C154.279997,86.0319981 153.554671,85.6800016 152.744,85.36 C151.933329,85.0399984 151.122671,84.709335 150.312,84.368 C149.287995,83.9839981 148.242672,83.5360026 147.176,83.024 C146.109328,82.5119974 145.160004,81.893337 144.328,81.168 C143.495996,80.442663 142.813336,79.6000048 142.28,78.64 C141.746664,77.6799952 141.48,76.5386733 141.48,75.216 C141.48,72.4426528 142.50399,70.1813421 144.552,68.432 C146.60001,66.6826579 149.394649,65.808 152.936,65.808 C155.112011,65.808 157.074658,66.1919962 158.824,66.96 C160.573342,67.7280038 162.087994,68.6026618 163.368,69.584 L159.976,74.064 C158.866661,73.2533293 157.746672,72.6026691 156.616,72.112 C155.485328,71.6213309 154.30134,71.376 153.064,71.376 C151.485325,71.376 150.32267,71.7066634 149.576,72.368 C148.82933,73.0293366 148.456,73.8506618 148.456,74.832 C148.456,75.4720032 148.637332,76.0159978 149,76.464 C149.362668,76.9120022 149.842664,77.306665 150.44,77.648 C151.037336,77.989335 151.730663,78.3093318 152.52,78.608 C153.309337,78.9066682 154.130662,79.2053318 154.984,79.504 C156.050672,79.8880019 157.117328,80.3253309 158.184,80.816 C159.250672,81.3066691 160.221329,81.914663 161.096,82.64 C161.970671,83.365337 162.674664,84.2506614 163.208,85.296 C163.741336,86.3413386 164.008,87.5893261 164.008,89.04 C164.008,90.4053402 163.741336,91.6746608 163.208,92.848 C162.674664,94.0213392 161.896005,95.045329 160.872,95.92 C159.847995,96.794671 158.568008,97.4879974 157.032,98 C155.495992,98.5120026 153.746676,98.768 151.784,98.768 C149.607989,98.768 147.464011,98.3520042 145.352,97.52 C143.239989,96.6879958 141.416008,95.6533395 139.88,94.416 L143.336,89.68 Z M173.432,61.072 C172.109327,61.072 171.021338,60.6880038 170.168,59.92 C169.314662,59.1519962 168.888,58.1493395 168.888,56.912 C168.888,55.6746605 169.314662,54.6613373 170.168,53.872 C171.021338,53.0826627 172.109327,52.688 173.432,52.688 C174.754673,52.688 175.842662,53.0826627 176.696,53.872 C177.549338,54.6613373 177.976,55.6746605 177.976,56.912 C177.976,58.1493395 177.549338,59.1519962 176.696,59.92 C175.842662,60.6880038 174.754673,61.072 173.432,61.072 Z M169.72,66.576 L177.08,66.576 L177.08,98 L169.72,98 L169.72,66.576 Z M186.696,72.4 L182.216,72.4 L182.216,66.896 L187.08,66.576 L187.976,58 L194.12,58 L194.12,66.576 L202.12,66.576 L202.12,72.4 L194.12,72.4 L194.12,87.376 C194.12,91.0453517 195.591985,92.88 198.536,92.88 C199.090669,92.88 199.655997,92.8160006 200.232,92.688 C200.808003,92.5599994 201.330664,92.3893344 201.8,92.176 L203.08,97.616 C202.226662,97.9146682 201.256005,98.1813322 200.168,98.416 C199.079995,98.6506678 197.91734,98.768 196.68,98.768 C194.845324,98.768 193.298673,98.4906694 192.04,97.936 C190.781327,97.3813306 189.757337,96.6026717 188.968,95.6 C188.178663,94.5973283 187.602668,93.4026736 187.24,92.016 C186.877332,90.6293264 186.696,89.0826752 186.696,87.376 L186.696,72.4 Z M207.192,104.528 C207.490668,104.613334 207.842665,104.709333 208.248,104.816 C208.653335,104.922667 209.047998,104.976 209.432,104.976 C211.096008,104.976 212.429328,104.474672 213.432,103.472 C214.434672,102.469328 215.191997,101.178675 215.704,99.6 L216.28,97.616 L203.928,66.576 L211.416,66.576 L216.856,82 C217.325336,83.3653402 217.783998,84.8053258 218.232,86.32 C218.680002,87.8346742 219.138664,89.3386592 219.608,90.832 L219.864,90.832 C220.248002,89.3813261 220.642665,87.8986742 221.048,86.384 C221.453335,84.8693258 221.847998,83.408007 222.232,82 L226.968,66.576 L234.072,66.576 L222.68,99.408 C222.039997,101.200009 221.336004,102.799993 220.568,104.208 C219.799996,105.616007 218.914672,106.821328 217.912,107.824 C216.909328,108.826672 215.75734,109.594664 214.456,110.128 C213.15466,110.661336 211.650675,110.928 209.944,110.928 C209.090662,110.928 208.344003,110.874667 207.704,110.768 C207.063997,110.661333 206.445336,110.501334 205.848,110.288 L207.192,104.528 Z M7.832,138.544 C7.832,140.506676 8.51465984,142.085327 9.88,143.28 C11.2453402,144.474673 12.9733229,145.072 15.064,145.072 C16.2160058,145.072 17.3573277,144.848002 18.488,144.4 C19.6186723,143.951998 20.717328,143.344004 21.784,142.576 C19.9066573,140.997325 18.1253418,139.322676 16.44,137.552 C14.7546582,135.781324 13.2293402,133.93601 11.864,132.016 C10.6693274,132.997338 9.6986704,134.010661 8.952,135.056 C8.2053296,136.101339 7.832,137.263994 7.832,138.544 Z M12.248,117.744 C12.248,118.725338 12.3973318,119.717328 12.696,120.72 C12.9946682,121.722672 13.3999974,122.778661 13.912,123.888 C15.6613421,122.778661 17.1333274,121.648006 18.328,120.496 C19.5226726,119.343994 20.12,117.957341 20.12,116.336 C20.12,115.226661 19.8640026,114.288004 19.352,113.52 C18.8399974,112.751996 17.9653395,112.368 16.728,112.368 C15.4053267,112.368 14.3280042,112.858662 13.496,113.84 C12.6639958,114.821338 12.248,116.122659 12.248,117.744 Z M36.952,150.768 C35.3306586,150.383998 33.6666752,149.81867 31.96,149.072 C30.2533248,148.32533 28.5253421,147.397339 26.776,146.288 C25.1119917,147.65334 23.2346771,148.741329 21.144,149.552 C19.0533229,150.362671 16.7280128,150.768 14.168,150.768 C12.0773229,150.768 10.2106749,150.45867 8.568,149.84 C6.92532512,149.22133 5.52800576,148.389339 4.376,147.344 C3.22399424,146.298661 2.33866976,145.06134 1.72,143.632 C1.10133024,142.20266 0.792,140.656008 0.792,138.992 C0.792,137.541326 1.0053312,136.240006 1.432,135.088 C1.8586688,133.935994 2.4453296,132.880005 3.192,131.92 C3.9386704,130.959995 4.7919952,130.085337 5.752,129.296 C6.7120048,128.506663 7.725328,127.749337 8.792,127.024 C7.9386624,125.402659 7.27733568,123.824008 6.808,122.288 C6.33866432,120.751992 6.104,119.258674 6.104,117.808 C6.104,116.357326 6.34933088,115.002673 6.84,113.744 C7.33066912,112.485327 8.04532864,111.386671 8.984,110.448 C9.92267136,109.509329 11.0319936,108.762669 12.312,108.208 C13.5920064,107.653331 15.0426586,107.376 16.664,107.376 C19.522681,107.376 21.7733251,108.186659 23.416,109.808 C25.0586749,111.429341 25.88,113.583987 25.88,116.272 C25.88,117.63734 25.6240026,118.895994 25.112,120.048 C24.5999974,121.200006 23.9173376,122.255995 23.064,123.216 C22.2106624,124.176005 21.2400054,125.082662 20.152,125.936 C19.0639946,126.789338 17.9440058,127.621329 16.792,128.432 C18.0720064,130.181342 19.5333251,131.877325 21.176,133.52 C22.8186749,135.162675 24.535991,136.66666 26.328,138.032 C27.4800058,136.495992 28.5039955,134.800009 29.4,132.944 C30.2960045,131.087991 31.0426637,129.072011 31.64,126.896 L38.424,126.896 C37.6559962,129.541347 36.6746726,132.079988 35.48,134.512 C34.2853274,136.944012 32.8773414,139.247989 31.256,141.424 C32.6213402,142.277338 33.9439936,142.991997 35.224,143.568 C36.5040064,144.144003 37.6986611,144.538666 38.808,144.752 L36.952,150.768 Z" id="Drupal-Diversity-&amp;"></path>
                <path d="M4.312,162.144 L11.736,162.144 L11.736,204 L4.312,204 L4.312,162.144 Z M19.96,172.576 L26.04,172.576 L26.552,176.8 L26.808,176.8 C28.216007,175.43466 29.7413251,174.261338 31.384,173.28 C33.0266749,172.298662 34.9359891,171.808 37.112,171.808 C40.4826835,171.808 42.9359923,172.885323 44.472,175.04 C46.0080077,177.194677 46.776,180.277313 46.776,184.288 L46.776,204 L39.416,204 L39.416,185.248 C39.416,182.64532 39.0320038,180.810672 38.264,179.744 C37.4959962,178.677328 36.2373421,178.144 34.488,178.144 C33.1226598,178.144 31.9173386,178.474663 30.872,179.136 C29.8266614,179.797337 28.6426733,180.767994 27.32,182.048 L27.32,204 L19.96,204 L19.96,172.576 Z M51.992,188.32 C51.992,185.71732 52.4186624,183.39201 53.272,181.344 C54.1253376,179.29599 55.2773261,177.568007 56.728,176.16 C58.1786739,174.751993 59.8533238,173.67467 61.752,172.928 C63.6506762,172.18133 65.6453229,171.808 67.736,171.808 C69.7840102,171.808 71.5653258,172.159996 73.08,172.864 C74.5946742,173.568004 75.885328,174.431995 76.952,175.456 L73.432,180.128 C72.5786624,179.402663 71.7253376,178.837335 70.872,178.432 C70.0186624,178.026665 69.1013382,177.824 68.12,177.824 C65.5599872,177.824 63.4906746,178.773324 61.912,180.672 C60.3333254,182.570676 59.544,185.119984 59.544,188.32 C59.544,191.477349 60.3226589,194.005324 61.88,195.904 C63.4373411,197.802676 65.453321,198.752 67.928,198.752 C69.2080064,198.752 70.3919946,198.485336 71.48,197.952 C72.5680054,197.418664 73.5386624,196.789337 74.392,196.064 L77.464,200.736 C75.9706592,202.058673 74.328009,203.06133 72.536,203.744 C70.743991,204.42667 68.952009,204.768 67.16,204.768 C65.026656,204.768 63.0320093,204.405337 61.176,203.68 C59.3199907,202.954663 57.7093402,201.888007 56.344,200.48 C54.9786598,199.071993 53.9120038,197.34401 53.144,195.296 C52.3759962,193.24799 51.992,190.92268 51.992,188.32 Z M81.848,158.816 L89.208,158.816 L89.208,196.32 C89.208,197.216004 89.378665,197.845332 89.72,198.208 C90.061335,198.570668 90.4239981,198.752 90.808,198.752 L91.288,198.752 C91.4373341,198.752 91.6613318,198.709334 91.96,198.624 L92.92,204.128 C91.9386618,204.554669 90.6373414,204.768 89.016,204.768 C86.3706534,204.768 84.514672,203.978675 83.448,202.4 C82.381328,200.821325 81.848,198.66668 81.848,195.936 L81.848,158.816 Z M97.112,172.576 L104.472,172.576 L104.472,191.328 C104.472,193.93068 104.855996,195.765328 105.624,196.832 C106.392004,197.898672 107.629325,198.432 109.336,198.432 C110.70134,198.432 111.906661,198.09067 112.952,197.408 C113.997339,196.72533 115.117327,195.616008 116.312,194.08 L116.312,172.576 L123.672,172.576 L123.672,204 L117.656,204 L117.08,199.392 L116.888,199.392 C115.52266,201.013341 114.040008,202.314662 112.44,203.296 C110.839992,204.277338 108.952011,204.768 106.776,204.768 C103.405316,204.768 100.952008,203.690677 99.416,201.536 C97.8799923,199.381323 97.112,196.298687 97.112,192.288 L97.112,172.576 Z M131.576,195.68 C132.984007,196.789339 134.381326,197.65333 135.768,198.272 C137.154674,198.89067 138.658659,199.2 140.28,199.2 C141.986675,199.2 143.245329,198.848004 144.056,198.144 C144.866671,197.439996 145.272,196.533339 145.272,195.424 C145.272,194.783997 145.080002,194.218669 144.696,193.728 C144.311998,193.237331 143.800003,192.800002 143.16,192.416 C142.519997,192.031998 141.794671,191.680002 140.984,191.36 C140.173329,191.039998 139.362671,190.709335 138.552,190.368 C137.527995,189.983998 136.482672,189.536003 135.416,189.024 C134.349328,188.511997 133.400004,187.893337 132.568,187.168 C131.735996,186.442663 131.053336,185.600005 130.52,184.64 C129.986664,183.679995 129.72,182.538673 129.72,181.216 C129.72,178.442653 130.74399,176.181342 132.792,174.432 C134.84001,172.682658 137.634649,171.808 141.176,171.808 C143.352011,171.808 145.314658,172.191996 147.064,172.96 C148.813342,173.728004 150.327994,174.602662 151.608,175.584 L148.216,180.064 C147.106661,179.253329 145.986672,178.602669 144.856,178.112 C143.725328,177.621331 142.54134,177.376 141.304,177.376 C139.725325,177.376 138.56267,177.706663 137.816,178.368 C137.06933,179.029337 136.696,179.850662 136.696,180.832 C136.696,181.472003 136.877332,182.015998 137.24,182.464 C137.602668,182.912002 138.082664,183.306665 138.68,183.648 C139.277336,183.989335 139.970663,184.309332 140.76,184.608 C141.549337,184.906668 142.370662,185.205332 143.224,185.504 C144.290672,185.888002 145.357328,186.325331 146.424,186.816 C147.490672,187.306669 148.461329,187.914663 149.336,188.64 C150.210671,189.365337 150.914664,190.250661 151.448,191.296 C151.981336,192.341339 152.248,193.589326 152.248,195.04 C152.248,196.40534 151.981336,197.674661 151.448,198.848 C150.914664,200.021339 150.136005,201.045329 149.112,201.92 C148.087995,202.794671 146.808008,203.487997 145.272,204 C143.735992,204.512003 141.986676,204.768 140.024,204.768 C137.847989,204.768 135.704011,204.352004 133.592,203.52 C131.479989,202.687996 129.656008,201.65334 128.12,200.416 L131.576,195.68 Z M160.792,167.072 C159.469327,167.072 158.381338,166.688004 157.528,165.92 C156.674662,165.151996 156.248,164.14934 156.248,162.912 C156.248,161.67466 156.674662,160.661337 157.528,159.872 C158.381338,159.082663 159.469327,158.688 160.792,158.688 C162.114673,158.688 163.202662,159.082663 164.056,159.872 C164.909338,160.661337 165.336,161.67466 165.336,162.912 C165.336,164.14934 164.909338,165.151996 164.056,165.92 C163.202662,166.688004 162.114673,167.072 160.792,167.072 Z M157.08,172.576 L164.44,172.576 L164.44,204 L157.08,204 L157.08,172.576 Z M170.04,188.32 C170.04,185.71732 170.445329,183.39201 171.256,181.344 C172.066671,179.29599 173.165326,177.568007 174.552,176.16 C175.938674,174.751993 177.527991,173.67467 179.32,172.928 C181.112009,172.18133 182.989324,171.808 184.952,171.808 C186.914676,171.808 188.802658,172.18133 190.616,172.928 C192.429342,173.67467 194.01866,174.751993 195.384,176.16 C196.74934,177.568007 197.847996,179.29599 198.68,181.344 C199.512004,183.39201 199.928,185.71732 199.928,188.32 C199.928,190.92268 199.512004,193.24799 198.68,195.296 C197.847996,197.34401 196.74934,199.071993 195.384,200.48 C194.01866,201.888007 192.429342,202.954663 190.616,203.68 C188.802658,204.405337 186.914676,204.768 184.952,204.768 C182.989324,204.768 181.112009,204.405337 179.32,203.68 C177.527991,202.954663 175.938674,201.888007 174.552,200.48 C173.165326,199.071993 172.066671,197.34401 171.256,195.296 C170.445329,193.24799 170.04,190.92268 170.04,188.32 Z M177.592,188.32 C177.592,191.477349 178.24266,194.005324 179.544,195.904 C180.84534,197.802676 182.647988,198.752 184.952,198.752 C187.256012,198.752 189.069327,197.802676 190.392,195.904 C191.714673,194.005324 192.376,191.477349 192.376,188.32 C192.376,185.119984 191.714673,182.570676 190.392,180.672 C189.069327,178.773324 187.256012,177.824 184.952,177.824 C182.647988,177.824 180.84534,178.773324 179.544,180.672 C178.24266,182.570676 177.592,185.119984 177.592,188.32 Z M205.464,172.576 L211.544,172.576 L212.056,176.8 L212.312,176.8 C213.720007,175.43466 215.245325,174.261338 216.888,173.28 C218.530675,172.298662 220.439989,171.808 222.616,171.808 C225.986684,171.808 228.439992,172.885323 229.976,175.04 C231.512008,177.194677 232.28,180.277313 232.28,184.288 L232.28,204 L224.92,204 L224.92,185.248 C224.92,182.64532 224.536004,180.810672 223.768,179.744 C222.999996,178.677328 221.741342,178.144 219.992,178.144 C218.62666,178.144 217.421339,178.474663 216.376,179.136 C215.330661,179.797337 214.146673,180.767994 212.824,182.048 L212.824,204 L205.464,204 L205.464,172.576 Z" id="Inclusion"></path>
            </g>
        </g>
    </g>
</svg>