<?xml version="1.0" encoding="UTF-8" standalone="no"?>
<svg width="460px" height="590px" viewBox="0 0 460 590" version="1.1" xmlns="http://www.w3.org/2000/svg" xmlns:xlink="http://www.w3.org/1999/xlink">
    <!-- Generator: Sketch 43.2 (39069) - http://www.bohemiancoding.com/sketch -->
    <title>Photobooth Template</title>
    <desc>Created with Sketch.</desc>
    <defs></defs>
    <g id="Page-1" stroke="none" stroke-width="1" fill="none" fill-rule="evenodd">
        <g id="Rainbow">
            <rect id="Rectangle" fill="#1279D8" x="0" y="0" width="16" height="37"></rect>
            <rect id="Rectangle-Copy-11" fill="#21AE3E" x="444" y="0" width="16" height="37"></rect>
            <rect id="Rectangle-Copy" fill="#158ED3" x="16" y="0" width="17" height="37"></rect>
            <rect id="Rectangle-Copy-2" fill="#22D2D2" x="33" y="0" width="18" height="37"></rect>
            <rect id="Rectangle-Copy-12" fill="#22D2D2" x="425" y="0" width="19" height="37"></rect>
            <rect id="Rectangle-Copy-13" fill="#158ED3" x="406" y="0" width="19" height="37"></rect>
            <rect id="Rectangle-Copy-14" fill="#137AD9" x="387" y="0" width="19" height="37"></rect>
            <rect id="Rectangle-Copy-15" fill="#0B4DC7" x="369" y="0" width="18" height="37"></rect>
            <rect id="Rectangle-Copy-16" fill="#3F2CA9" x="350" y="0" width="19" height="37"></rect>
            <rect id="Rectangle-Copy-17" fill="#642A9B" x="331" y="0" width="19" height="37"></rect>
            <rect id="Rectangle-Copy-18" fill="#4B208B" x="311" y="0" width="20" height="37"></rect>
            <rect id="Rectangle-Copy-19" fill="#8E1F7D" x="293" y="0" width="18" height="37"></rect>
            <rect id="Rectangle-Copy-20" fill="#9F0951" x="275" y="0" width="18" height="37"></rect>
            <rect id="Rectangle-Copy-21" fill="#D00E65" x="257" y="0" width="18" height="37"></rect>
            <rect id="Rectangle-Copy-22" fill="#F21052" x="238" y="0" width="19" height="37"></rect>
            <rect id="Rectangle-Copy-23" fill="#870414" x="219" y="0" width="19" height="37"></rect>
            <rect id="Rectangle-Copy-24" fill="#AB0614" x="201" y="0" width="18" height="37"></rect>
            <rect id="Rectangle-Copy-3" fill="#22AE3E" x="51" y="0" width="19" height="37"></rect>
            <rect id="Rectangle-Copy-4" fill="#21D243" x="70" y="0" width="19" height="37"></rect>
            <rect id="Rectangle-Copy-5" fill="#19AE36" x="89" y="0" width="19" height="37"></rect>
            <rect id="Rectangle-Copy-6" fill="#F9F673" x="108" y="0" width="18" height="37"></rect>
            <rect id="Rectangle-Copy-7" fill="#F9CF47" x="126" y="0" width="19" height="37"></rect>
            <rect id="Rectangle-Copy-8" fill="#F89A38" x="145" y="0" width="18" height="37"></rect>
            <rect id="Rectangle-Copy-9" fill="#F5702D" x="163" y="0" width="19" height="37"></rect>
            <rect id="Rectangle-Copy-10" fill="#F63121" x="182" y="0" width="19" height="37"></rect>
        </g>
        <g id="Logo" transform="translate(44.627706, 57.068548)">
            <g>
                <path d="M52.1104012,59.3485614 C57.9589361,53.8804325 67.3853003,46.5640238 73.475114,38.6226421 C81.4232798,28.2578883 80.1169856,12.441602 70.9684222,4.85352383 C65.1720237,0.0458263155 59.067722,0.0321655691 54.6438563,0.532789293 C47.5734943,1.33290196 40.9418017,6.71182393 39.5026673,11.0484111 C38.0898148,6.70530675 31.4400214,1.29723562 24.3489902,0.494783933 C19.9251245,-0.00583979136 13.8208228,0.00782095509 8.02442429,4.81551847 C-1.12413908,12.4035967 -2.43043332,28.219883 5.51773256,38.5846367 C11.6075462,46.5260184 21.0339104,53.8424271 26.8824453,59.3105561 C33.9981623,65.9634457 39.5084392,73.9149098 39.5084392,73.9149098 C39.5084392,73.9149098 44.9946842,66.0014511 52.1104012,59.3485614 Z" id="Heart" fill="#39B5F2"></path>
                <path d="M29.3294084,30.5248403 C25.186165,35.628869 25.4980768,43.1267162 30.2649894,47.8704497 C32.8152958,50.4083552 36.1577053,51.6771542 39.5002694,51.6771542 C42.8427561,51.6771542 46.1851656,50.4083552 48.7353947,47.8704497 C53.5023072,43.1267162 53.8135238,35.628869 49.6702804,30.5248403 C45.7549636,25.5682049 41.8350883,23.298022 39.5002694,17.1719264 C37.1654502,23.298022 33.2448024,25.568128 29.3294084,30.5248403 Z" id="Drop" fill="#FFFFFF"></path>
            </g>
        </g>
        <rect id="Bottom-BG" fill="#49B7ED" x="0" y="444" width="460" height="146"></rect>
        <path d="M41.424,469.936 L36.672,469.936 L36.672,468.256 L48.192,468.256 L48.192,469.936 L43.44,469.936 L43.44,484 L41.424,484 L41.424,469.936 Z M50.832,466.912 L52.8,466.912 L52.8,471.568 L52.728,473.968 C53.2880028,473.439997 53.871997,472.988002 54.48,472.612 C55.088003,472.235998 55.7999959,472.048 56.616,472.048 C57.8480062,472.048 58.7479972,472.431996 59.316,473.2 C59.8840028,473.968004 60.168,475.103992 60.168,476.608 L60.168,484 L58.2,484 L58.2,476.872 C58.2,475.767994 58.0240018,474.972002 57.672,474.484 C57.3199982,473.995998 56.7600038,473.752 55.992,473.752 C55.383997,473.752 54.8480023,473.903998 54.384,474.208 C53.9199977,474.512002 53.392003,474.959997 52.8,475.552 L52.8,484 L50.832,484 L50.832,466.912 Z M64.896,469.936 C64.5119981,469.936 64.1880013,469.816001 63.924,469.576 C63.6599987,469.335999 63.528,469.032002 63.528,468.664 C63.528,468.279998 63.6599987,467.972001 63.924,467.74 C64.1880013,467.507999 64.5119981,467.392 64.896,467.392 C65.2800019,467.392 65.6039987,467.507999 65.868,467.74 C66.1320013,467.972001 66.264,468.279998 66.264,468.664 C66.264,469.032002 66.1320013,469.335999 65.868,469.576 C65.6039987,469.816001 65.2800019,469.936 64.896,469.936 Z M63.888,472.336 L65.856,472.336 L65.856,484 L63.888,484 L63.888,472.336 Z M69.48,481.36 C69.9920026,481.776002 70.5159973,482.111999 71.052,482.368 C71.5880027,482.624001 72.2079965,482.752 72.912,482.752 C73.6800038,482.752 74.2559981,482.576002 74.64,482.224 C75.0240019,481.871998 75.216,481.440003 75.216,480.928 C75.216,480.623998 75.1360008,480.360001 74.976,480.136 C74.8159992,479.911999 74.6120012,479.716001 74.364,479.548 C74.1159988,479.379999 73.8320016,479.232001 73.512,479.104 L72.552,478.72 C72.1359979,478.575999 71.7200021,478.412001 71.304,478.228 C70.8879979,478.043999 70.5160016,477.820001 70.188,477.556 C69.8599984,477.291999 69.592001,476.984002 69.384,476.632 C69.175999,476.279998 69.072,475.856002 69.072,475.36 C69.072,474.895998 69.1639991,474.460002 69.348,474.052 C69.5320009,473.643998 69.7959983,473.292001 70.14,472.996 C70.4840017,472.699999 70.9039975,472.468001 71.4,472.3 C71.8960025,472.131999 72.4559969,472.048 73.08,472.048 C73.8160037,472.048 74.4919969,472.175999 75.108,472.432 C75.7240031,472.688001 76.2559978,472.999998 76.704,473.368 L75.768,474.616 C75.367998,474.311998 74.9520022,474.064001 74.52,473.872 C74.0879978,473.679999 73.6160026,473.584 73.104,473.584 C72.3679963,473.584 71.8280017,473.751998 71.484,474.088 C71.1399983,474.424002 70.968,474.815998 70.968,475.264 C70.968,475.536001 71.0399993,475.771999 71.184,475.972 C71.3280007,476.172001 71.5199988,476.347999 71.76,476.5 C72.0000012,476.652001 72.2759984,476.787999 72.588,476.908 C72.9000016,477.028001 73.2239983,477.151999 73.56,477.28 C73.9760021,477.440001 74.3959979,477.607999 74.82,477.784 C75.2440021,477.960001 75.6239983,478.179999 75.96,478.444 C76.2960017,478.708001 76.5719989,479.031998 76.788,479.416 C77.0040011,479.800002 77.112,480.263997 77.112,480.808 C77.112,481.288002 77.0200009,481.735998 76.836,482.152 C76.6519991,482.568002 76.3800018,482.935998 76.02,483.256 C75.6599982,483.576002 75.2120027,483.827999 74.676,484.012 C74.1399973,484.196001 73.5280034,484.288 72.84,484.288 C72.0079958,484.288 71.2160038,484.136002 70.464,483.832 C69.7119962,483.527998 69.0560028,483.144002 68.496,482.68 L69.48,481.36 Z M85.704,469.936 C85.3199981,469.936 84.9960013,469.816001 84.732,469.576 C84.4679987,469.335999 84.336,469.032002 84.336,468.664 C84.336,468.279998 84.4679987,467.972001 84.732,467.74 C84.9960013,467.507999 85.3199981,467.392 85.704,467.392 C86.0880019,467.392 86.4119987,467.507999 86.676,467.74 C86.9400013,467.972001 87.072,468.279998 87.072,468.664 C87.072,469.032002 86.9400013,469.335999 86.676,469.576 C86.4119987,469.816001 86.0880019,469.936 85.704,469.936 Z M84.696,472.336 L86.664,472.336 L86.664,484 L84.696,484 L84.696,472.336 Z M90.288,481.36 C90.8000026,481.776002 91.3239973,482.111999 91.86,482.368 C92.3960027,482.624001 93.0159965,482.752 93.72,482.752 C94.4880038,482.752 95.0639981,482.576002 95.448,482.224 C95.8320019,481.871998 96.024,481.440003 96.024,480.928 C96.024,480.623998 95.9440008,480.360001 95.784,480.136 C95.6239992,479.911999 95.4200012,479.716001 95.172,479.548 C94.9239988,479.379999 94.6400016,479.232001 94.32,479.104 L93.36,478.72 C92.9439979,478.575999 92.5280021,478.412001 92.112,478.228 C91.6959979,478.043999 91.3240016,477.820001 90.996,477.556 C90.6679984,477.291999 90.400001,476.984002 90.192,476.632 C89.983999,476.279998 89.88,475.856002 89.88,475.36 C89.88,474.895998 89.9719991,474.460002 90.156,474.052 C90.3400009,473.643998 90.6039983,473.292001 90.948,472.996 C91.2920017,472.699999 91.7119975,472.468001 92.208,472.3 C92.7040025,472.131999 93.2639969,472.048 93.888,472.048 C94.6240037,472.048 95.2999969,472.175999 95.916,472.432 C96.5320031,472.688001 97.0639978,472.999998 97.512,473.368 L96.576,474.616 C96.175998,474.311998 95.7600022,474.064001 95.328,473.872 C94.8959978,473.679999 94.4240026,473.584 93.912,473.584 C93.1759963,473.584 92.6360017,473.751998 92.292,474.088 C91.9479983,474.424002 91.776,474.815998 91.776,475.264 C91.776,475.536001 91.8479993,475.771999 91.992,475.972 C92.1360007,476.172001 92.3279988,476.347999 92.568,476.5 C92.8080012,476.652001 93.0839984,476.787999 93.396,476.908 C93.7080016,477.028001 94.0319983,477.151999 94.368,477.28 C94.7840021,477.440001 95.2039979,477.607999 95.628,477.784 C96.0520021,477.960001 96.4319983,478.179999 96.768,478.444 C97.1040017,478.708001 97.3799989,479.031998 97.596,479.416 C97.8120011,479.800002 97.92,480.263997 97.92,480.808 C97.92,481.288002 97.8280009,481.735998 97.644,482.152 C97.4599991,482.568002 97.1880018,482.935998 96.828,483.256 C96.4679982,483.576002 96.0200027,483.827999 95.484,484.012 C94.9479973,484.196001 94.3360034,484.288 93.648,484.288 C92.8159958,484.288 92.0240038,484.136002 91.272,483.832 C90.5199962,483.527998 89.8640028,483.144002 89.304,482.68 L90.288,481.36 Z M104.112,472.336 L106.128,472.336 L107.856,479.08 C107.984001,479.640003 108.103999,480.183997 108.216,480.712 C108.328001,481.240003 108.439999,481.775997 108.552,482.32 L108.648,482.32 C108.776001,481.775997 108.903999,481.236003 109.032,480.7 C109.160001,480.163997 109.295999,479.624003 109.44,479.08 L111.24,472.336 L113.16,472.336 L114.984,479.08 C115.128001,479.640003 115.267999,480.183997 115.404,480.712 C115.540001,481.240003 115.671999,481.775997 115.8,482.32 L115.896,482.32 C116.024001,481.775997 116.143999,481.240003 116.256,480.712 C116.368001,480.183997 116.487999,479.640003 116.616,479.08 L118.32,472.336 L120.192,472.336 L117.072,484 L114.672,484 L112.992,477.736 C112.847999,477.175997 112.716001,476.624003 112.596,476.08 C112.475999,475.535997 112.344001,474.968003 112.2,474.376 L112.104,474.376 C111.975999,474.968003 111.848001,475.539997 111.72,476.092 C111.591999,476.644003 111.448001,477.199997 111.288,477.76 L109.656,484 L107.352,484 L104.112,472.336 Z M122.736,466.912 L124.704,466.912 L124.704,471.568 L124.632,473.968 C125.192003,473.439997 125.775997,472.988002 126.384,472.612 C126.992003,472.235998 127.703996,472.048 128.52,472.048 C129.752006,472.048 130.651997,472.431996 131.22,473.2 C131.788003,473.968004 132.072,475.103992 132.072,476.608 L132.072,484 L130.104,484 L130.104,476.872 C130.104,475.767994 129.928002,474.972002 129.576,474.484 C129.223998,473.995998 128.664004,473.752 127.896,473.752 C127.287997,473.752 126.752002,473.903998 126.288,474.208 C125.823998,474.512002 125.296003,474.959997 124.704,475.552 L124.704,484 L122.736,484 L122.736,466.912 Z M135.216,480.976 C135.216,479.695994 135.787994,478.716003 136.932,478.036 C138.076006,477.355997 139.895988,476.880001 142.392,476.608 C142.392,476.239998 142.356,475.880002 142.284,475.528 C142.212,475.175998 142.084001,474.864001 141.9,474.592 C141.715999,474.319999 141.472002,474.100001 141.168,473.932 C140.863998,473.763999 140.472002,473.68 139.992,473.68 C139.303997,473.68 138.668003,473.807999 138.084,474.064 C137.499997,474.320001 136.976002,474.607998 136.512,474.928 L135.72,473.56 C136.264003,473.207998 136.927996,472.868002 137.712,472.54 C138.496004,472.211998 139.359995,472.048 140.304,472.048 C141.728007,472.048 142.759997,472.483996 143.4,473.356 C144.040003,474.228004 144.36,475.391993 144.36,476.848 L144.36,484 L142.728,484 L142.56,482.608 L142.512,482.608 C141.951997,483.072002 141.348003,483.467998 140.7,483.796 C140.051997,484.124002 139.368004,484.288 138.648,484.288 C137.655995,484.288 136.836003,484.000003 136.188,483.424 C135.539997,482.847997 135.216,482.032005 135.216,480.976 Z M137.16,480.832 C137.16,481.504003 137.355998,481.983999 137.748,482.272 C138.140002,482.560001 138.623997,482.704 139.2,482.704 C139.760003,482.704 140.291997,482.572001 140.796,482.308 C141.300003,482.043999 141.831997,481.656003 142.392,481.144 L142.392,477.904 C141.415995,478.032001 140.592003,478.183999 139.92,478.36 C139.247997,478.536001 138.708002,478.743999 138.3,478.984 C137.891998,479.224001 137.600001,479.499998 137.424,479.812 C137.247999,480.124002 137.16,480.463998 137.16,480.832 Z M148.416,473.944 L146.688,473.944 L146.688,472.456 L148.512,472.336 L148.752,469.072 L150.408,469.072 L150.408,472.336 L153.552,472.336 L153.552,473.944 L150.408,473.944 L150.408,480.424 C150.408,481.144004 150.539999,481.699998 150.804,482.092 C151.068001,482.484002 151.535997,482.68 152.208,482.68 C152.416001,482.68 152.639999,482.648 152.88,482.584 C153.120001,482.52 153.335999,482.448 153.528,482.368 L153.912,483.856 C153.591998,483.968001 153.244002,484.068 152.868,484.156 C152.491998,484.244 152.120002,484.288 151.752,484.288 C151.127997,484.288 150.604002,484.192001 150.18,484 C149.755998,483.807999 149.412001,483.544002 149.148,483.208 C148.883999,482.871998 148.696001,482.464002 148.584,481.984 C148.471999,481.503998 148.416,480.976003 148.416,480.4 L148.416,473.944 Z M160.464,480.976 C160.464,479.695994 161.035994,478.716003 162.18,478.036 C163.324006,477.355997 165.143988,476.880001 167.64,476.608 C167.64,476.239998 167.604,475.880002 167.532,475.528 C167.46,475.175998 167.332001,474.864001 167.148,474.592 C166.963999,474.319999 166.720002,474.100001 166.416,473.932 C166.111998,473.763999 165.720002,473.68 165.24,473.68 C164.551997,473.68 163.916003,473.807999 163.332,474.064 C162.747997,474.320001 162.224002,474.607998 161.76,474.928 L160.968,473.56 C161.512003,473.207998 162.175996,472.868002 162.96,472.54 C163.744004,472.211998 164.607995,472.048 165.552,472.048 C166.976007,472.048 168.007997,472.483996 168.648,473.356 C169.288003,474.228004 169.608,475.391993 169.608,476.848 L169.608,484 L167.976,484 L167.808,482.608 L167.76,482.608 C167.199997,483.072002 166.596003,483.467998 165.948,483.796 C165.299997,484.124002 164.616004,484.288 163.896,484.288 C162.903995,484.288 162.084003,484.000003 161.436,483.424 C160.787997,482.847997 160.464,482.032005 160.464,480.976 Z M162.408,480.832 C162.408,481.504003 162.603998,481.983999 162.996,482.272 C163.388002,482.560001 163.871997,482.704 164.448,482.704 C165.008003,482.704 165.539997,482.572001 166.044,482.308 C166.548003,482.043999 167.079997,481.656003 167.64,481.144 L167.64,477.904 C166.663995,478.032001 165.840003,478.183999 165.168,478.36 C164.495997,478.536001 163.956002,478.743999 163.548,478.984 C163.139998,479.224001 162.848001,479.499998 162.672,479.812 C162.495999,480.124002 162.408,480.463998 162.408,480.832 Z M178.368,468.256 L182.304,468.256 C184.736012,468.256 186.583994,468.927993 187.848,470.272 C189.112006,471.616007 189.744,473.543987 189.744,476.056 C189.744,477.304006 189.584002,478.419995 189.264,479.404 C188.943998,480.388005 188.472003,481.219997 187.848,481.9 C187.223997,482.580003 186.456005,483.099998 185.544,483.46 C184.631995,483.820002 183.584006,484 182.4,484 L178.368,484 L178.368,468.256 Z M182.16,482.368 C184.000009,482.368 185.379995,481.816006 186.3,480.712 C187.220005,479.607994 187.68,478.05601 187.68,476.056 C187.68,474.05599 187.220005,472.528005 186.3,471.472 C185.379995,470.415995 184.000009,469.888 182.16,469.888 L180.36,469.888 L180.36,482.368 L182.16,482.368 Z M192.936,472.336 L194.568,472.336 L194.736,474.448 L194.808,474.448 C195.208002,473.711996 195.691997,473.128002 196.26,472.696 C196.828003,472.263998 197.447997,472.048 198.12,472.048 C198.584002,472.048 198.999998,472.127999 199.368,472.288 L198.984,474.016 C198.791999,473.952 198.616001,473.904 198.456,473.872 C198.295999,473.84 198.096001,473.824 197.856,473.824 C197.359998,473.824 196.844003,474.023998 196.308,474.424 C195.771997,474.824002 195.304002,475.519995 194.904,476.512 L194.904,484 L192.936,484 L192.936,472.336 Z M201.096,472.336 L203.088,472.336 L203.088,479.464 C203.088,480.568006 203.259998,481.363998 203.604,481.852 C203.948002,482.340002 204.503996,482.584 205.272,482.584 C205.880003,482.584 206.415998,482.428002 206.88,482.116 C207.344002,481.803998 207.855997,481.304003 208.416,480.616 L208.416,472.336 L210.384,472.336 L210.384,484 L208.752,484 L208.584,482.176 L208.512,482.176 C207.967997,482.816003 207.396003,483.327998 206.796,483.712 C206.195997,484.096002 205.488004,484.288 204.672,484.288 C203.423994,484.288 202.516003,483.904004 201.948,483.136 C201.379997,482.367996 201.096,481.232008 201.096,479.728 L201.096,472.336 Z M216.288,484.984 L216.288,488.92 L214.32,488.92 L214.32,472.336 L215.952,472.336 L216.12,473.68 L216.192,473.68 C216.720003,473.231998 217.299997,472.848002 217.932,472.528 C218.564003,472.207998 219.223997,472.048 219.912,472.048 C220.664004,472.048 221.327997,472.187999 221.904,472.468 C222.480003,472.748001 222.959998,473.147997 223.344,473.668 C223.728002,474.188003 224.019999,474.811996 224.22,475.54 C224.420001,476.268004 224.52,477.087995 224.52,478 C224.52,478.992005 224.384001,479.875996 224.112,480.652 C223.839999,481.428004 223.472002,482.087997 223.008,482.632 C222.543998,483.176003 222.008003,483.587999 221.4,483.868 C220.791997,484.148001 220.152003,484.288 219.48,484.288 C218.935997,484.288 218.396003,484.168001 217.86,483.928 C217.323997,483.687999 216.784003,483.360002 216.24,482.944 L216.288,484.984 Z M216.288,481.408 C216.816003,481.856002 217.327998,482.171999 217.824,482.356 C218.320002,482.540001 218.759998,482.632 219.144,482.632 C219.624002,482.632 220.067998,482.524001 220.476,482.308 C220.884002,482.091999 221.235999,481.788002 221.532,481.396 C221.828001,481.003998 222.059999,480.520003 222.228,479.944 C222.396001,479.367997 222.48,478.720004 222.48,478 C222.48,477.359997 222.424001,476.776003 222.312,476.248 C222.199999,475.719997 222.020001,475.268002 221.772,474.892 C221.523999,474.515998 221.204002,474.224001 220.812,474.016 C220.419998,473.807999 219.952003,473.704 219.408,473.704 C218.911998,473.704 218.412003,473.839999 217.908,474.112 C217.403997,474.384001 216.864003,474.775997 216.288,475.288 L216.288,481.408 Z M227.064,480.976 C227.064,479.695994 227.635994,478.716003 228.78,478.036 C229.924006,477.355997 231.743988,476.880001 234.24,476.608 C234.24,476.239998 234.204,475.880002 234.132,475.528 C234.06,475.175998 233.932001,474.864001 233.748,474.592 C233.563999,474.319999 233.320002,474.100001 233.016,473.932 C232.711998,473.763999 232.320002,473.68 231.84,473.68 C231.151997,473.68 230.516003,473.807999 229.932,474.064 C229.347997,474.320001 228.824002,474.607998 228.36,474.928 L227.568,473.56 C228.112003,473.207998 228.775996,472.868002 229.56,472.54 C230.344004,472.211998 231.207995,472.048 232.152,472.048 C233.576007,472.048 234.607997,472.483996 235.248,473.356 C235.888003,474.228004 236.208,475.391993 236.208,476.848 L236.208,484 L234.576,484 L234.408,482.608 L234.36,482.608 C233.799997,483.072002 233.196003,483.467998 232.548,483.796 C231.899997,484.124002 231.216004,484.288 230.496,484.288 C229.503995,484.288 228.684003,484.000003 228.036,483.424 C227.387997,482.847997 227.064,482.032005 227.064,480.976 Z M229.008,480.832 C229.008,481.504003 229.203998,481.983999 229.596,482.272 C229.988002,482.560001 230.471997,482.704 231.048,482.704 C231.608003,482.704 232.139997,482.572001 232.644,482.308 C233.148003,482.043999 233.679997,481.656003 234.24,481.144 L234.24,477.904 C233.263995,478.032001 232.440003,478.183999 231.768,478.36 C231.095997,478.536001 230.556002,478.743999 230.148,478.984 C229.739998,479.224001 229.448001,479.499998 229.272,479.812 C229.095999,480.124002 229.008,480.463998 229.008,480.832 Z M239.928,466.912 L241.896,466.912 L241.896,481.792 C241.896,482.112002 241.951999,482.335999 242.064,482.464 C242.176001,482.592001 242.303999,482.656 242.448,482.656 L242.628,482.656 C242.684,482.656 242.767999,482.64 242.88,482.608 L243.144,484.096 C243.015999,484.16 242.864001,484.208 242.688,484.24 C242.511999,484.272 242.288001,484.288 242.016,484.288 C241.263996,484.288 240.728002,484.064002 240.408,483.616 C240.087998,483.167998 239.928,482.512004 239.928,481.648 L239.928,466.912 Z M247.056,469.936 C246.671998,469.936 246.348001,469.816001 246.084,469.576 C245.819999,469.335999 245.688,469.032002 245.688,468.664 C245.688,468.279998 245.819999,467.972001 246.084,467.74 C246.348001,467.507999 246.671998,467.392 247.056,467.392 C247.440002,467.392 247.763999,467.507999 248.028,467.74 C248.292001,467.972001 248.424,468.279998 248.424,468.664 C248.424,469.032002 248.292001,469.335999 248.028,469.576 C247.763999,469.816001 247.440002,469.936 247.056,469.936 Z M246.048,472.336 L248.016,472.336 L248.016,484 L246.048,484 L246.048,472.336 Z M251.64,481.36 C252.152003,481.776002 252.675997,482.111999 253.212,482.368 C253.748003,482.624001 254.367996,482.752 255.072,482.752 C255.840004,482.752 256.415998,482.576002 256.8,482.224 C257.184002,481.871998 257.376,481.440003 257.376,480.928 C257.376,480.623998 257.296001,480.360001 257.136,480.136 C256.975999,479.911999 256.772001,479.716001 256.524,479.548 C256.275999,479.379999 255.992002,479.232001 255.672,479.104 L254.712,478.72 C254.295998,478.575999 253.880002,478.412001 253.464,478.228 C253.047998,478.043999 252.676002,477.820001 252.348,477.556 C252.019998,477.291999 251.752001,476.984002 251.544,476.632 C251.335999,476.279998 251.232,475.856002 251.232,475.36 C251.232,474.895998 251.323999,474.460002 251.508,474.052 C251.692001,473.643998 251.955998,473.292001 252.3,472.996 C252.644002,472.699999 253.063998,472.468001 253.56,472.3 C254.056002,472.131999 254.615997,472.048 255.24,472.048 C255.976004,472.048 256.651997,472.175999 257.268,472.432 C257.884003,472.688001 258.415998,472.999998 258.864,473.368 L257.928,474.616 C257.527998,474.311998 257.112002,474.064001 256.68,473.872 C256.247998,473.679999 255.776003,473.584 255.264,473.584 C254.527996,473.584 253.988002,473.751998 253.644,474.088 C253.299998,474.424002 253.128,474.815998 253.128,475.264 C253.128,475.536001 253.199999,475.771999 253.344,475.972 C253.488001,476.172001 253.679999,476.347999 253.92,476.5 C254.160001,476.652001 254.435998,476.787999 254.748,476.908 C255.060002,477.028001 255.383998,477.151999 255.72,477.28 C256.136002,477.440001 256.555998,477.607999 256.98,477.784 C257.404002,477.960001 257.783998,478.179999 258.12,478.444 C258.456002,478.708001 258.731999,479.031998 258.948,479.416 C259.164001,479.800002 259.272,480.263997 259.272,480.808 C259.272,481.288002 259.180001,481.735998 258.996,482.152 C258.811999,482.568002 258.540002,482.935998 258.18,483.256 C257.819998,483.576002 257.372003,483.827999 256.836,484.012 C256.299997,484.196001 255.688003,484.288 255,484.288 C254.167996,484.288 253.376004,484.136002 252.624,483.832 C251.871996,483.527998 251.216003,483.144002 250.656,482.68 L251.64,481.36 Z M262.344,473.944 L260.616,473.944 L260.616,472.456 L262.44,472.336 L262.68,469.072 L264.336,469.072 L264.336,472.336 L267.48,472.336 L267.48,473.944 L264.336,473.944 L264.336,480.424 C264.336,481.144004 264.467999,481.699998 264.732,482.092 C264.996001,482.484002 265.463997,482.68 266.136,482.68 C266.344001,482.68 266.567999,482.648 266.808,482.584 C267.048001,482.52 267.263999,482.448 267.456,482.368 L267.84,483.856 C267.519998,483.968001 267.172002,484.068 266.796,484.156 C266.419998,484.244 266.048002,484.288 265.68,484.288 C265.055997,484.288 264.532002,484.192001 264.108,484 C263.683998,483.807999 263.340001,483.544002 263.076,483.208 C262.811999,482.871998 262.624001,482.464002 262.512,481.984 C262.399999,481.503998 262.344,480.976003 262.344,480.4 L262.344,473.944 Z M274.968,466.912 L276.936,466.912 L276.936,481.792 C276.936,482.112002 276.991999,482.335999 277.104,482.464 C277.216001,482.592001 277.343999,482.656 277.488,482.656 L277.668,482.656 C277.724,482.656 277.807999,482.64 277.92,482.608 L278.184,484.096 C278.055999,484.16 277.904001,484.208 277.728,484.24 C277.551999,484.272 277.328001,484.288 277.056,484.288 C276.303996,484.288 275.768002,484.064002 275.448,483.616 C275.127998,483.167998 274.968,482.512004 274.968,481.648 L274.968,466.912 Z M280.224,478.192 C280.224,477.215995 280.371999,476.348004 280.668,475.588 C280.964001,474.827996 281.359998,474.184003 281.856,473.656 C282.352002,473.127997 282.923997,472.728001 283.572,472.456 C284.220003,472.183999 284.903996,472.048 285.624,472.048 C286.344004,472.048 287.027997,472.183999 287.676,472.456 C288.324003,472.728001 288.895998,473.127997 289.392,473.656 C289.888002,474.184003 290.283999,474.827996 290.58,475.588 C290.876001,476.348004 291.024,477.215995 291.024,478.192 C291.024,479.152005 290.876001,480.011996 290.58,480.772 C290.283999,481.532004 289.888002,482.171997 289.392,482.692 C288.895998,483.212003 288.324003,483.607999 287.676,483.88 C287.027997,484.152001 286.344004,484.288 285.624,484.288 C284.903996,484.288 284.220003,484.152001 283.572,483.88 C282.923997,483.607999 282.352002,483.212003 281.856,482.692 C281.359998,482.171997 280.964001,481.532004 280.668,480.772 C280.371999,480.011996 280.224,479.152005 280.224,478.192 Z M282.264,478.192 C282.264,478.864003 282.343999,479.471997 282.504,480.016 C282.664001,480.560003 282.891999,481.027998 283.188,481.42 C283.484001,481.812002 283.839998,482.115999 284.256,482.332 C284.672002,482.548001 285.127998,482.656 285.624,482.656 C286.120002,482.656 286.575998,482.548001 286.992,482.332 C287.408002,482.115999 287.763999,481.812002 288.06,481.42 C288.356001,481.027998 288.583999,480.560003 288.744,480.016 C288.904001,479.471997 288.984,478.864003 288.984,478.192 C288.984,477.519997 288.904001,476.908003 288.744,476.356 C288.583999,475.803997 288.356001,475.328002 288.06,474.928 C287.763999,474.527998 287.408002,474.220001 286.992,474.004 C286.575998,473.787999 286.120002,473.68 285.624,473.68 C285.127998,473.68 284.672002,473.787999 284.256,474.004 C283.839998,474.220001 283.484001,474.527998 283.188,474.928 C282.891999,475.328002 282.664001,475.803997 282.504,476.356 C282.343999,476.908003 282.264,477.519997 282.264,478.192 Z M293.232,478.192 C293.232,477.215995 293.379999,476.348004 293.676,475.588 C293.972001,474.827996 294.367998,474.184003 294.864,473.656 C295.360002,473.127997 295.931997,472.728001 296.58,472.456 C297.228003,472.183999 297.911996,472.048 298.632,472.048 C299.352004,472.048 300.035997,472.183999 300.684,472.456 C301.332003,472.728001 301.903998,473.127997 302.4,473.656 C302.896002,474.184003 303.291999,474.827996 303.588,475.588 C303.884001,476.348004 304.032,477.215995 304.032,478.192 C304.032,479.152005 303.884001,480.011996 303.588,480.772 C303.291999,481.532004 302.896002,482.171997 302.4,482.692 C301.903998,483.212003 301.332003,483.607999 300.684,483.88 C300.035997,484.152001 299.352004,484.288 298.632,484.288 C297.911996,484.288 297.228003,484.152001 296.58,483.88 C295.931997,483.607999 295.360002,483.212003 294.864,482.692 C294.367998,482.171997 293.972001,481.532004 293.676,480.772 C293.379999,480.011996 293.232,479.152005 293.232,478.192 Z M295.272,478.192 C295.272,478.864003 295.351999,479.471997 295.512,480.016 C295.672001,480.560003 295.899999,481.027998 296.196,481.42 C296.492001,481.812002 296.847998,482.115999 297.264,482.332 C297.680002,482.548001 298.135998,482.656 298.632,482.656 C299.128002,482.656 299.583998,482.548001 300,482.332 C300.416002,482.115999 300.771999,481.812002 301.068,481.42 C301.364001,481.027998 301.591999,480.560003 301.752,480.016 C301.912001,479.471997 301.992,478.864003 301.992,478.192 C301.992,477.519997 301.912001,476.908003 301.752,476.356 C301.591999,475.803997 301.364001,475.328002 301.068,474.928 C300.771999,474.527998 300.416002,474.220001 300,474.004 C299.583998,473.787999 299.128002,473.68 298.632,473.68 C298.135998,473.68 297.680002,473.787999 297.264,474.004 C296.847998,474.220001 296.492001,474.527998 296.196,474.928 C295.899999,475.328002 295.672001,475.803997 295.512,476.356 C295.351999,476.908003 295.272,477.519997 295.272,478.192 Z M307.104,466.912 L309.048,466.912 L309.048,478.48 L309.12,478.48 L314.088,472.336 L316.272,472.336 L312.36,477.016 L316.8,484 L314.64,484 L311.232,478.384 L309.048,480.928 L309.048,484 L307.104,484 L307.104,466.912 Z M318.672,481.36 C319.184003,481.776002 319.707997,482.111999 320.244,482.368 C320.780003,482.624001 321.399996,482.752 322.104,482.752 C322.872004,482.752 323.447998,482.576002 323.832,482.224 C324.216002,481.871998 324.408,481.440003 324.408,480.928 C324.408,480.623998 324.328001,480.360001 324.168,480.136 C324.007999,479.911999 323.804001,479.716001 323.556,479.548 C323.307999,479.379999 323.024002,479.232001 322.704,479.104 L321.744,478.72 C321.327998,478.575999 320.912002,478.412001 320.496,478.228 C320.079998,478.043999 319.708002,477.820001 319.38,477.556 C319.051998,477.291999 318.784001,476.984002 318.576,476.632 C318.367999,476.279998 318.264,475.856002 318.264,475.36 C318.264,474.895998 318.355999,474.460002 318.54,474.052 C318.724001,473.643998 318.987998,473.292001 319.332,472.996 C319.676002,472.699999 320.095998,472.468001 320.592,472.3 C321.088002,472.131999 321.647997,472.048 322.272,472.048 C323.008004,472.048 323.683997,472.175999 324.3,472.432 C324.916003,472.688001 325.447998,472.999998 325.896,473.368 L324.96,474.616 C324.559998,474.311998 324.144002,474.064001 323.712,473.872 C323.279998,473.679999 322.808003,473.584 322.296,473.584 C321.559996,473.584 321.020002,473.751998 320.676,474.088 C320.331998,474.424002 320.16,474.815998 320.16,475.264 C320.16,475.536001 320.231999,475.771999 320.376,475.972 C320.520001,476.172001 320.711999,476.347999 320.952,476.5 C321.192001,476.652001 321.467998,476.787999 321.78,476.908 C322.092002,477.028001 322.415998,477.151999 322.752,477.28 C323.168002,477.440001 323.587998,477.607999 324.012,477.784 C324.436002,477.960001 324.815998,478.179999 325.152,478.444 C325.488002,478.708001 325.763999,479.031998 325.98,479.416 C326.196001,479.800002 326.304,480.263997 326.304,480.808 C326.304,481.288002 326.212001,481.735998 326.028,482.152 C325.843999,482.568002 325.572002,482.935998 325.212,483.256 C324.851998,483.576002 324.404003,483.827999 323.868,484.012 C323.331997,484.196001 322.720003,484.288 322.032,484.288 C321.199996,484.288 320.408004,484.136002 319.656,483.832 C318.903996,483.527998 318.248003,483.144002 317.688,482.68 L318.672,481.36 Z M333.888,466.912 L335.856,466.912 L335.856,481.792 C335.856,482.112002 335.911999,482.335999 336.024,482.464 C336.136001,482.592001 336.263999,482.656 336.408,482.656 L336.588,482.656 C336.644,482.656 336.727999,482.64 336.84,482.608 L337.104,484.096 C336.975999,484.16 336.824001,484.208 336.648,484.24 C336.471999,484.272 336.248001,484.288 335.976,484.288 C335.223996,484.288 334.688002,484.064002 334.368,483.616 C334.047998,483.167998 333.888,482.512004 333.888,481.648 L333.888,466.912 Z M341.016,469.936 C340.631998,469.936 340.308001,469.816001 340.044,469.576 C339.779999,469.335999 339.648,469.032002 339.648,468.664 C339.648,468.279998 339.779999,467.972001 340.044,467.74 C340.308001,467.507999 340.631998,467.392 341.016,467.392 C341.400002,467.392 341.723999,467.507999 341.988,467.74 C342.252001,467.972001 342.384,468.279998 342.384,468.664 C342.384,469.032002 342.252001,469.335999 341.988,469.576 C341.723999,469.816001 341.400002,469.936 341.016,469.936 Z M340.008,472.336 L341.976,472.336 L341.976,484 L340.008,484 L340.008,472.336 Z M345.912,466.912 L347.856,466.912 L347.856,478.48 L347.928,478.48 L352.896,472.336 L355.08,472.336 L351.168,477.016 L355.608,484 L353.448,484 L350.04,478.384 L347.856,480.928 L347.856,484 L345.912,484 L345.912,466.912 Z M356.928,478.192 C356.928,477.231995 357.075999,476.372004 357.372,475.612 C357.668001,474.851996 358.059998,474.208003 358.548,473.68 C359.036002,473.151997 359.591997,472.748001 360.216,472.468 C360.840003,472.187999 361.487997,472.048 362.16,472.048 C362.896004,472.048 363.555997,472.175999 364.14,472.432 C364.724003,472.688001 365.211998,473.055998 365.604,473.536 C365.996002,474.016002 366.295999,474.591997 366.504,475.264 C366.712001,475.936003 366.816,476.687996 366.816,477.52 C366.816,477.952002 366.792,478.311999 366.744,478.6 L358.872,478.6 C358.952,479.864006 359.339997,480.863996 360.036,481.6 C360.732003,482.336004 361.639994,482.704 362.76,482.704 C363.320003,482.704 363.835998,482.620001 364.308,482.452 C364.780002,482.283999 365.231998,482.064001 365.664,481.792 L366.36,483.088 C365.847997,483.408002 365.280003,483.687999 364.656,483.928 C364.031997,484.168001 363.320004,484.288 362.52,484.288 C361.735996,484.288 361.004003,484.148001 360.324,483.868 C359.643997,483.587999 359.052003,483.188003 358.548,482.668 C358.043997,482.147997 357.648001,481.512004 357.36,480.76 C357.071999,480.007996 356.928,479.152005 356.928,478.192 Z M365.088,477.304 C365.088,476.103994 364.836003,475.188003 364.332,474.556 C363.827997,473.923997 363.120005,473.608 362.208,473.608 C361.791998,473.608 361.396002,473.691999 361.02,473.86 C360.643998,474.028001 360.304002,474.267998 360,474.58 C359.695998,474.892002 359.444001,475.275998 359.244,475.732 C359.043999,476.188002 358.912,476.711997 358.848,477.304 L365.088,477.304 Z M370.248,470.176 L370.2,467.92 L372.192,467.92 L372.144,470.176 L371.88,479.248 L370.512,479.248 L370.248,470.176 Z M369.768,482.8 C369.768,482.335998 369.907999,481.964001 370.188,481.684 C370.468001,481.403999 370.807998,481.264 371.208,481.264 C371.592002,481.264 371.923999,481.403999 372.204,481.684 C372.484001,481.964001 372.624,482.335998 372.624,482.8 C372.624,483.232002 372.484001,483.587999 372.204,483.868 C371.923999,484.148001 371.592002,484.288 371.208,484.288 C370.807998,484.288 370.468001,484.148001 370.188,483.868 C369.907999,483.587999 369.768,483.232002 369.768,482.8 Z M37.848,496.352 L42.264,496.352 C43.464006,496.352 44.5439952,496.503998 45.504,496.808 C46.4640048,497.112002 47.2879966,497.579997 47.976,498.212 C48.6640034,498.844003 49.1919982,499.647995 49.56,500.624 C49.9280018,501.600005 50.112,502.759993 50.112,504.104 C50.112,505.448007 49.9280018,506.615995 49.56,507.608 C49.1919982,508.600005 48.6720034,509.419997 48,510.068 C47.3279966,510.716003 46.5240047,511.199998 45.588,511.52 C44.6519953,511.840002 43.6080058,512 42.456,512 L37.848,512 L37.848,496.352 Z M42.048,509.144 C42.7200034,509.144 43.3279973,509.056001 43.872,508.88 C44.4160027,508.703999 44.8799981,508.420002 45.264,508.028 C45.6480019,507.635998 45.9479989,507.120003 46.164,506.48 C46.3800011,505.839997 46.488,505.048005 46.488,504.104 C46.488,503.175995 46.3800011,502.396003 46.164,501.764 C45.9479989,501.131997 45.6480019,500.628002 45.264,500.252 C44.8799981,499.875998 44.4160027,499.608001 43.872,499.448 C43.3279973,499.287999 42.7200034,499.208 42.048,499.208 L41.376,499.208 L41.376,509.144 L42.048,509.144 Z M52.8,500.096 L55.68,500.096 L55.92,502.184 L56.016,502.184 C56.4480022,501.367996 56.967997,500.768002 57.576,500.384 C58.184003,499.999998 58.791997,499.808 59.4,499.808 C59.7360017,499.808 60.0119989,499.828 60.228,499.868 C60.4440011,499.908 60.6399991,499.968 60.816,500.048 L60.24,503.096 C60.0159989,503.032 59.808001,502.984 59.616,502.952 C59.423999,502.92 59.2000013,502.904 58.944,502.904 C58.4959978,502.904 58.0280024,503.063998 57.54,503.384 C57.0519976,503.704002 56.6480016,504.271996 56.328,505.088 L56.328,512 L52.8,512 L52.8,500.096 Z M62.232,500.096 L65.76,500.096 L65.76,507.032 C65.76,507.896004 65.8799988,508.487998 66.12,508.808 C66.3600012,509.128002 66.7359974,509.288 67.248,509.288 C67.6960022,509.288 68.0719985,509.184001 68.376,508.976 C68.6800015,508.767999 69.0079982,508.432002 69.36,507.968 L69.36,500.096 L72.888,500.096 L72.888,512 L70.008,512 L69.744,510.344 L69.672,510.344 C69.1599974,510.952003 68.6120029,511.427998 68.028,511.772 C67.4439971,512.116002 66.7440041,512.288 65.928,512.288 C64.6319935,512.288 63.6920029,511.864004 63.108,511.016 C62.5239971,510.167996 62.232,508.992008 62.232,507.488 L62.232,500.096 Z M79.512,512.936 L79.512,516.416 L75.984,516.416 L75.984,500.096 L78.864,500.096 L79.104,501.272 L79.2,501.272 C79.6640023,500.855998 80.1879971,500.508001 80.772,500.228 C81.3560029,499.947999 81.9599969,499.808 82.584,499.808 C83.3040036,499.808 83.9519971,499.951999 84.528,500.24 C85.1040029,500.528001 85.591998,500.935997 85.992,501.464 C86.392002,501.992003 86.6999989,502.627996 86.916,503.372 C87.1320011,504.116004 87.24,504.943995 87.24,505.856 C87.24,506.880005 87.1000014,507.787996 86.82,508.58 C86.5399986,509.372004 86.1640024,510.043997 85.692,510.596 C85.2199976,511.148003 84.684003,511.567999 84.084,511.856 C83.483997,512.144001 82.8640032,512.288 82.224,512.288 C81.7119974,512.288 81.2160024,512.180001 80.736,511.964 C80.2559976,511.747999 79.8080021,511.440002 79.392,511.04 L79.512,512.936 Z M79.512,508.64 C79.8320016,508.928001 80.1519984,509.127999 80.472,509.24 C80.7920016,509.352001 81.1039985,509.408 81.408,509.408 C82.016003,509.408 82.5359978,509.132003 82.968,508.58 C83.4000022,508.027997 83.616,507.136006 83.616,505.904 C83.616,503.759989 82.9280069,502.688 81.552,502.688 C80.8639966,502.688 80.1840034,503.047996 79.512,503.768 L79.512,508.64 Z M89.304,508.688 C89.304,507.439994 89.8319947,506.464004 90.888,505.76 C91.9440053,505.055996 93.6479882,504.584001 96,504.344 C95.9679998,503.815997 95.8080014,503.396002 95.52,503.084 C95.2319986,502.771998 94.7680032,502.616 94.128,502.616 C93.6159974,502.616 93.1040026,502.711999 92.592,502.904 C92.0799974,503.096001 91.5360029,503.359998 90.96,503.696 L89.712,501.368 C90.4800038,500.903998 91.2839958,500.528001 92.124,500.24 C92.9640042,499.951999 93.8559953,499.808 94.8,499.808 C96.3360077,499.808 97.507996,500.243996 98.316,501.116 C99.124004,501.988004 99.528,503.343991 99.528,505.184 L99.528,512 L96.648,512 L96.384,510.776 L96.312,510.776 C95.7999974,511.224002 95.2600028,511.587999 94.692,511.868 C94.1239972,512.148001 93.5040034,512.288 92.832,512.288 C92.2879973,512.288 91.8000022,512.196001 91.368,512.012 C90.9359978,511.827999 90.5680015,511.572002 90.264,511.244 C89.9599985,510.915998 89.7240008,510.536002 89.556,510.104 C89.3879992,509.671998 89.304,509.200003 89.304,508.688 Z M92.664,508.424 C92.664,508.808002 92.7879988,509.091999 93.036,509.276 C93.2840012,509.460001 93.6159979,509.552 94.032,509.552 C94.4480021,509.552 94.7999986,509.464001 95.088,509.288 C95.3760014,509.111999 95.6799984,508.864002 96,508.544 L96,506.456 C94.7359937,506.632001 93.8640024,506.887998 93.384,507.224 C92.9039976,507.560002 92.664,507.959998 92.664,508.424 Z M102.552,495.176 L106.08,495.176 L106.08,508.448 C106.08,508.816002 106.147999,509.071999 106.284,509.216 C106.420001,509.360001 106.559999,509.432 106.704,509.432 L106.908,509.432 C106.964,509.432 107.04,509.416 107.136,509.384 L107.568,512 C107.375999,512.08 107.132001,512.148 106.836,512.204 C106.539999,512.26 106.192002,512.288 105.792,512.288 C105.183997,512.288 104.672002,512.192001 104.256,512 C103.839998,511.807999 103.508001,511.540002 103.26,511.196 C103.011999,510.851998 102.832001,510.436002 102.72,509.948 C102.607999,509.459998 102.552,508.912003 102.552,508.304 L102.552,495.176 Z M108.96,504.272 C108.96,502.975994 109.159998,501.820005 109.56,500.804 C109.960002,499.787995 110.499997,498.928004 111.18,498.224 C111.860003,497.519996 112.651995,496.984002 113.556,496.616 C114.460005,496.247998 115.415995,496.064 116.424,496.064 C117.400005,496.064 118.283996,496.267998 119.076,496.676 C119.868004,497.084002 120.527997,497.559997 121.056,498.104 L119.112,500.288 C118.711998,499.919998 118.308002,499.632001 117.9,499.424 C117.491998,499.215999 117.016003,499.112 116.472,499.112 C115.927997,499.112 115.420002,499.227999 114.948,499.46 C114.475998,499.692001 114.064002,500.023998 113.712,500.456 C113.359998,500.888002 113.084001,501.415997 112.884,502.04 C112.683999,502.664003 112.584,503.367996 112.584,504.152 C112.584,505.768008 112.927997,507.019996 113.616,507.908 C114.304003,508.796004 115.223994,509.24 116.376,509.24 C117.016003,509.24 117.575998,509.112001 118.056,508.856 C118.536002,508.599999 118.967998,508.264002 119.352,507.848 L121.296,509.984 C120.639997,510.752004 119.892004,511.327998 119.052,511.712 C118.211996,512.096002 117.304005,512.288 116.328,512.288 C115.319995,512.288 114.368004,512.116002 113.472,511.772 C112.575996,511.427998 111.792003,510.920003 111.12,510.248 C110.447997,509.575997 109.920002,508.740005 109.536,507.74 C109.151998,506.739995 108.96,505.584007 108.96,504.272 Z M122.688,506.048 C122.688,505.055995 122.847998,504.172004 123.168,503.396 C123.488002,502.619996 123.915997,501.968003 124.452,501.44 C124.988003,500.911997 125.607996,500.508001 126.312,500.228 C127.016004,499.947999 127.743996,499.808 128.496,499.808 C129.248004,499.808 129.971997,499.947999 130.668,500.228 C131.364003,500.508001 131.979997,500.911997 132.516,501.44 C133.052003,501.968003 133.479998,502.619996 133.8,503.396 C134.120002,504.172004 134.28,505.055995 134.28,506.048 C134.28,507.040005 134.120002,507.923996 133.8,508.7 C133.479998,509.476004 133.052003,510.127997 132.516,510.656 C131.979997,511.184003 131.364003,511.587999 130.668,511.868 C129.971997,512.148001 129.248004,512.288 128.496,512.288 C127.743996,512.288 127.016004,512.148001 126.312,511.868 C125.607996,511.587999 124.988003,511.184003 124.452,510.656 C123.915997,510.127997 123.488002,509.476004 123.168,508.7 C122.847998,507.923996 122.688,507.040005 122.688,506.048 Z M126.312,506.048 C126.312,507.088005 126.491998,507.911997 126.852,508.52 C127.212002,509.128003 127.759996,509.432 128.496,509.432 C129.216004,509.432 129.759998,509.128003 130.128,508.52 C130.496002,507.911997 130.68,507.088005 130.68,506.048 C130.68,505.007995 130.496002,504.184003 130.128,503.576 C129.759998,502.967997 129.216004,502.664 128.496,502.664 C127.759996,502.664 127.212002,502.967997 126.852,503.576 C126.491998,504.184003 126.312,505.007995 126.312,506.048 Z M136.704,500.096 L139.584,500.096 L139.824,501.608 L139.92,501.608 C140.432003,501.127998 140.991997,500.708002 141.6,500.348 C142.208003,499.987998 142.919996,499.808 143.736,499.808 C145.032006,499.808 145.971997,500.231996 146.556,501.08 C147.140003,501.928004 147.432,503.103992 147.432,504.608 L147.432,512 L143.904,512 L143.904,505.064 C143.904,504.199996 143.788001,503.608002 143.556,503.288 C143.323999,502.967998 142.952003,502.808 142.44,502.808 C141.991998,502.808 141.608002,502.907999 141.288,503.108 C140.967998,503.308001 140.616002,503.591998 140.232,503.96 L140.232,512 L136.704,512 L136.704,500.096 Z M155.712,496.352 L161.064,496.352 C161.880004,496.352 162.635997,496.411999 163.332,496.532 C164.028003,496.652001 164.635997,496.863998 165.156,497.168 C165.676003,497.472002 166.083999,497.871998 166.38,498.368 C166.676001,498.864002 166.824,499.487996 166.824,500.24 C166.824,500.592002 166.772001,500.943998 166.668,501.296 C166.563999,501.648002 166.408001,501.975998 166.2,502.28 C165.991999,502.584002 165.720002,502.855999 165.384,503.096 C165.047998,503.336001 164.656002,503.511999 164.208,503.624 L164.208,503.72 C165.328006,503.928001 166.171997,504.327997 166.74,504.92 C167.308003,505.512003 167.592,506.335995 167.592,507.392 C167.592,508.192004 167.436002,508.879997 167.124,509.456 C166.811998,510.032003 166.380003,510.507998 165.828,510.884 C165.275997,511.260002 164.632004,511.539999 163.896,511.724 C163.159996,511.908001 162.368004,512 161.52,512 L155.712,512 L155.712,496.352 Z M160.896,502.664 C161.760004,502.664 162.387998,502.492002 162.78,502.148 C163.172002,501.803998 163.368,501.336003 163.368,500.744 C163.368,500.151997 163.168002,499.728001 162.768,499.472 C162.367998,499.215999 161.752004,499.088 160.92,499.088 L159.24,499.088 L159.24,502.664 L160.896,502.664 Z M161.232,509.264 C163.16801,509.264 164.136,508.552007 164.136,507.128 C164.136,506.439997 163.896002,505.940002 163.416,505.628 C162.935998,505.315998 162.208005,505.16 161.232,505.16 L159.24,505.16 L159.24,509.264 L161.232,509.264 Z M169.512,508.688 C169.512,507.439994 170.039995,506.464004 171.096,505.76 C172.152005,505.055996 173.855988,504.584001 176.208,504.344 C176.176,503.815997 176.016001,503.396002 175.728,503.084 C175.439999,502.771998 174.976003,502.616 174.336,502.616 C173.823997,502.616 173.312003,502.711999 172.8,502.904 C172.287997,503.096001 171.744003,503.359998 171.168,503.696 L169.92,501.368 C170.688004,500.903998 171.491996,500.528001 172.332,500.24 C173.172004,499.951999 174.063995,499.808 175.008,499.808 C176.544008,499.808 177.715996,500.243996 178.524,501.116 C179.332004,501.988004 179.736,503.343991 179.736,505.184 L179.736,512 L176.856,512 L176.592,510.776 L176.52,510.776 C176.007997,511.224002 175.468003,511.587999 174.9,511.868 C174.331997,512.148001 173.712003,512.288 173.04,512.288 C172.495997,512.288 172.008002,512.196001 171.576,512.012 C171.143998,511.827999 170.776002,511.572002 170.472,511.244 C170.167998,510.915998 169.932001,510.536002 169.764,510.104 C169.595999,509.671998 169.512,509.200003 169.512,508.688 Z M172.872,508.424 C172.872,508.808002 172.995999,509.091999 173.244,509.276 C173.492001,509.460001 173.823998,509.552 174.24,509.552 C174.656002,509.552 175.007999,509.464001 175.296,509.288 C175.584001,509.111999 175.887998,508.864002 176.208,508.544 L176.208,506.456 C174.943994,506.632001 174.072002,506.887998 173.592,507.224 C173.111998,507.560002 172.872,507.959998 172.872,508.424 Z M182.76,495.176 L186.288,495.176 L186.288,508.448 C186.288,508.816002 186.355999,509.071999 186.492,509.216 C186.628001,509.360001 186.767999,509.432 186.912,509.432 L187.116,509.432 C187.172,509.432 187.248,509.416 187.344,509.384 L187.776,512 C187.583999,512.08 187.340001,512.148 187.044,512.204 C186.747999,512.26 186.400002,512.288 186,512.288 C185.391997,512.288 184.880002,512.192001 184.464,512 C184.047998,511.807999 183.716001,511.540002 183.468,511.196 C183.219999,510.851998 183.040001,510.436002 182.928,509.948 C182.815999,509.459998 182.76,508.912003 182.76,508.304 L182.76,495.176 Z M190.104,502.856 L188.472,502.856 L188.472,500.24 L190.296,500.096 L190.704,496.928 L193.632,496.928 L193.632,500.096 L196.488,500.096 L196.488,502.856 L193.632,502.856 L193.632,507.632 C193.632,508.304003 193.771999,508.787999 194.052,509.084 C194.332001,509.380001 194.703998,509.528 195.168,509.528 C195.360001,509.528 195.555999,509.504 195.756,509.456 C195.956001,509.408 196.135999,509.352 196.296,509.288 L196.848,511.856 C196.527998,511.952 196.152002,512.048 195.72,512.144 C195.287998,512.24 194.784003,512.288 194.208,512.288 C193.471996,512.288 192.844003,512.176001 192.324,511.952 C191.803997,511.727999 191.380002,511.416002 191.052,511.016 C190.723998,510.615998 190.484001,510.132003 190.332,509.564 C190.179999,508.995997 190.104,508.368003 190.104,507.68 L190.104,502.856 Z M200.568,498.344 C199.975997,498.344 199.488002,498.172002 199.104,497.828 C198.719998,497.483998 198.528,497.040003 198.528,496.496 C198.528,495.951997 198.719998,495.512002 199.104,495.176 C199.488002,494.839998 199.975997,494.672 200.568,494.672 C201.176003,494.672 201.667998,494.839998 202.044,495.176 C202.420002,495.512002 202.608,495.951997 202.608,496.496 C202.608,497.040003 202.420002,497.483998 202.044,497.828 C201.667998,498.172002 201.176003,498.344 200.568,498.344 Z M198.816,500.096 L202.344,500.096 L202.344,512 L198.816,512 L198.816,500.096 Z M205.44,500.096 L208.32,500.096 L208.56,501.632 L208.656,501.632 C209.152002,501.135998 209.679997,500.708002 210.24,500.348 C210.800003,499.987998 211.471996,499.808 212.256,499.808 C213.104004,499.808 213.787997,499.979998 214.308,500.324 C214.828003,500.668002 215.239998,501.159997 215.544,501.8 C216.072003,501.255997 216.627997,500.788002 217.212,500.396 C217.796003,500.003998 218.487996,499.808 219.288,499.808 C220.568006,499.808 221.507997,500.235996 222.108,501.092 C222.708003,501.948004 223.008,503.119993 223.008,504.608 L223.008,512 L219.48,512 L219.48,505.064 C219.48,504.199996 219.364001,503.608002 219.132,503.288 C218.899999,502.967998 218.528003,502.808 218.016,502.808 C217.423997,502.808 216.744004,503.191996 215.976,503.96 L215.976,512 L212.448,512 L212.448,505.064 C212.448,504.199996 212.332001,503.608002 212.1,503.288 C211.867999,502.967998 211.496003,502.808 210.984,502.808 C210.375997,502.808 209.704004,503.191996 208.968,503.96 L208.968,512 L205.44,512 L205.44,500.096 Z M225.312,506.048 C225.312,505.055995 225.471998,504.172004 225.792,503.396 C226.112002,502.619996 226.539997,501.968003 227.076,501.44 C227.612003,500.911997 228.231996,500.508001 228.936,500.228 C229.640004,499.947999 230.367996,499.808 231.12,499.808 C231.872004,499.808 232.595997,499.947999 233.292,500.228 C233.988003,500.508001 234.603997,500.911997 235.14,501.44 C235.676003,501.968003 236.103998,502.619996 236.424,503.396 C236.744002,504.172004 236.904,505.055995 236.904,506.048 C236.904,507.040005 236.744002,507.923996 236.424,508.7 C236.103998,509.476004 235.676003,510.127997 235.14,510.656 C234.603997,511.184003 233.988003,511.587999 233.292,511.868 C232.595997,512.148001 231.872004,512.288 231.12,512.288 C230.367996,512.288 229.640004,512.148001 228.936,511.868 C228.231996,511.587999 227.612003,511.184003 227.076,510.656 C226.539997,510.127997 226.112002,509.476004 225.792,508.7 C225.471998,507.923996 225.312,507.040005 225.312,506.048 Z M228.936,506.048 C228.936,507.088005 229.115998,507.911997 229.476,508.52 C229.836002,509.128003 230.383996,509.432 231.12,509.432 C231.840004,509.432 232.383998,509.128003 232.752,508.52 C233.120002,507.911997 233.304,507.088005 233.304,506.048 C233.304,505.007995 233.120002,504.184003 232.752,503.576 C232.383998,502.967997 231.840004,502.664 231.12,502.664 C230.383996,502.664 229.836002,502.967997 229.476,503.576 C229.115998,504.184003 228.936,505.007995 228.936,506.048 Z M239.328,500.096 L242.208,500.096 L242.448,502.184 L242.544,502.184 C242.976002,501.367996 243.495997,500.768002 244.104,500.384 C244.712003,499.999998 245.319997,499.808 245.928,499.808 C246.264002,499.808 246.539999,499.828 246.756,499.868 C246.972001,499.908 247.167999,499.968 247.344,500.048 L246.768,503.096 C246.543999,503.032 246.336001,502.984 246.144,502.952 C245.951999,502.92 245.728001,502.904 245.472,502.904 C245.023998,502.904 244.556002,503.063998 244.068,503.384 C243.579998,503.704002 243.176002,504.271996 242.856,505.088 L242.856,512 L239.328,512 L239.328,500.096 Z M248.184,506.048 C248.184,505.087995 248.343998,504.220004 248.664,503.444 C248.984002,502.667996 249.403997,502.012003 249.924,501.476 C250.444003,500.939997 251.039997,500.528001 251.712,500.24 C252.384003,499.951999 253.079996,499.808 253.8,499.808 C254.648004,499.808 255.387997,499.951999 256.02,500.24 C256.652003,500.528001 257.179998,500.927997 257.604,501.44 C258.028002,501.952003 258.343999,502.555997 258.552,503.252 C258.760001,503.948003 258.864,504.703996 258.864,505.52 C258.864,505.840002 258.848,506.131999 258.816,506.396 C258.784,506.660001 258.752,506.863999 258.72,507.008 L251.592,507.008 C251.752001,507.920005 252.107997,508.579998 252.66,508.988 C253.212003,509.396002 253.887996,509.6 254.688,509.6 C255.536004,509.6 256.391996,509.336003 257.256,508.808 L258.432,510.944 C257.823997,511.360002 257.148004,511.687999 256.404,511.928 C255.659996,512.168001 254.928004,512.288 254.208,512.288 C253.359996,512.288 252.568004,512.148001 251.832,511.868 C251.095996,511.587999 250.456003,511.180003 249.912,510.644 C249.367997,510.107997 248.944002,509.456004 248.64,508.688 C248.335998,507.919996 248.184,507.040005 248.184,506.048 Z M255.864,504.824 C255.864,504.135997 255.712002,503.576002 255.408,503.144 C255.103998,502.711998 254.592004,502.496 253.872,502.496 C253.311997,502.496 252.820002,502.683998 252.396,503.06 C251.971998,503.436002 251.696001,504.023996 251.568,504.824 L255.864,504.824 Z M265.632,509.984 C266.608005,509.071995 267.499996,508.220004 268.308,507.428 C269.116004,506.635996 269.811997,505.892003 270.396,505.196 C270.980003,504.499997 271.435998,503.852003 271.764,503.252 C272.092002,502.651997 272.256,502.080003 272.256,501.536 C272.256,500.783996 272.064002,500.212002 271.68,499.82 C271.295998,499.427998 270.768003,499.232 270.096,499.232 C269.535997,499.232 269.040002,499.387998 268.608,499.7 C268.175998,500.012002 267.768002,500.375998 267.384,500.792 L265.464,498.896 C266.216004,498.095996 266.983996,497.492002 267.768,497.084 C268.552004,496.675998 269.487995,496.472 270.576,496.472 C271.328004,496.472 272.011997,496.587999 272.628,496.82 C273.244003,497.052001 273.775998,497.379998 274.224,497.804 C274.672002,498.228002 275.015999,498.735997 275.256,499.328 C275.496001,499.920003 275.616,500.583996 275.616,501.32 C275.616,501.960003 275.480001,502.611997 275.208,503.276 C274.935999,503.940003 274.572002,504.603997 274.116,505.268 C273.659998,505.932003 273.140003,506.595997 272.556,507.26 C271.971997,507.924003 271.368003,508.575997 270.744,509.216 C271.128002,509.168 271.555998,509.124 272.028,509.084 C272.500002,509.044 272.919998,509.024 273.288,509.024 L276.36,509.024 L276.36,512 L265.632,512 L265.632,509.984 Z M283.752,512.288 C282.935996,512.288 282.192003,512.116002 281.52,511.772 C280.847997,511.427998 280.276002,510.920003 279.804,510.248 C279.331998,509.575997 278.964001,508.744005 278.7,507.752 C278.435999,506.759995 278.304,505.616006 278.304,504.32 C278.304,503.023994 278.435999,501.888005 278.7,500.912 C278.964001,499.935995 279.331998,499.116003 279.804,498.452 C280.276002,497.787997 280.847997,497.292002 281.52,496.964 C282.192003,496.635998 282.935996,496.472 283.752,496.472 C284.568004,496.472 285.311997,496.635998 285.984,496.964 C286.656003,497.292002 287.227998,497.787997 287.7,498.452 C288.172002,499.116003 288.539999,499.935995 288.804,500.912 C289.068001,501.888005 289.2,503.023994 289.2,504.32 C289.2,505.616006 289.068001,506.759995 288.804,507.752 C288.539999,508.744005 288.172002,509.575997 287.7,510.248 C287.227998,510.920003 286.656003,511.427998 285.984,511.772 C285.311997,512.116002 284.568004,512.288 283.752,512.288 Z M283.752,509.552 C284.056002,509.552 284.335999,509.476001 284.592,509.324 C284.848001,509.171999 285.071999,508.896002 285.264,508.496 C285.456001,508.095998 285.603999,507.560003 285.708,506.888 C285.812001,506.215997 285.864,505.360005 285.864,504.32 C285.864,503.279995 285.812001,502.428003 285.708,501.764 C285.603999,501.099997 285.456001,500.580002 285.264,500.204 C285.071999,499.827998 284.848001,499.568001 284.592,499.424 C284.335999,499.279999 284.056002,499.208 283.752,499.208 C283.463999,499.208 283.192001,499.279999 282.936,499.424 C282.679999,499.568001 282.456001,499.827998 282.264,500.204 C282.071999,500.580002 281.920001,501.099997 281.808,501.764 C281.695999,502.428003 281.64,503.279995 281.64,504.32 C281.64,505.360005 281.695999,506.215997 281.808,506.888 C281.920001,507.560003 282.071999,508.095998 282.264,508.496 C282.456001,508.896002 282.679999,509.171999 282.936,509.324 C283.192001,509.476001 283.463999,509.552 283.752,509.552 Z M291.768,509.144 L295.08,509.144 L295.08,500.336 L292.224,500.336 L292.224,498.152 C293.056004,497.991999 293.759997,497.800001 294.336,497.576 C294.912003,497.351999 295.471997,497.080002 296.016,496.76 L298.608,496.76 L298.608,509.144 L301.464,509.144 L301.464,512 L291.768,512 L291.768,509.144 Z M306.576,512 C306.64,510.735994 306.755999,509.572005 306.924,508.508 C307.092001,507.443995 307.331998,506.428005 307.644,505.46 C307.956002,504.491995 308.355998,503.544005 308.844,502.616 C309.332002,501.687995 309.935996,500.728005 310.656,499.736 L303.816,499.736 L303.816,496.76 L314.424,496.76 L314.424,498.92 C313.543996,499.992005 312.836003,500.995995 312.3,501.932 C311.763997,502.868005 311.348001,503.835995 311.052,504.836 C310.755999,505.836005 310.544001,506.907994 310.416,508.052 C310.287999,509.196006 310.192,510.511993 310.128,512 L306.576,512 Z M38.16,524.256 L42.096,524.256 C44.5280122,524.256 46.3759937,524.927993 47.64,526.272 C48.9040063,527.616007 49.536,529.543987 49.536,532.056 C49.536,533.304006 49.3760016,534.419995 49.056,535.404 C48.7359984,536.388005 48.2640031,537.219997 47.64,537.9 C47.0159969,538.580003 46.2480046,539.099998 45.336,539.46 C44.4239954,539.820002 43.3760059,540 42.192,540 L38.16,540 L38.16,524.256 Z M41.952,538.368 C43.7920092,538.368 45.1719954,537.816006 46.092,536.712 C47.0120046,535.607994 47.472,534.05601 47.472,532.056 C47.472,530.05599 47.0120046,528.528005 46.092,527.472 C45.1719954,526.415995 43.7920092,525.888 41.952,525.888 L40.152,525.888 L40.152,538.368 L41.952,538.368 Z M52.728,528.336 L54.36,528.336 L54.528,530.448 L54.6,530.448 C55.000002,529.711996 55.4839972,529.128002 56.052,528.696 C56.6200028,528.263998 57.2399966,528.048 57.912,528.048 C58.3760023,528.048 58.7919982,528.127999 59.16,528.288 L58.776,530.016 C58.583999,529.952 58.4080008,529.904 58.248,529.872 C58.0879992,529.84 57.8880012,529.824 57.648,529.824 C57.1519975,529.824 56.6360027,530.023998 56.1,530.424 C55.5639973,530.824002 55.096002,531.519995 54.696,532.512 L54.696,540 L52.728,540 L52.728,528.336 Z M60.888,528.336 L62.88,528.336 L62.88,535.464 C62.88,536.568006 63.0519983,537.363998 63.396,537.852 C63.7400017,538.340002 64.2959962,538.584 65.064,538.584 C65.672003,538.584 66.2079977,538.428002 66.672,538.116 C67.1360023,537.803998 67.6479972,537.304003 68.208,536.616 L68.208,528.336 L70.176,528.336 L70.176,540 L68.544,540 L68.376,538.176 L68.304,538.176 C67.7599973,538.816003 67.188003,539.327998 66.588,539.712 C65.987997,540.096002 65.2800041,540.288 64.464,540.288 C63.2159938,540.288 62.3080028,539.904004 61.74,539.136 C61.1719972,538.367996 60.888,537.232008 60.888,535.728 L60.888,528.336 Z M76.08,540.984 L76.08,544.92 L74.112,544.92 L74.112,528.336 L75.744,528.336 L75.912,529.68 L75.984,529.68 C76.5120026,529.231998 77.0919968,528.848002 77.724,528.528 C78.3560032,528.207998 79.0159966,528.048 79.704,528.048 C80.4560038,528.048 81.1199971,528.187999 81.696,528.468 C82.2720029,528.748001 82.7519981,529.147997 83.136,529.668 C83.5200019,530.188003 83.811999,530.811996 84.012,531.54 C84.212001,532.268004 84.312,533.087995 84.312,534 C84.312,534.992005 84.1760014,535.875996 83.904,536.652 C83.6319986,537.428004 83.2640023,538.087997 82.8,538.632 C82.3359977,539.176003 81.800003,539.587999 81.192,539.868 C80.583997,540.148001 79.9440034,540.288 79.272,540.288 C78.7279973,540.288 78.1880027,540.168001 77.652,539.928 C77.1159973,539.687999 76.5760027,539.360002 76.032,538.944 L76.08,540.984 Z M76.08,537.408 C76.6080026,537.856002 77.1199975,538.171999 77.616,538.356 C78.1120025,538.540001 78.5519981,538.632 78.936,538.632 C79.4160024,538.632 79.859998,538.524001 80.268,538.308 C80.676002,538.091999 81.0279985,537.788002 81.324,537.396 C81.6200015,537.003998 81.8519992,536.520003 82.02,535.944 C82.1880008,535.367997 82.272,534.720004 82.272,534 C82.272,533.359997 82.2160006,532.776003 82.104,532.248 C81.9919994,531.719997 81.8120012,531.268002 81.564,530.892 C81.3159988,530.515998 80.996002,530.224001 80.604,530.016 C80.211998,529.807999 79.7440027,529.704 79.2,529.704 C78.7039975,529.704 78.2040025,529.839999 77.7,530.112 C77.1959975,530.384001 76.6560029,530.775997 76.08,531.288 L76.08,537.408 Z M86.856,536.976 C86.856,535.695994 87.4279943,534.716003 88.572,534.036 C89.7160057,533.355997 91.5359875,532.880001 94.032,532.608 C94.032,532.239998 93.9960004,531.880002 93.924,531.528 C93.8519996,531.175998 93.7240009,530.864001 93.54,530.592 C93.3559991,530.319999 93.1120015,530.100001 92.808,529.932 C92.5039985,529.763999 92.1120024,529.68 91.632,529.68 C90.9439966,529.68 90.3080029,529.807999 89.724,530.064 C89.1399971,530.320001 88.6160023,530.607998 88.152,530.928 L87.36,529.56 C87.9040027,529.207998 88.5679961,528.868002 89.352,528.54 C90.1360039,528.211998 90.9999953,528.048 91.944,528.048 C93.3680071,528.048 94.3999968,528.483996 95.04,529.356 C95.6800032,530.228004 96,531.391993 96,532.848 L96,540 L94.368,540 L94.2,538.608 L94.152,538.608 C93.5919972,539.072002 92.9880032,539.467998 92.34,539.796 C91.6919968,540.124002 91.0080036,540.288 90.288,540.288 C89.295995,540.288 88.4760032,540.000003 87.828,539.424 C87.1799968,538.847997 86.856,538.032005 86.856,536.976 Z M88.8,536.832 C88.8,537.504003 88.995998,537.983999 89.388,538.272 C89.780002,538.560001 90.2639971,538.704 90.84,538.704 C91.4000028,538.704 91.9319975,538.572001 92.436,538.308 C92.9400025,538.043999 93.4719972,537.656003 94.032,537.144 L94.032,533.904 C93.0559951,534.032001 92.2320034,534.183999 91.56,534.36 C90.8879966,534.536001 90.348002,534.743999 89.94,534.984 C89.531998,535.224001 89.2400009,535.499998 89.064,535.812 C88.8879991,536.124002 88.8,536.463998 88.8,536.832 Z M99.72,522.912 L101.688,522.912 L101.688,537.792 C101.688,538.112002 101.743999,538.335999 101.856,538.464 C101.968001,538.592001 102.095999,538.656 102.24,538.656 L102.42,538.656 C102.476,538.656 102.559999,538.64 102.672,538.608 L102.936,540.096 C102.807999,540.16 102.656001,540.208 102.48,540.24 C102.303999,540.272 102.080001,540.288 101.808,540.288 C101.055996,540.288 100.520002,540.064002 100.2,539.616 C99.8799984,539.167998 99.72,538.512004 99.72,537.648 L99.72,522.912 Z M110.88,524.256 L114.816,524.256 C117.248012,524.256 119.095994,524.927993 120.36,526.272 C121.624006,527.616007 122.256,529.543987 122.256,532.056 C122.256,533.304006 122.096002,534.419995 121.776,535.404 C121.455998,536.388005 120.984003,537.219997 120.36,537.9 C119.735997,538.580003 118.968005,539.099998 118.056,539.46 C117.143995,539.820002 116.096006,540 114.912,540 L110.88,540 L110.88,524.256 Z M114.672,538.368 C116.512009,538.368 117.891995,537.816006 118.812,536.712 C119.732005,535.607994 120.192,534.05601 120.192,532.056 C120.192,530.05599 119.732005,528.528005 118.812,527.472 C117.891995,526.415995 116.512009,525.888 114.672,525.888 L112.872,525.888 L112.872,538.368 L114.672,538.368 Z M126.456,525.936 C126.071998,525.936 125.748001,525.816001 125.484,525.576 C125.219999,525.335999 125.088,525.032002 125.088,524.664 C125.088,524.279998 125.219999,523.972001 125.484,523.74 C125.748001,523.507999 126.071998,523.392 126.456,523.392 C126.840002,523.392 127.163999,523.507999 127.428,523.74 C127.692001,523.972001 127.824,524.279998 127.824,524.664 C127.824,525.032002 127.692001,525.335999 127.428,525.576 C127.163999,525.816001 126.840002,525.936 126.456,525.936 Z M125.448,528.336 L127.416,528.336 L127.416,540 L125.448,540 L125.448,528.336 Z M129.672,528.336 L131.712,528.336 L133.92,534.96 C134.096001,535.536003 134.275999,536.111997 134.46,536.688 C134.644001,537.264003 134.823999,537.831997 135,538.392 L135.096,538.392 C135.272001,537.831997 135.447999,537.264003 135.624,536.688 L136.152,534.96 L138.36,528.336 L140.304,528.336 L136.176,540 L133.872,540 L129.672,528.336 Z M141.696,534.192 C141.696,533.231995 141.843999,532.372004 142.14,531.612 C142.436001,530.851996 142.827998,530.208003 143.316,529.68 C143.804002,529.151997 144.359997,528.748001 144.984,528.468 C145.608003,528.187999 146.255997,528.048 146.928,528.048 C147.664004,528.048 148.323997,528.175999 148.908,528.432 C149.492003,528.688001 149.979998,529.055998 150.372,529.536 C150.764002,530.016002 151.063999,530.591997 151.272,531.264 C151.480001,531.936003 151.584,532.687996 151.584,533.52 C151.584,533.952002 151.56,534.311999 151.512,534.6 L143.64,534.6 C143.72,535.864006 144.107997,536.863996 144.804,537.6 C145.500003,538.336004 146.407994,538.704 147.528,538.704 C148.088003,538.704 148.603998,538.620001 149.076,538.452 C149.548002,538.283999 149.999998,538.064001 150.432,537.792 L151.128,539.088 C150.615997,539.408002 150.048003,539.687999 149.424,539.928 C148.799997,540.168001 148.088004,540.288 147.288,540.288 C146.503996,540.288 145.772003,540.148001 145.092,539.868 C144.411997,539.587999 143.820003,539.188003 143.316,538.668 C142.811997,538.147997 142.416001,537.512004 142.128,536.76 C141.839999,536.007996 141.696,535.152005 141.696,534.192 Z M149.856,533.304 C149.856,532.103994 149.604003,531.188003 149.1,530.556 C148.595997,529.923997 147.888005,529.608 146.976,529.608 C146.559998,529.608 146.164002,529.691999 145.788,529.86 C145.411998,530.028001 145.072002,530.267998 144.768,530.58 C144.463998,530.892002 144.212001,531.275998 144.012,531.732 C143.811999,532.188002 143.68,532.711997 143.616,533.304 L149.856,533.304 Z M154.464,528.336 L156.096,528.336 L156.264,530.448 L156.336,530.448 C156.736002,529.711996 157.219997,529.128002 157.788,528.696 C158.356003,528.263998 158.975997,528.048 159.648,528.048 C160.112002,528.048 160.527998,528.127999 160.896,528.288 L160.512,530.016 C160.319999,529.952 160.144001,529.904 159.984,529.872 C159.823999,529.84 159.624001,529.824 159.384,529.824 C158.887998,529.824 158.372003,530.023998 157.836,530.424 C157.299997,530.824002 156.832002,531.519995 156.432,532.512 L156.432,540 L154.464,540 L154.464,528.336 Z M162.48,537.36 C162.992003,537.776002 163.515997,538.111999 164.052,538.368 C164.588003,538.624001 165.207996,538.752 165.912,538.752 C166.680004,538.752 167.255998,538.576002 167.64,538.224 C168.024002,537.871998 168.216,537.440003 168.216,536.928 C168.216,536.623998 168.136001,536.360001 167.976,536.136 C167.815999,535.911999 167.612001,535.716001 167.364,535.548 C167.115999,535.379999 166.832002,535.232001 166.512,535.104 L165.552,534.72 C165.135998,534.575999 164.720002,534.412001 164.304,534.228 C163.887998,534.043999 163.516002,533.820001 163.188,533.556 C162.859998,533.291999 162.592001,532.984002 162.384,532.632 C162.175999,532.279998 162.072,531.856002 162.072,531.36 C162.072,530.895998 162.163999,530.460002 162.348,530.052 C162.532001,529.643998 162.795998,529.292001 163.14,528.996 C163.484002,528.699999 163.903998,528.468001 164.4,528.3 C164.896002,528.131999 165.455997,528.048 166.08,528.048 C166.816004,528.048 167.491997,528.175999 168.108,528.432 C168.724003,528.688001 169.255998,528.999998 169.704,529.368 L168.768,530.616 C168.367998,530.311998 167.952002,530.064001 167.52,529.872 C167.087998,529.679999 166.616003,529.584 166.104,529.584 C165.367996,529.584 164.828002,529.751998 164.484,530.088 C164.139998,530.424002 163.968,530.815998 163.968,531.264 C163.968,531.536001 164.039999,531.771999 164.184,531.972 C164.328001,532.172001 164.519999,532.347999 164.76,532.5 C165.000001,532.652001 165.275998,532.787999 165.588,532.908 C165.900002,533.028001 166.223998,533.151999 166.56,533.28 C166.976002,533.440001 167.395998,533.607999 167.82,533.784 C168.244002,533.960001 168.623998,534.179999 168.96,534.444 C169.296002,534.708001 169.571999,535.031998 169.788,535.416 C170.004001,535.800002 170.112,536.263997 170.112,536.808 C170.112,537.288002 170.020001,537.735998 169.836,538.152 C169.651999,538.568002 169.380002,538.935998 169.02,539.256 C168.659998,539.576002 168.212003,539.827999 167.676,540.012 C167.139997,540.196001 166.528003,540.288 165.84,540.288 C165.007996,540.288 164.216004,540.136002 163.464,539.832 C162.711996,539.527998 162.056003,539.144002 161.496,538.68 L162.48,537.36 Z M173.856,525.936 C173.471998,525.936 173.148001,525.816001 172.884,525.576 C172.619999,525.335999 172.488,525.032002 172.488,524.664 C172.488,524.279998 172.619999,523.972001 172.884,523.74 C173.148001,523.507999 173.471998,523.392 173.856,523.392 C174.240002,523.392 174.563999,523.507999 174.828,523.74 C175.092001,523.972001 175.224,524.279998 175.224,524.664 C175.224,525.032002 175.092001,525.335999 174.828,525.576 C174.563999,525.816001 174.240002,525.936 173.856,525.936 Z M172.848,528.336 L174.816,528.336 L174.816,540 L172.848,540 L172.848,528.336 Z M179.088,529.944 L177.36,529.944 L177.36,528.456 L179.184,528.336 L179.424,525.072 L181.08,525.072 L181.08,528.336 L184.224,528.336 L184.224,529.944 L181.08,529.944 L181.08,536.424 C181.08,537.144004 181.211999,537.699998 181.476,538.092 C181.740001,538.484002 182.207997,538.68 182.88,538.68 C183.088001,538.68 183.311999,538.648 183.552,538.584 C183.792001,538.52 184.007999,538.448 184.2,538.368 L184.584,539.856 C184.263998,539.968001 183.916002,540.068 183.54,540.156 C183.163998,540.244 182.792002,540.288 182.424,540.288 C181.799997,540.288 181.276002,540.192001 180.852,540 C180.427998,539.807999 180.084001,539.544002 179.82,539.208 C179.555999,538.871998 179.368001,538.464002 179.256,537.984 C179.143999,537.503998 179.088,536.976003 179.088,536.4 L179.088,529.944 Z M186.072,543.216 L186.504,543.324 C186.664001,543.364 186.815999,543.384 186.96,543.384 C187.632003,543.384 188.179998,543.148002 188.604,542.676 C189.028002,542.203998 189.359999,541.608004 189.6,540.888 L189.864,540.024 L185.184,528.336 L187.224,528.336 L189.6,534.792 C189.776001,535.304003 189.963999,535.843997 190.164,536.412 C190.364001,536.980003 190.551999,537.535997 190.728,538.08 L190.824,538.08 C191.000001,537.551997 191.167999,537.000003 191.328,536.424 C191.488001,535.847997 191.647999,535.304003 191.808,534.792 L193.896,528.336 L195.816,528.336 L191.424,540.96 C191.215999,541.536003 190.984001,542.071998 190.728,542.568 C190.471999,543.064002 190.168002,543.491998 189.816,543.852 C189.463998,544.212002 189.064002,544.495999 188.616,544.704 C188.167998,544.912001 187.648003,545.016 187.056,545.016 C186.783999,545.016 186.536001,544.996 186.312,544.956 C186.087999,544.916 185.880001,544.856 185.688,544.776 L186.072,543.216 Z M203.64,535.8 C203.64,536.232002 203.719999,536.627998 203.88,536.988 C204.040001,537.348002 204.259999,537.655999 204.54,537.912 C204.820001,538.168001 205.147998,538.363999 205.524,538.5 C205.900002,538.636001 206.303998,538.704 206.736,538.704 C207.280003,538.704 207.799998,538.592001 208.296,538.368 C208.792002,538.143999 209.271998,537.832002 209.736,537.432 C208.967996,536.759997 208.228004,536.024004 207.516,535.224 C206.803996,534.423996 206.168003,533.600004 205.608,532.752 C205.047997,533.200002 204.580002,533.667998 204.204,534.156 C203.827998,534.644002 203.64,535.191997 203.64,535.8 Z M205.488,527.664 C205.488,528.096002 205.555999,528.543998 205.692,529.008 C205.828001,529.472002 206.007999,529.943998 206.232,530.424 C206.584002,530.183999 206.923998,529.940001 207.252,529.692 C207.580002,529.443999 207.867999,529.188001 208.116,528.924 C208.364001,528.659999 208.559999,528.380001 208.704,528.084 C208.848001,527.787999 208.92,527.464002 208.92,527.112 C208.92,526.647998 208.804001,526.244002 208.572,525.9 C208.339999,525.555998 207.960003,525.384 207.432,525.384 C206.839997,525.384 206.368002,525.599998 206.016,526.032 C205.663998,526.464002 205.488,527.007997 205.488,527.664 Z M214.68,540.288 C214.119997,540.127999 213.536003,539.900001 212.928,539.604 C212.319997,539.307999 211.696003,538.936002 211.056,538.488 C210.447997,539.032003 209.772004,539.467998 209.028,539.796 C208.283996,540.124002 207.448005,540.288 206.52,540.288 C205.799996,540.288 205.148003,540.180001 204.564,539.964 C203.979997,539.747999 203.476002,539.448002 203.052,539.064 C202.627998,538.679998 202.300001,538.220003 202.068,537.684 C201.835999,537.147997 201.72,536.560003 201.72,535.92 C201.72,535.391997 201.803999,534.912002 201.972,534.48 C202.140001,534.047998 202.367999,533.648002 202.656,533.28 C202.944001,532.911998 203.275998,532.572002 203.652,532.26 C204.028002,531.947998 204.415998,531.656001 204.816,531.384 C204.495998,530.727997 204.244001,530.092003 204.06,529.476 C203.875999,528.859997 203.784,528.264003 203.784,527.688 C203.784,527.159997 203.871999,526.672002 204.048,526.224 C204.224001,525.775998 204.471998,525.384002 204.792,525.048 C205.112002,524.711998 205.495998,524.448001 205.944,524.256 C206.392002,524.063999 206.887997,523.968 207.432,523.968 C208.408005,523.968 209.167997,524.255997 209.712,524.832 C210.256003,525.408003 210.528,526.159995 210.528,527.088 C210.528,527.600003 210.424001,528.071998 210.216,528.504 C210.007999,528.936002 209.736002,529.339998 209.4,529.716 C209.063998,530.092002 208.684002,530.443998 208.26,530.772 C207.835998,531.100002 207.408002,531.423998 206.976,531.744 C207.488003,532.560004 208.091997,533.343996 208.788,534.096 C209.484003,534.848004 210.207996,535.535997 210.96,536.16 C211.440002,535.503997 211.867998,534.792004 212.244,534.024 C212.620002,533.255996 212.927999,532.416005 213.168,531.504 L215.016,531.504 C214.695998,532.544005 214.312002,533.535995 213.864,534.48 C213.415998,535.424005 212.880003,536.311996 212.256,537.144 C212.800003,537.512002 213.319998,537.823999 213.816,538.08 C214.312002,538.336001 214.775998,538.527999 215.208,538.656 L214.68,540.288 Z M222.576,524.256 L224.568,524.256 L224.568,540 L222.576,540 L222.576,524.256 Z M228.696,528.336 L230.328,528.336 L230.496,530.016 L230.568,530.016 C231.128003,529.455997 231.715997,528.988002 232.332,528.612 C232.948003,528.235998 233.663996,528.048 234.48,528.048 C235.712006,528.048 236.611997,528.431996 237.18,529.2 C237.748003,529.968004 238.032,531.103992 238.032,532.608 L238.032,540 L236.064,540 L236.064,532.872 C236.064,531.767994 235.888002,530.972002 235.536,530.484 C235.183998,529.995998 234.624004,529.752 233.856,529.752 C233.247997,529.752 232.712002,529.903998 232.248,530.208 C231.783998,530.512002 231.256003,530.959997 230.664,531.552 L230.664,540 L228.696,540 L228.696,528.336 Z M240.96,534.192 C240.96,533.215995 241.111998,532.348004 241.416,531.588 C241.720002,530.827996 242.127997,530.184003 242.64,529.656 C243.152003,529.127997 243.747997,528.728001 244.428,528.456 C245.108003,528.183999 245.823996,528.048 246.576,528.048 C247.344004,528.048 248.003997,528.187999 248.556,528.468 C249.108003,528.748001 249.583998,529.071998 249.984,529.44 L249,530.712 C248.647998,530.407998 248.284002,530.160001 247.908,529.968 C247.531998,529.775999 247.112002,529.68 246.648,529.68 C246.119997,529.68 245.632002,529.787999 245.184,530.004 C244.735998,530.220001 244.352002,530.527998 244.032,530.928 C243.711998,531.328002 243.460001,531.803997 243.276,532.356 C243.091999,532.908003 243,533.519997 243,534.192 C243,534.864003 243.087999,535.471997 243.264,536.016 C243.440001,536.560003 243.683998,537.027998 243.996,537.42 C244.308002,537.812002 244.687998,538.115999 245.136,538.332 C245.584002,538.548001 246.071997,538.656 246.6,538.656 C247.160003,538.656 247.667998,538.540001 248.124,538.308 C248.580002,538.075999 248.983998,537.800002 249.336,537.48 L250.224,538.776 C249.695997,539.240002 249.108003,539.607999 248.46,539.88 C247.811997,540.152001 247.136004,540.288 246.432,540.288 C245.663996,540.288 244.944003,540.152001 244.272,539.88 C243.599997,539.607999 243.020002,539.212003 242.532,538.692 C242.043998,538.171997 241.660001,537.532004 241.38,536.772 C241.099999,536.011996 240.96,535.152005 240.96,534.192 Z M252.768,522.912 L254.736,522.912 L254.736,537.792 C254.736,538.112002 254.791999,538.335999 254.904,538.464 C255.016001,538.592001 255.143999,538.656 255.288,538.656 L255.468,538.656 C255.524,538.656 255.607999,538.64 255.72,538.608 L255.984,540.096 C255.855999,540.16 255.704001,540.208 255.528,540.24 C255.351999,540.272 255.128001,540.288 254.856,540.288 C254.103996,540.288 253.568002,540.064002 253.248,539.616 C252.927998,539.167998 252.768,538.512004 252.768,537.648 L252.768,522.912 Z M258.72,528.336 L260.712,528.336 L260.712,535.464 C260.712,536.568006 260.883998,537.363998 261.228,537.852 C261.572002,538.340002 262.127996,538.584 262.896,538.584 C263.504003,538.584 264.039998,538.428002 264.504,538.116 C264.968002,537.803998 265.479997,537.304003 266.04,536.616 L266.04,528.336 L268.008,528.336 L268.008,540 L266.376,540 L266.208,538.176 L266.136,538.176 C265.591997,538.816003 265.020003,539.327998 264.42,539.712 C263.819997,540.096002 263.112004,540.288 262.296,540.288 C261.047994,540.288 260.140003,539.904004 259.572,539.136 C259.003997,538.367996 258.72,537.232008 258.72,535.728 L258.72,528.336 Z M271.632,537.36 C272.144003,537.776002 272.667997,538.111999 273.204,538.368 C273.740003,538.624001 274.359996,538.752 275.064,538.752 C275.832004,538.752 276.407998,538.576002 276.792,538.224 C277.176002,537.871998 277.368,537.440003 277.368,536.928 C277.368,536.623998 277.288001,536.360001 277.128,536.136 C276.967999,535.911999 276.764001,535.716001 276.516,535.548 C276.267999,535.379999 275.984002,535.232001 275.664,535.104 L274.704,534.72 C274.287998,534.575999 273.872002,534.412001 273.456,534.228 C273.039998,534.043999 272.668002,533.820001 272.34,533.556 C272.011998,533.291999 271.744001,532.984002 271.536,532.632 C271.327999,532.279998 271.224,531.856002 271.224,531.36 C271.224,530.895998 271.315999,530.460002 271.5,530.052 C271.684001,529.643998 271.947998,529.292001 272.292,528.996 C272.636002,528.699999 273.055998,528.468001 273.552,528.3 C274.048002,528.131999 274.607997,528.048 275.232,528.048 C275.968004,528.048 276.643997,528.175999 277.26,528.432 C277.876003,528.688001 278.407998,528.999998 278.856,529.368 L277.92,530.616 C277.519998,530.311998 277.104002,530.064001 276.672,529.872 C276.239998,529.679999 275.768003,529.584 275.256,529.584 C274.519996,529.584 273.980002,529.751998 273.636,530.088 C273.291998,530.424002 273.12,530.815998 273.12,531.264 C273.12,531.536001 273.191999,531.771999 273.336,531.972 C273.480001,532.172001 273.671999,532.347999 273.912,532.5 C274.152001,532.652001 274.427998,532.787999 274.74,532.908 C275.052002,533.028001 275.375998,533.151999 275.712,533.28 C276.128002,533.440001 276.547998,533.607999 276.972,533.784 C277.396002,533.960001 277.775998,534.179999 278.112,534.444 C278.448002,534.708001 278.723999,535.031998 278.94,535.416 C279.156001,535.800002 279.264,536.263997 279.264,536.808 C279.264,537.288002 279.172001,537.735998 278.988,538.152 C278.803999,538.568002 278.532002,538.935998 278.172,539.256 C277.811998,539.576002 277.364003,539.827999 276.828,540.012 C276.291997,540.196001 275.680003,540.288 274.992,540.288 C274.159996,540.288 273.368004,540.136002 272.616,539.832 C271.863996,539.527998 271.208003,539.144002 270.648,538.68 L271.632,537.36 Z M283.008,525.936 C282.623998,525.936 282.300001,525.816001 282.036,525.576 C281.771999,525.335999 281.64,525.032002 281.64,524.664 C281.64,524.279998 281.771999,523.972001 282.036,523.74 C282.300001,523.507999 282.623998,523.392 283.008,523.392 C283.392002,523.392 283.715999,523.507999 283.98,523.74 C284.244001,523.972001 284.376,524.279998 284.376,524.664 C284.376,525.032002 284.244001,525.335999 283.98,525.576 C283.715999,525.816001 283.392002,525.936 283.008,525.936 Z M282,528.336 L283.968,528.336 L283.968,540 L282,540 L282,528.336 Z M287.04,534.192 C287.04,533.215995 287.187999,532.348004 287.484,531.588 C287.780001,530.827996 288.175998,530.184003 288.672,529.656 C289.168002,529.127997 289.739997,528.728001 290.388,528.456 C291.036003,528.183999 291.719996,528.048 292.44,528.048 C293.160004,528.048 293.843997,528.183999 294.492,528.456 C295.140003,528.728001 295.711998,529.127997 296.208,529.656 C296.704002,530.184003 297.099999,530.827996 297.396,531.588 C297.692001,532.348004 297.84,533.215995 297.84,534.192 C297.84,535.152005 297.692001,536.011996 297.396,536.772 C297.099999,537.532004 296.704002,538.171997 296.208,538.692 C295.711998,539.212003 295.140003,539.607999 294.492,539.88 C293.843997,540.152001 293.160004,540.288 292.44,540.288 C291.719996,540.288 291.036003,540.152001 290.388,539.88 C289.739997,539.607999 289.168002,539.212003 288.672,538.692 C288.175998,538.171997 287.780001,537.532004 287.484,536.772 C287.187999,536.011996 287.04,535.152005 287.04,534.192 Z M289.08,534.192 C289.08,534.864003 289.159999,535.471997 289.32,536.016 C289.480001,536.560003 289.707999,537.027998 290.004,537.42 C290.300001,537.812002 290.655998,538.115999 291.072,538.332 C291.488002,538.548001 291.943998,538.656 292.44,538.656 C292.936002,538.656 293.391998,538.548001 293.808,538.332 C294.224002,538.115999 294.579999,537.812002 294.876,537.42 C295.172001,537.027998 295.399999,536.560003 295.56,536.016 C295.720001,535.471997 295.8,534.864003 295.8,534.192 C295.8,533.519997 295.720001,532.908003 295.56,532.356 C295.399999,531.803997 295.172001,531.328002 294.876,530.928 C294.579999,530.527998 294.224002,530.220001 293.808,530.004 C293.391998,529.787999 292.936002,529.68 292.44,529.68 C291.943998,529.68 291.488002,529.787999 291.072,530.004 C290.655998,530.220001 290.300001,530.527998 290.004,530.928 C289.707999,531.328002 289.480001,531.803997 289.32,532.356 C289.159999,532.908003 289.08,533.519997 289.08,534.192 Z M300.912,528.336 L302.544,528.336 L302.712,530.016 L302.784,530.016 C303.344003,529.455997 303.931997,528.988002 304.548,528.612 C305.164003,528.235998 305.879996,528.048 306.696,528.048 C307.928006,528.048 308.827997,528.431996 309.396,529.2 C309.964003,529.968004 310.248,531.103992 310.248,532.608 L310.248,540 L308.28,540 L308.28,532.872 C308.28,531.767994 308.104002,530.972002 307.752,530.484 C307.399998,529.995998 306.840004,529.752 306.072,529.752 C305.463997,529.752 304.928002,529.903998 304.464,530.208 C303.999998,530.512002 303.472003,530.959997 302.88,531.552 L302.88,540 L300.912,540 L300.912,528.336 Z M37.176,563.08 C37.176,561.399992 37.4639971,559.876007 38.04,558.508 C38.6160029,557.139993 39.3959951,555.968005 40.38,554.992 C41.3640049,554.015995 42.5119934,553.264003 43.824,552.736 C45.1360066,552.207997 46.5279926,551.944 48,551.944 C49.2960065,551.944 50.4679948,552.151998 51.516,552.568 C52.5640052,552.984002 53.4559963,553.571996 54.192,554.332 C54.9280037,555.092004 55.495998,555.995995 55.896,557.044 C56.296002,558.092005 56.496,559.239994 56.496,560.488 C56.496,561.592006 56.3280017,562.555996 55.992,563.38 C55.6559983,564.204004 55.2240026,564.891997 54.696,565.444 C54.1679974,565.996003 53.5800032,566.407999 52.932,566.68 C52.2839968,566.952001 51.6480031,567.088 51.024,567.088 C50.3359966,567.088 49.7360026,566.928002 49.224,566.608 C48.7119974,566.287998 48.3920006,565.840003 48.264,565.264 L48.216,565.264 C47.8799983,565.728002 47.4400027,566.107999 46.896,566.404 C46.3519973,566.700001 45.8320025,566.848 45.336,566.848 C44.3759952,566.848 43.6080029,566.524003 43.032,565.876 C42.4559971,565.227997 42.168,564.352006 42.168,563.248 C42.168,562.511996 42.2919988,561.792004 42.54,561.088 C42.7880012,560.383996 43.1279978,559.756003 43.56,559.204 C43.9920022,558.651997 44.503997,558.208002 45.096,557.872 C45.688003,557.535998 46.3279966,557.368 47.016,557.368 C47.416002,557.368 47.7679985,557.459999 48.072,557.644 C48.3760015,557.828001 48.631999,558.135998 48.84,558.568 L48.888,558.568 L49.224,557.56 L51.408,557.56 L50.304,562.84 C49.9679983,564.216007 50.3359946,564.904 51.408,564.904 C51.7600018,564.904 52.1079983,564.804001 52.452,564.604 C52.7960017,564.403999 53.1039986,564.116002 53.376,563.74 C53.6480014,563.363998 53.8639992,562.908003 54.024,562.372 C54.1840008,561.835997 54.264,561.240003 54.264,560.584 C54.264,559.719996 54.1440012,558.896004 53.904,558.112 C53.6639988,557.327996 53.2800026,556.636003 52.752,556.036 C52.2239974,555.435997 51.5440042,554.960002 50.712,554.608 C49.8799958,554.255998 48.8800058,554.08 47.712,554.08 C46.6879949,554.08 45.6880049,554.291998 44.712,554.716 C43.7359951,555.140002 42.8640038,555.739996 42.096,556.516 C41.3279962,557.292004 40.7120023,558.227995 40.248,559.324 C39.7839977,560.420005 39.552,561.639993 39.552,562.984 C39.552,564.168006 39.7399981,565.199996 40.116,566.08 C40.4920019,566.960004 41.0039968,567.687997 41.652,568.264 C42.3000032,568.840003 43.0439958,569.271999 43.884,569.56 C44.7240042,569.848001 45.6159953,569.992 46.56,569.992 C47.1840031,569.992 47.8199968,569.904001 48.468,569.728 C49.1160032,569.551999 49.6959974,569.328001 50.208,569.056 L50.976,570.976 C50.2399963,571.376002 49.4880038,571.667999 48.72,571.852 C47.9519962,572.036001 47.1360043,572.128 46.272,572.128 C45.071994,572.128 43.9240055,571.944002 42.828,571.576 C41.7319945,571.207998 40.7640042,570.648004 39.924,569.896 C39.0839958,569.143996 38.4160025,568.204006 37.92,567.076 C37.4239975,565.947994 37.176,564.616008 37.176,563.08 Z M44.832,563.032 C44.832,564.104005 45.2479958,564.64 46.08,564.64 C46.3360013,564.64 46.5879988,564.560001 46.836,564.4 C47.0840012,564.239999 47.3599985,563.960002 47.664,563.56 L48.24,560.32 C47.9999988,559.855998 47.6320025,559.624 47.136,559.624 C46.7679982,559.624 46.4440014,559.735999 46.164,559.96 C45.8839986,560.184001 45.644001,560.463998 45.444,560.8 C45.243999,561.136002 45.0920005,561.503998 44.988,561.904 C44.8839995,562.304002 44.832,562.679998 44.832,563.032 Z M58.608,562.048 C58.608,561.071995 58.7479986,560.200004 59.028,559.432 C59.3080014,558.663996 59.6759977,558.012003 60.132,557.476 C60.5880023,556.939997 61.115997,556.528001 61.716,556.24 C62.316003,555.951999 62.9279969,555.808 63.552,555.808 C64.2240034,555.808 64.7759978,555.919999 65.208,556.144 C65.6400022,556.368001 66.0639979,556.671998 66.48,557.056 L66.336,555.232 L66.336,551.176 L69.864,551.176 L69.864,568 L66.984,568 L66.744,566.824 L66.648,566.824 C66.2319979,567.240002 65.7440028,567.587999 65.184,567.868 C64.6239972,568.148001 64.0560029,568.288 63.48,568.288 C62.7439963,568.288 62.076003,568.144001 61.476,567.856 C60.875997,567.567999 60.3640021,567.156003 59.94,566.62 C59.5159979,566.083997 59.1880012,565.432004 58.956,564.664 C58.7239988,563.895996 58.608,563.024005 58.608,562.048 Z M62.232,562 C62.232,563.184006 62.4199981,564.047997 62.796,564.592 C63.1720019,565.136003 63.7039966,565.408 64.392,565.408 C64.7760019,565.408 65.1239984,565.328001 65.436,565.168 C65.7480016,565.007999 66.0479986,564.728002 66.336,564.328 L66.336,559.456 C66.0159984,559.167999 65.6880017,558.968001 65.352,558.856 C65.0159983,558.743999 64.6880016,558.688 64.368,558.688 C63.8079972,558.688 63.3120022,558.955997 62.88,559.492 C62.4479978,560.028003 62.232,560.863994 62.232,562 Z M72.984,556.096 L75.864,556.096 L76.104,558.184 L76.2,558.184 C76.6320022,557.367996 77.151997,556.768002 77.76,556.384 C78.368003,555.999998 78.975997,555.808 79.584,555.808 C79.9200017,555.808 80.1959989,555.828 80.412,555.868 C80.6280011,555.908 80.8239991,555.968 81,556.048 L80.424,559.096 C80.1999989,559.032 79.992001,558.984 79.8,558.952 C79.607999,558.92 79.3840013,558.904 79.128,558.904 C78.6799978,558.904 78.2120024,559.063998 77.724,559.384 C77.2359976,559.704002 76.8320016,560.271996 76.512,561.088 L76.512,568 L72.984,568 L72.984,556.096 Z M82.416,556.096 L85.944,556.096 L85.944,563.032 C85.944,563.896004 86.0639988,564.487998 86.304,564.808 C86.5440012,565.128002 86.9199974,565.288 87.432,565.288 C87.8800022,565.288 88.2559985,565.184001 88.56,564.976 C88.8640015,564.767999 89.1919982,564.432002 89.544,563.968 L89.544,556.096 L93.072,556.096 L93.072,568 L90.192,568 L89.928,566.344 L89.856,566.344 C89.3439974,566.952003 88.7960029,567.427998 88.212,567.772 C87.6279971,568.116002 86.9280041,568.288 86.112,568.288 C84.8159935,568.288 83.8760029,567.864004 83.292,567.016 C82.7079971,566.167996 82.416,564.992008 82.416,563.488 L82.416,556.096 Z M99.696,568.936 L99.696,572.416 L96.168,572.416 L96.168,556.096 L99.048,556.096 L99.288,557.272 L99.384,557.272 C99.8480023,556.855998 100.371997,556.508001 100.956,556.228 C101.540003,555.947999 102.143997,555.808 102.768,555.808 C103.488004,555.808 104.135997,555.951999 104.712,556.24 C105.288003,556.528001 105.775998,556.935997 106.176,557.464 C106.576002,557.992003 106.883999,558.627996 107.1,559.372 C107.316001,560.116004 107.424,560.943995 107.424,561.856 C107.424,562.880005 107.284001,563.787996 107.004,564.58 C106.723999,565.372004 106.348002,566.043997 105.876,566.596 C105.403998,567.148003 104.868003,567.567999 104.268,567.856 C103.667997,568.144001 103.048003,568.288 102.408,568.288 C101.895997,568.288 101.400002,568.180001 100.92,567.964 C100.439998,567.747999 99.9920021,567.440002 99.576,567.04 L99.696,568.936 Z M99.696,564.64 C100.016002,564.928001 100.335998,565.127999 100.656,565.24 C100.976002,565.352001 101.287998,565.408 101.592,565.408 C102.200003,565.408 102.719998,565.132003 103.152,564.58 C103.584002,564.027997 103.8,563.136006 103.8,561.904 C103.8,559.759989 103.112007,558.688 101.736,558.688 C101.047997,558.688 100.368003,559.047996 99.696,559.768 L99.696,564.64 Z M109.488,564.688 C109.488,563.439994 110.015995,562.464004 111.072,561.76 C112.128005,561.055996 113.831988,560.584001 116.184,560.344 C116.152,559.815997 115.992001,559.396002 115.704,559.084 C115.415999,558.771998 114.952003,558.616 114.312,558.616 C113.799997,558.616 113.288003,558.711999 112.776,558.904 C112.263997,559.096001 111.720003,559.359998 111.144,559.696 L109.896,557.368 C110.664004,556.903998 111.467996,556.528001 112.308,556.24 C113.148004,555.951999 114.039995,555.808 114.984,555.808 C116.520008,555.808 117.691996,556.243996 118.5,557.116 C119.308004,557.988004 119.712,559.343991 119.712,561.184 L119.712,568 L116.832,568 L116.568,566.776 L116.496,566.776 C115.983997,567.224002 115.444003,567.587999 114.876,567.868 C114.307997,568.148001 113.688003,568.288 113.016,568.288 C112.471997,568.288 111.984002,568.196001 111.552,568.012 C111.119998,567.827999 110.752002,567.572002 110.448,567.244 C110.143998,566.915998 109.908001,566.536002 109.74,566.104 C109.571999,565.671998 109.488,565.200003 109.488,564.688 Z M112.848,564.424 C112.848,564.808002 112.971999,565.091999 113.22,565.276 C113.468001,565.460001 113.799998,565.552 114.216,565.552 C114.632002,565.552 114.983999,565.464001 115.272,565.288 C115.560001,565.111999 115.863998,564.864002 116.184,564.544 L116.184,562.456 C114.919994,562.632001 114.048002,562.887998 113.568,563.224 C113.087998,563.560002 112.848,563.959998 112.848,564.424 Z M122.736,551.176 L126.264,551.176 L126.264,564.448 C126.264,564.816002 126.331999,565.071999 126.468,565.216 C126.604001,565.360001 126.743999,565.432 126.888,565.432 L127.092,565.432 C127.148,565.432 127.224,565.416 127.32,565.384 L127.752,568 C127.559999,568.08 127.316001,568.148 127.02,568.204 C126.723999,568.26 126.376002,568.288 125.976,568.288 C125.367997,568.288 124.856002,568.192001 124.44,568 C124.023998,567.807999 123.692001,567.540002 123.444,567.196 C123.195999,566.851998 123.016001,566.436002 122.904,565.948 C122.791999,565.459998 122.736,564.912003 122.736,564.304 L122.736,551.176 Z M128.976,562.048 C128.976,561.071995 129.115999,560.200004 129.396,559.432 C129.676001,558.663996 130.043998,558.012003 130.5,557.476 C130.956002,556.939997 131.483997,556.528001 132.084,556.24 C132.684003,555.951999 133.295997,555.808 133.92,555.808 C134.592003,555.808 135.143998,555.919999 135.576,556.144 C136.008002,556.368001 136.431998,556.671998 136.848,557.056 L136.704,555.232 L136.704,551.176 L140.232,551.176 L140.232,568 L137.352,568 L137.112,566.824 L137.016,566.824 C136.599998,567.240002 136.112003,567.587999 135.552,567.868 C134.991997,568.148001 134.424003,568.288 133.848,568.288 C133.111996,568.288 132.444003,568.144001 131.844,567.856 C131.243997,567.567999 130.732002,567.156003 130.308,566.62 C129.883998,566.083997 129.556001,565.432004 129.324,564.664 C129.091999,563.895996 128.976,563.024005 128.976,562.048 Z M132.6,562 C132.6,563.184006 132.787998,564.047997 133.164,564.592 C133.540002,565.136003 134.071997,565.408 134.76,565.408 C135.144002,565.408 135.491998,565.328001 135.804,565.168 C136.116002,565.007999 136.415999,564.728002 136.704,564.328 L136.704,559.456 C136.383998,559.167999 136.056002,558.968001 135.72,558.856 C135.383998,558.743999 135.056002,558.688 134.736,558.688 C134.175997,558.688 133.680002,558.955997 133.248,559.492 C132.815998,560.028003 132.6,560.863994 132.6,562 Z M145.104,554.344 C144.511997,554.344 144.024002,554.172002 143.64,553.828 C143.255998,553.483998 143.064,553.040003 143.064,552.496 C143.064,551.951997 143.255998,551.512002 143.64,551.176 C144.024002,550.839998 144.511997,550.672 145.104,550.672 C145.712003,550.672 146.203998,550.839998 146.58,551.176 C146.956002,551.512002 147.144,551.951997 147.144,552.496 C147.144,553.040003 146.956002,553.483998 146.58,553.828 C146.203998,554.172002 145.712003,554.344 145.104,554.344 Z M143.352,556.096 L146.88,556.096 L146.88,568 L143.352,568 L143.352,556.096 Z M148.704,556.096 L152.256,556.096 L153.792,561.712 C153.952001,562.304003 154.107999,562.907997 154.26,563.524 C154.412001,564.140003 154.567999,564.759997 154.728,565.384 L154.824,565.384 C154.968001,564.759997 155.115999,564.140003 155.268,563.524 C155.420001,562.907997 155.575999,562.304003 155.736,561.712 L157.296,556.096 L160.68,556.096 L156.792,568 L152.712,568 L148.704,556.096 Z M161.832,562.048 C161.832,561.087995 161.991998,560.220004 162.312,559.444 C162.632002,558.667996 163.051997,558.012003 163.572,557.476 C164.092003,556.939997 164.687997,556.528001 165.36,556.24 C166.032003,555.951999 166.727996,555.808 167.448,555.808 C168.296004,555.808 169.035997,555.951999 169.668,556.24 C170.300003,556.528001 170.827998,556.927997 171.252,557.44 C171.676002,557.952003 171.991999,558.555997 172.2,559.252 C172.408001,559.948003 172.512,560.703996 172.512,561.52 C172.512,561.840002 172.496,562.131999 172.464,562.396 C172.432,562.660001 172.4,562.863999 172.368,563.008 L165.24,563.008 C165.400001,563.920005 165.755997,564.579998 166.308,564.988 C166.860003,565.396002 167.535996,565.6 168.336,565.6 C169.184004,565.6 170.039996,565.336003 170.904,564.808 L172.08,566.944 C171.471997,567.360002 170.796004,567.687999 170.052,567.928 C169.307996,568.168001 168.576004,568.288 167.856,568.288 C167.007996,568.288 166.216004,568.148001 165.48,567.868 C164.743996,567.587999 164.104003,567.180003 163.56,566.644 C163.015997,566.107997 162.592002,565.456004 162.288,564.688 C161.983998,563.919996 161.832,563.040005 161.832,562.048 Z M169.512,560.824 C169.512,560.135997 169.360002,559.576002 169.056,559.144 C168.751998,558.711998 168.240004,558.496 167.52,558.496 C166.959997,558.496 166.468002,558.683998 166.044,559.06 C165.619998,559.436002 165.344001,560.023996 165.216,560.824 L169.512,560.824 Z M174.96,556.096 L177.84,556.096 L178.08,558.184 L178.176,558.184 C178.608002,557.367996 179.127997,556.768002 179.736,556.384 C180.344003,555.999998 180.951997,555.808 181.56,555.808 C181.896002,555.808 182.171999,555.828 182.388,555.868 C182.604001,555.908 182.799999,555.968 182.976,556.048 L182.4,559.096 C182.175999,559.032 181.968001,558.984 181.776,558.952 C181.583999,558.92 181.360001,558.904 181.104,558.904 C180.655998,558.904 180.188002,559.063998 179.7,559.384 C179.211998,559.704002 178.808002,560.271996 178.488,561.088 L178.488,568 L174.96,568 L174.96,556.096 Z M185.04,564.424 C185.584003,564.840002 186.103998,565.151999 186.6,565.36 C187.096002,565.568001 187.599997,565.672 188.112,565.672 C188.640003,565.672 189.023999,565.584001 189.264,565.408 C189.504001,565.231999 189.624,564.984002 189.624,564.664 C189.624,564.471999 189.556001,564.300001 189.42,564.148 C189.283999,563.995999 189.100001,563.856001 188.868,563.728 C188.635999,563.599999 188.376001,563.484001 188.088,563.38 C187.799999,563.275999 187.504002,563.160001 187.2,563.032 C186.831998,562.887999 186.464002,562.720001 186.096,562.528 C185.727998,562.335999 185.392002,562.100001 185.088,561.82 C184.783998,561.539999 184.536001,561.212002 184.344,560.836 C184.151999,560.459998 184.056,560.024002 184.056,559.528 C184.056,558.983997 184.163999,558.480002 184.38,558.016 C184.596001,557.551998 184.903998,557.160002 185.304,556.84 C185.704002,556.519998 186.183997,556.268001 186.744,556.084 C187.304003,555.899999 187.927997,555.808 188.616,555.808 C189.528005,555.808 190.327997,555.963998 191.016,556.276 C191.704003,556.588002 192.303997,556.935998 192.816,557.32 L191.232,559.432 C190.799998,559.111998 190.376002,558.864001 189.96,558.688 C189.543998,558.511999 189.128002,558.424 188.712,558.424 C187.815996,558.424 187.368,558.735997 187.368,559.36 C187.368,559.552001 187.431999,559.715999 187.56,559.852 C187.688001,559.988001 187.859999,560.111999 188.076,560.224 C188.292001,560.336001 188.539999,560.443999 188.82,560.548 C189.100001,560.652001 189.391998,560.759999 189.696,560.872 C190.080002,561.016001 190.459998,561.179999 190.836,561.364 C191.212002,561.548001 191.555998,561.775999 191.868,562.048 C192.180002,562.320001 192.431999,562.651998 192.624,563.044 C192.816001,563.436002 192.912,563.903997 192.912,564.448 C192.912,564.992003 192.808001,565.495998 192.6,565.96 C192.391999,566.424002 192.080002,566.827998 191.664,567.172 C191.247998,567.516002 190.736003,567.787999 190.128,567.988 C189.519997,568.188001 188.816004,568.288 188.016,568.288 C187.231996,568.288 186.428004,568.136002 185.604,567.832 C184.779996,567.527998 184.064003,567.128002 183.456,566.632 L185.04,564.424 Z M196.896,554.344 C196.303997,554.344 195.816002,554.172002 195.432,553.828 C195.047998,553.483998 194.856,553.040003 194.856,552.496 C194.856,551.951997 195.047998,551.512002 195.432,551.176 C195.816002,550.839998 196.303997,550.672 196.896,550.672 C197.504003,550.672 197.995998,550.839998 198.372,551.176 C198.748002,551.512002 198.936,551.951997 198.936,552.496 C198.936,553.040003 198.748002,553.483998 198.372,553.828 C197.995998,554.172002 197.504003,554.344 196.896,554.344 Z M195.144,556.096 L198.672,556.096 L198.672,568 L195.144,568 L195.144,556.096 Z M202.248,558.856 L200.616,558.856 L200.616,556.24 L202.44,556.096 L202.848,552.928 L205.776,552.928 L205.776,556.096 L208.632,556.096 L208.632,558.856 L205.776,558.856 L205.776,563.632 C205.776,564.304003 205.915999,564.787999 206.196,565.084 C206.476001,565.380001 206.847998,565.528 207.312,565.528 C207.504001,565.528 207.699999,565.504 207.9,565.456 C208.100001,565.408 208.279999,565.352 208.44,565.288 L208.992,567.856 C208.671998,567.952 208.296002,568.048 207.864,568.144 C207.431998,568.24 206.928003,568.288 206.352,568.288 C205.615996,568.288 204.988003,568.176001 204.468,567.952 C203.947997,567.727999 203.524002,567.416002 203.196,567.016 C202.867998,566.615998 202.628001,566.132003 202.476,565.564 C202.323999,564.995997 202.248,564.368003 202.248,563.68 L202.248,558.856 Z M211.224,569.728 C211.336001,569.76 211.463999,569.792 211.608,569.824 C211.752001,569.856 211.887999,569.872 212.016,569.872 C212.608003,569.872 213.063998,569.728001 213.384,569.44 C213.704002,569.151999 213.943999,568.776002 214.104,568.312 L214.272,567.688 L209.688,556.096 L213.24,556.096 L214.944,561.208 C215.120001,561.752003 215.279999,562.303997 215.424,562.864 C215.568001,563.424003 215.719999,563.999997 215.88,564.592 L215.976,564.592 C216.104001,564.031997 216.235999,563.468003 216.372,562.9 C216.508001,562.331997 216.647999,561.768003 216.792,561.208 L218.232,556.096 L221.616,556.096 L217.488,568.12 C217.199999,568.872004 216.900002,569.531997 216.588,570.1 C216.275998,570.668003 215.916002,571.139998 215.508,571.516 C215.099998,571.892002 214.636003,572.175999 214.116,572.368 C213.595997,572.560001 212.984004,572.656 212.28,572.656 C211.911998,572.656 211.600001,572.636 211.344,572.596 C211.087999,572.556 210.840001,572.496 210.6,572.416 L211.224,569.728 Z" id="Flattened-text" fill="#FFFFFF"></path>
    </g>
</svg>